<svg width="24" height="24" viewBox="0 0 24 24" fill="none" xmlns="http://www.w3.org/2000/svg">
<g id="dropbox-svgrepo-com 1">
<g id="Group">
<path id="Vector" d="M8.16738 17.0358C8.063 17.0358 7.96453 17.0125 7.8829 16.9683L6.63375 16.2928C6.61491 16.2826 6.60225 16.2795 6.59561 16.2786C6.59318 16.285 6.58984 16.2977 6.58984 16.3189V16.7072C6.58984 16.8241 6.68058 16.9865 6.78011 17.0478L11.6209 20.0287V14.3926L8.56739 16.9023C8.46417 16.9872 8.31838 17.0358 8.16738 17.0358Z" fill="#5286FA"/>
<path id="Vector_2" d="M8.24969 16.1975C8.32201 16.1975 8.39408 16.1739 8.43785 16.1359L11.0709 13.8507C11.0945 13.8303 11.1071 13.8082 11.1057 13.7901C11.1041 13.772 11.0879 13.7524 11.0613 13.7361L6.35898 10.8814C6.32319 10.8596 6.27464 10.8477 6.22222 10.8477C6.15079 10.8477 6.08195 10.8697 6.03828 10.9068L3.2971 13.2336C3.27429 13.253 3.26145 13.274 3.26279 13.2899C3.26423 13.3058 3.2804 13.3244 3.30628 13.3395L8.11656 16.1655C8.15157 16.1861 8.19886 16.1975 8.24969 16.1975Z" fill="#5286FA"/>
<path id="Vector_3" d="M6.25351 9.76891C6.30783 9.76891 6.35807 9.7565 6.39484 9.734L11.4306 6.65588C11.4564 6.64013 11.4724 6.62097 11.4736 6.60452C11.4748 6.58803 11.4617 6.56679 11.4385 6.54746L8.40635 4.02825C8.363 3.99229 8.29497 3.9707 8.22435 3.9707C8.1707 3.9707 8.12095 3.98318 8.08449 4.00575L3.04275 7.11861C3.01712 7.13436 3.00119 7.15352 3.00007 7.16973C2.99894 7.18597 3.01223 7.20706 3.03554 7.22612L6.06957 9.71161C6.11341 9.74747 6.18225 9.76891 6.25351 9.76891Z" fill="#5286FA"/>
<path id="Vector_4" d="M20.9574 7.11986L15.9165 4.00757C15.88 3.98507 15.8302 3.97266 15.7765 3.97266C15.706 3.97266 15.6381 3.99417 15.5946 4.03014L12.5626 6.54829C12.5393 6.56759 12.5262 6.58886 12.5274 6.6052C12.5287 6.62162 12.5447 6.64082 12.5704 6.65657L17.6062 9.73469C17.6431 9.75719 17.6932 9.7696 17.7476 9.7696C17.8188 9.7696 17.8876 9.74808 17.9314 9.71222L20.9646 7.2273C20.9879 7.20824 21.0011 7.18722 21 7.17098C20.999 7.1547 20.9831 7.13561 20.9574 7.11986Z" fill="#5286FA"/>
<path id="Vector_5" d="M20.7045 13.2337L17.9626 10.9068C17.919 10.8697 17.8503 10.8477 17.7788 10.8477C17.7263 10.8477 17.6777 10.8596 17.6419 10.8814L12.94 13.7361C12.9133 13.7524 12.8972 13.772 12.8956 13.79C12.8941 13.8081 12.9067 13.8302 12.9303 13.8506L15.5648 16.1359C15.6086 16.1738 15.6807 16.1974 15.753 16.1974C15.8038 16.1974 15.8511 16.186 15.8863 16.1655L20.6953 13.3396C20.7211 13.3243 20.7374 13.3058 20.7387 13.29C20.7402 13.2742 20.7273 13.2531 20.7045 13.2337Z" fill="#5286FA"/>
<path id="Vector_6" d="M17.3662 16.2926L16.1182 16.9681C16.0365 17.0123 15.9381 17.0357 15.8337 17.0357C15.6827 17.0357 15.5369 16.9871 15.4337 16.9023L12.3799 14.3926V19.9963C12.3799 20.0082 12.3809 20.0176 12.3822 20.0246C12.3886 20.0221 12.3971 20.0182 12.4075 20.0117L17.2198 17.0477C17.3194 16.9864 17.4101 16.824 17.4101 16.7071V16.3188C17.4101 16.2976 17.4069 16.2851 17.4044 16.2787C17.3971 16.2796 17.3846 16.2828 17.3662 16.2926Z" fill="#5286FA"/>
</g>
</g>
</svg>
