<svg width="24" height="24" viewBox="0 0 24 24" fill="none" xmlns="http://www.w3.org/2000/svg">
<g id="google-drive-svgrepo-com 1">
<path id="Vector" d="M12.0014 9.339L9.40575 4.7582C9.49192 4.67046 9.59107 4.6129 9.69022 4.57422C8.92485 4.82614 8.57362 5.68568 8.57362 5.68568L3.83171 14.0518C3.76499 14.3142 3.74646 14.551 3.7548 14.7595H8.9304L12.0014 9.339Z" fill="#34A853"/>
<path id="Vector_2" d="M12.002 9.339L15.073 14.7595H20.2486C20.2569 14.551 20.2384 14.3142 20.1716 14.0518L15.4298 5.68568C15.4298 5.68568 15.0776 4.82614 14.3131 4.57422C14.4113 4.6129 14.5114 4.67046 14.5976 4.7582L12.002 9.339Z" fill="#FBBC05"/>
<path id="Vector_3" d="M12.0009 9.33855L14.5966 4.75778C14.5104 4.67003 14.4103 4.61248 14.3121 4.57379C14.199 4.537 14.0777 4.51247 13.9461 4.50586H13.8089H10.193H10.0558C9.92517 4.51152 9.80285 4.53605 9.68975 4.57379C9.59157 4.61248 9.49145 4.67003 9.40527 4.75778L12.0009 9.33855Z" fill="#188038"/>
<path id="Vector_4" d="M8.93115 14.7578L6.36515 19.2868C6.36515 19.2868 6.2799 19.2452 6.16406 19.1593C6.52826 19.4396 6.88225 19.499 6.88225 19.499H16.9601C17.516 19.499 17.6319 19.2868 17.6319 19.2868C17.6337 19.2858 17.6347 19.2848 17.6365 19.2839L15.0724 14.7578H8.93115Z" fill="#4285F4"/>
<path id="Vector_5" d="M8.93145 14.7578H3.75586C3.78181 15.373 4.0487 15.7325 4.0487 15.7325L4.2433 16.0702C4.2572 16.0901 4.26554 16.1014 4.26554 16.1014L4.68904 16.8449L5.63982 18.4999C5.66762 18.5668 5.70006 18.6281 5.73435 18.6866C5.74732 18.7065 5.75936 18.7282 5.77327 18.7471C5.77697 18.7527 5.78068 18.7584 5.78439 18.764C5.90208 18.9301 6.03367 19.0584 6.16526 19.1593C6.28109 19.2462 6.36635 19.2868 6.36635 19.2868L8.93145 14.7578Z" fill="#1967D2"/>
<path id="Vector_6" d="M15.0723 14.7578H20.2478C20.2218 15.373 19.955 15.7325 19.955 15.7325L19.7604 16.0702C19.7465 16.0901 19.7382 16.1014 19.7382 16.1014L19.3146 16.8449L18.3639 18.4999C18.336 18.5668 18.3036 18.6281 18.2694 18.6866C18.2564 18.7065 18.2443 18.7282 18.2304 18.7471C18.2267 18.7527 18.223 18.7584 18.2193 18.764C18.1016 18.9301 17.97 19.0584 17.8384 19.1593C17.7226 19.2462 17.6373 19.2868 17.6373 19.2868L15.0723 14.7578Z" fill="#EA4335"/>
</g>
</svg>
