<svg width="189" height="147" viewBox="0 0 189 147" fill="none" xmlns="http://www.w3.org/2000/svg">
<path d="M122.679 131.922H123.639V130.963V65.7151C123.639 62.3589 120.918 59.6381 117.562 59.6381H12.6541C9.29786 59.6381 6.5771 62.3589 6.5771 65.7151V130.963V131.922H7.53662H122.679Z" fill="black" stroke="url(#paint0_linear_3179_12282)" stroke-width="1.91905"/>
<circle cx="65.6733" cy="102.139" r="18.3423" fill="#161616"/>
<path d="M6.22157 132.556C6.35827 132.175 6.71972 131.92 7.12481 131.92H123.091C123.496 131.92 123.858 132.175 123.994 132.556L127.893 143.431C128.117 144.056 127.653 144.714 126.989 144.714H3.22655C2.56253 144.714 2.09924 144.056 2.32331 143.431L6.22157 132.556Z" fill="black" stroke="url(#paint1_linear_3179_12282)" stroke-width="1.91905"/>
<circle cx="12.6534" cy="65.7208" r="1.27936" fill="#526077"/>
<circle cx="17.7716" cy="65.7208" r="1.27936" fill="#526077"/>
<circle cx="22.8902" cy="65.7208" r="1.27936" fill="#526077"/>
<path fill-rule="evenodd" clip-rule="evenodd" d="M13.9826 70.5039C14.0763 70.5975 14.0763 70.7494 13.9826 70.8431L12.9528 71.8729H15.4921C15.6246 71.8729 15.732 71.9803 15.732 72.1128C15.732 72.2452 15.6246 72.3526 15.4921 72.3526H12.9528L13.9826 73.3824C14.0763 73.4761 14.0763 73.628 13.9826 73.7217C13.8889 73.8153 13.737 73.8153 13.6433 73.7217L12.204 72.2824C12.1104 72.1887 12.1104 72.0368 12.204 71.9431L13.6433 70.5039C13.737 70.4102 13.8889 70.4102 13.9826 70.5039Z" fill="#B1BBC8"/>
<g clip-path="url(#clip0_3179_12282)">
<path fill-rule="evenodd" clip-rule="evenodd" d="M21.56 70.5039C21.6537 70.4102 21.8055 70.4102 21.8992 70.5039L23.3385 71.9431C23.4322 72.0368 23.4322 72.1887 23.3385 72.2824L21.8992 73.7217C21.8055 73.8153 21.6537 73.8153 21.56 73.7217C21.4663 73.628 21.4663 73.4761 21.56 73.3824L22.5898 72.3526H20.0504C19.9179 72.3526 19.8105 72.2452 19.8105 72.1128C19.8105 71.9803 19.9179 71.8729 20.0504 71.8729H22.5898L21.56 70.8431C21.4663 70.7494 21.4663 70.5975 21.56 70.5039Z" fill="#B1BBC8"/>
</g>
<g clip-path="url(#clip1_3179_12282)">
<path fill-rule="evenodd" clip-rule="evenodd" d="M29.1391 70.6762C28.9452 70.5932 28.7364 70.5505 28.5255 70.5508C27.6646 70.5508 26.9663 71.2492 26.9663 72.11C26.9663 72.9709 27.6647 73.6692 28.5255 73.6692H28.5255C28.848 73.6692 29.1626 73.5693 29.4259 73.3831C29.6892 73.197 29.8884 72.9338 29.996 72.6298C30.0181 72.5673 29.9853 72.4988 29.9229 72.4767C29.8605 72.4546 29.7919 72.4873 29.7698 72.5498C29.6788 72.807 29.5102 73.0297 29.2874 73.1872C29.0646 73.3447 28.7984 73.4293 28.5255 73.4294L28.5255 70.7907C28.5255 70.7907 28.5255 70.7907 28.5255 70.7907H28.5256L28.5257 70.7907C28.7041 70.7904 28.8807 70.8265 29.0447 70.8967C29.2078 70.9665 29.3551 71.0686 29.4777 71.1968L29.5525 71.2838L29.171 71.6654C29.0954 71.741 29.1489 71.8701 29.2558 71.8701H30.0848C30.1166 71.8701 30.1471 71.8575 30.1696 71.835C30.1921 71.8125 30.2047 71.782 30.2047 71.7502V70.9212C30.2047 70.8144 30.0755 70.7607 30 70.8364L29.7226 71.1137L29.6556 71.0357L29.6535 71.0335C29.508 70.8807 29.333 70.7592 29.1391 70.6762ZM28.5255 70.7907L28.5255 73.4294C27.7972 73.4293 27.2062 72.8384 27.2062 72.11C27.2062 71.3817 27.7971 70.7907 28.5255 70.7907Z" fill="#B1BBC8"/>
</g>
<rect x="33.9712" y="69.9375" width="74.7272" height="4.67045" rx="2.33523" fill="#23272E"/>
<path fill-rule="evenodd" clip-rule="evenodd" d="M69.0738 93.0484C69.4778 92.9724 69.8935 92.986 70.2917 93.0883C70.6922 93.1912 71.065 93.3811 71.3836 93.6446C71.7022 93.9082 71.9587 94.2387 72.1348 94.6128C72.3109 94.9869 72.4023 95.3952 72.4024 95.8087V95.8089V96.4477C73.6764 96.6759 74.6433 97.7897 74.6433 99.1293V107.303C74.6433 108.807 73.4235 110.027 71.9188 110.027H58.2967C56.792 110.027 55.5723 108.807 55.5723 107.303V99.1293L55.5723 99.1277V97.7247V97.7245C55.5719 97.0704 55.7998 96.4368 56.2166 95.9327C56.6335 95.4285 57.2132 95.0856 57.8559 94.9632C57.8602 94.9623 57.8645 94.9616 57.8688 94.9608L69.0738 93.0484ZM71.0402 95.8091V96.4049H58.2967C58.0659 96.4049 57.8419 96.4336 57.6279 96.4876C57.7737 96.3986 57.935 96.3355 58.1051 96.3024L69.309 94.3901C69.3113 94.3897 69.3135 94.3893 69.3158 94.3889C69.3178 94.3886 69.3199 94.3882 69.3219 94.3878C69.5311 94.3479 69.7466 94.3547 69.9529 94.4077C70.1592 94.4607 70.3512 94.5585 70.5154 94.6943C70.6795 94.8301 70.8116 95.0004 70.9023 95.1931C70.993 95.3857 71.0401 95.596 71.0402 95.8089V95.8091ZM56.9345 107.303L56.9345 99.8104V99.128C56.9352 98.3762 57.5448 97.7671 58.2967 97.7671H71.9188C72.6712 97.7671 73.2811 98.377 73.2811 99.1293V107.303C73.2811 108.055 72.6712 108.665 71.9188 108.665H58.2967C57.5444 108.665 56.9345 108.055 56.9345 107.303ZM69.1187 104.349C69.3427 104.498 69.6061 104.578 69.8755 104.578C70.2368 104.578 70.5833 104.435 70.8388 104.179C71.0942 103.924 71.2377 103.577 71.2377 103.216C71.2377 102.947 71.1578 102.683 71.0082 102.459C70.8585 102.235 70.6457 102.061 70.3968 101.957C70.1479 101.854 69.874 101.827 69.6098 101.88C69.3455 101.932 69.1028 102.062 68.9123 102.253C68.7218 102.443 68.592 102.686 68.5395 102.95C68.4869 103.214 68.5139 103.488 68.617 103.737C68.7201 103.986 68.8947 104.199 69.1187 104.349Z" fill="#867DFC"/>
<g clip-path="url(#clip2_3179_12282)">
<rect x="135.5" y="41.6758" width="52" height="104" rx="4.81504" fill="black"/>
<circle cx="161.401" cy="93.6743" r="18.3423" fill="#161616"/>
<rect x="158.365" y="43.2812" width="6.41827" height="1.20343" rx="0.601713" fill="#434E61"/>
<path fill-rule="evenodd" clip-rule="evenodd" d="M165.373 85.0785C165.767 85.0043 166.173 85.0176 166.562 85.1175C166.953 85.2179 167.317 85.4034 167.628 85.6606C167.939 85.9179 168.189 86.2407 168.361 86.6059C168.533 86.9711 168.622 87.3698 168.623 87.7735V87.7737V88.3974C169.866 88.6202 170.81 89.7077 170.81 91.0156V98.9956C170.81 100.465 169.62 101.656 168.15 101.656H154.85C153.381 101.656 152.19 100.465 152.19 98.9956V91.0156L152.19 91.014V89.6442V89.644C152.19 89.0054 152.413 88.3867 152.82 87.8946C153.227 87.4023 153.793 87.0676 154.42 86.948C154.424 86.9472 154.428 86.9464 154.433 86.9457L165.373 85.0785ZM167.293 87.7739V88.3556H154.85C154.625 88.3556 154.406 88.3836 154.197 88.4363C154.34 88.3495 154.497 88.2879 154.663 88.2556L165.602 86.3885C165.605 86.3881 165.607 86.3877 165.609 86.3873C165.611 86.387 165.613 86.3866 165.615 86.3862C165.819 86.3473 166.03 86.3539 166.231 86.4057C166.432 86.4574 166.62 86.5529 166.78 86.6855C166.94 86.818 167.069 86.9843 167.158 87.1724C167.247 87.3605 167.292 87.5658 167.293 87.7737V87.7739ZM153.52 98.9956L153.52 91.6806V91.0143C153.521 90.2804 154.116 89.6856 154.85 89.6856H168.15C168.885 89.6856 169.48 90.2811 169.48 91.0156V98.9956C169.48 99.7301 168.885 100.326 168.15 100.326H154.85C154.116 100.326 153.52 99.7301 153.52 98.9956ZM165.417 96.1115C165.635 96.2576 165.892 96.3356 166.155 96.3356C166.508 96.3356 166.846 96.1955 167.096 95.9461C167.345 95.6966 167.485 95.3583 167.485 95.0056C167.485 94.7426 167.407 94.4854 167.261 94.2667C167.115 94.048 166.907 93.8775 166.664 93.7768C166.421 93.6762 166.154 93.6498 165.896 93.7012C165.638 93.7525 165.401 93.8791 165.215 94.0651C165.029 94.2512 164.902 94.4881 164.851 94.7461C164.8 95.0041 164.826 95.2715 164.927 95.5146C165.027 95.7576 165.198 95.9653 165.417 96.1115Z" fill="#867DFC"/>
</g>
<rect x="134.898" y="41.0741" width="53.2034" height="105.203" rx="5.41675" stroke="#434E61" stroke-width="1.20343"/>
<rect x="100.784" y="0.777778" width="54.4444" height="54.4444" rx="27.2222" fill="#232323"/>
<rect x="100.784" y="0.777778" width="54.4444" height="54.4444" rx="27.2222" stroke="#7F1D1D" stroke-width="1.55556"/>
<path fill-rule="evenodd" clip-rule="evenodd" d="M120.451 23.1204C119.163 23.1204 117.928 23.632 117.017 24.5428C116.106 25.4535 115.594 26.6887 115.594 27.9767C115.594 29.2647 116.106 30.4999 117.017 31.4107C117.928 32.3214 119.163 32.8331 120.451 32.8331H124.273C125.167 32.8331 125.891 33.5578 125.891 34.4518C125.891 35.3459 125.167 36.0706 124.273 36.0706H120.451C118.304 36.0706 116.245 35.2179 114.728 33.7C113.21 32.1821 112.357 30.1234 112.357 27.9767C112.357 25.8301 113.21 23.7714 114.728 22.2535C116.245 20.7356 118.304 19.8828 120.451 19.8828H124.188C125.082 19.8828 125.807 20.6076 125.807 21.5016C125.807 22.3956 125.082 23.1204 124.188 23.1204H120.451ZM130.203 21.5016C130.203 20.6076 130.928 19.8828 131.822 19.8828H135.559C137.706 19.8828 139.765 20.7356 141.283 22.2535C142.801 23.7714 143.653 25.8301 143.653 27.9767C143.653 30.1234 142.801 32.1821 141.283 33.7C139.765 35.2179 137.706 36.0706 135.559 36.0706H131.738C130.844 36.0706 130.119 35.3459 130.119 34.4518C130.119 33.5578 130.844 32.8331 131.738 32.8331H135.559C136.847 32.8331 138.083 32.3214 138.993 31.4107C139.904 30.4999 140.416 29.2647 140.416 27.9767C140.416 26.6887 139.904 25.4535 138.993 24.5428C138.083 23.632 136.847 23.1204 135.559 23.1204H131.822C130.928 23.1204 130.203 22.3956 130.203 21.5016ZM120.523 27.9767C120.523 27.0827 121.248 26.3579 122.142 26.3579H134.003C134.897 26.3579 135.622 27.0827 135.622 27.9767C135.622 28.8707 134.897 29.5955 134.003 29.5955H122.142C121.248 29.5955 120.523 28.8707 120.523 27.9767Z" fill="#F87171"/>
<path d="M114.634 15.4531L139.095 39.9147" stroke="#F87171" stroke-width="3.11111" stroke-linecap="round"/>
<path d="M118.621 15.4531L143.082 39.9147" stroke="#232323" stroke-width="3.11111" stroke-linecap="round"/>
<defs>
<linearGradient id="paint0_linear_3179_12282" x1="65.108" y1="49.7231" x2="65.108" y2="170.468" gradientUnits="userSpaceOnUse">
<stop stop-color="#434E61"/>
<stop offset="1" stop-color="#434E61" stop-opacity="0"/>
</linearGradient>
<linearGradient id="paint1_linear_3179_12282" x1="65.1079" y1="120.726" x2="65.1079" y2="154.629" gradientUnits="userSpaceOnUse">
<stop stop-color="#434E61" stop-opacity="0"/>
<stop offset="1" stop-color="#434E61"/>
</linearGradient>
<clipPath id="clip0_3179_12282">
<rect width="5.11746" height="5.11746" fill="white" transform="translate(19.0508 69.5547)"/>
</clipPath>
<clipPath id="clip1_3179_12282">
<rect width="3.83809" height="3.83809" fill="white" transform="translate(26.7266 70.1914)"/>
</clipPath>
<clipPath id="clip2_3179_12282">
<rect x="135.5" y="41.6758" width="52" height="104" rx="4.81504" fill="white"/>
</clipPath>
</defs>
</svg>
