<svg width="156" height="156" viewBox="0 0 156 156" fill="none" xmlns="http://www.w3.org/2000/svg">
<rect width="156" height="156" rx="78" fill="#212121"/>
<path d="M105.902 49.7891L81.7471 67.7576L86.2392 57.1532L105.902 49.7891Z" fill="#E17726" stroke="#E17726" stroke-width="0.0795845" stroke-linecap="round" stroke-linejoin="round"/>
<path d="M50.0659 49.7695L74.0731 67.8854L69.8019 57.1337L50.0659 49.7695Z" fill="#E27625" stroke="#E27625" stroke-width="0.0795845" stroke-linecap="round" stroke-linejoin="round"/>
<path d="M97.1953 91.3711L90.7148 101.239L104.559 105.068L108.462 91.592L97.1953 91.3711Z" fill="#E27625" stroke="#E27625" stroke-width="0.0795845" stroke-linecap="round" stroke-linejoin="round"/>
<path d="M47.563 91.592L51.466 105.068L65.237 101.239L58.8302 91.3711L47.563 91.592Z" fill="#E27625" stroke="#E27625" stroke-width="0.0795845" stroke-linecap="round" stroke-linejoin="round"/>
<path d="M64.5032 74.7356L60.6738 80.5533L74.2975 81.1424L73.8557 66.4141L64.5032 74.7356Z" fill="#E27625" stroke="#E27625" stroke-width="0.0795845" stroke-linecap="round" stroke-linejoin="round"/>
<path d="M91.5292 74.7266L82.0294 66.2578L81.7349 81.1334L95.3586 80.5443L91.5292 74.7266Z" fill="#E27625" stroke="#E27625" stroke-width="0.0795845" stroke-linecap="round" stroke-linejoin="round"/>
<path d="M65.2461 101.237L73.494 97.2608L66.3507 91.6641L65.2461 101.237Z" fill="#E27625" stroke="#E27625" stroke-width="0.0795845" stroke-linecap="round" stroke-linejoin="round"/>
<path d="M82.54 97.2608L90.7143 101.237L89.6096 91.6641L82.54 97.2608Z" fill="#E27625" stroke="#E27625" stroke-width="0.0795845" stroke-linecap="round" stroke-linejoin="round"/>
<path d="M90.7465 101.277L82.5723 97.3008L83.235 102.603L83.1614 104.886L90.7465 101.277Z" fill="#D5BFB2" stroke="#D5BFB2" stroke-width="0.0795845" stroke-linecap="round" stroke-linejoin="round"/>
<path d="M65.2612 101.277L72.92 104.886L72.8463 102.603L73.5091 97.3008L65.2612 101.277Z" fill="#D5BFB2" stroke="#D5BFB2" stroke-width="0.0795845" stroke-linecap="round" stroke-linejoin="round"/>
<path d="M73.0601 88.1585L66.2114 86.1702L70.9981 83.9609L73.0601 88.1585Z" fill="#233447" stroke="#233447" stroke-width="0.0795845" stroke-linecap="round" stroke-linejoin="round"/>
<path d="M83.0122 88.1585L85.0005 83.9609L89.8609 86.1702L83.0122 88.1585Z" fill="#233447" stroke="#233447" stroke-width="0.0795845" stroke-linecap="round" stroke-linejoin="round"/>
<path d="M65.2525 101.251L66.4308 91.3828L58.8457 91.6037L65.2525 101.251Z" fill="#CC6228" stroke="#CC6228" stroke-width="0.0795845" stroke-linecap="round" stroke-linejoin="round"/>
<path d="M89.6226 91.3828L90.7272 101.251L97.2077 91.6037L89.6226 91.3828Z" fill="#CC6228" stroke="#CC6228" stroke-width="0.0795845" stroke-linecap="round" stroke-linejoin="round"/>
<path d="M95.3752 80.5586L81.7515 81.1477L83.0034 88.1437L84.9917 83.9461L89.8521 86.1554L95.3752 80.5586Z" fill="#CC6228" stroke="#CC6228" stroke-width="0.0795845" stroke-linecap="round" stroke-linejoin="round"/>
<path d="M66.2136 86.1554L71.0003 83.9461L73.0622 88.1437L74.3141 81.1477L60.6904 80.5586L66.2136 86.1554Z" fill="#CC6228" stroke="#CC6228" stroke-width="0.0795845" stroke-linecap="round" stroke-linejoin="round"/>
<path d="M60.6924 80.5586L66.3628 91.6785L66.2155 86.1554L60.6924 80.5586Z" fill="#E27525" stroke="#E27525" stroke-width="0.0795845" stroke-linecap="round" stroke-linejoin="round"/>
<path d="M89.8542 86.1554L89.6333 91.6785L95.3774 80.5586L89.8542 86.1554Z" fill="#E27525" stroke="#E27525" stroke-width="0.0795845" stroke-linecap="round" stroke-linejoin="round"/>
<path d="M74.3193 81.1289L73.0674 88.1249L74.6139 96.4464L74.9821 85.4738L74.3193 81.1289Z" fill="#E27525" stroke="#E27525" stroke-width="0.0795845" stroke-linecap="round" stroke-linejoin="round"/>
<path d="M81.758 81.1289L81.0952 85.4738L81.3898 96.4464L83.0099 88.1249L81.758 81.1289Z" fill="#E27525" stroke="#E27525" stroke-width="0.0795845" stroke-linecap="round" stroke-linejoin="round"/>
<path d="M83.0034 88.168L81.3833 96.4895L82.5616 97.2996L89.6312 91.7028L89.8521 86.1797L83.0034 88.168Z" fill="#F5841F" stroke="#F5841F" stroke-width="0.0795845" stroke-linecap="round" stroke-linejoin="round"/>
<path d="M66.2114 86.1797L66.3587 91.7028L73.502 97.2996L74.6066 96.4895L73.0601 88.168L66.2114 86.1797Z" fill="#F5841F" stroke="#F5841F" stroke-width="0.0795845" stroke-linecap="round" stroke-linejoin="round"/>
<path d="M83.1454 104.874L83.2191 102.591L82.5563 102.076H73.4247L72.8356 102.591L72.9092 104.874L65.2505 101.266L67.9016 103.475L73.3511 107.231H82.6299L88.0794 103.475L90.7305 101.266L83.1454 104.874Z" fill="#C0AC9D" stroke="#C0AC9D" stroke-width="0.0795845" stroke-linecap="round" stroke-linejoin="round"/>
<path d="M82.5659 97.3101L81.3877 96.5H74.6126L73.508 97.3101L72.8452 102.612L73.4343 102.097H82.5659L83.2287 102.612L82.5659 97.3101Z" fill="#161616" stroke="#161616" stroke-width="0.0795845" stroke-linecap="round" stroke-linejoin="round"/>
<path d="M106.933 68.9164L108.995 58.9747L105.902 49.7695L82.5571 67.149L91.5414 74.7341L104.208 78.4162L107.006 75.1759L105.828 74.2922L107.743 72.5248L106.27 71.3466L108.184 69.8737L106.933 68.9164Z" fill="#763E1A" stroke="#763E1A" stroke-width="0.0795845" stroke-linecap="round" stroke-linejoin="round"/>
<path d="M47.0688 58.9747L49.1308 68.9164L47.8053 69.8737L49.7199 71.3466L48.2471 72.5248L50.2354 74.2922L48.9835 75.1759L51.7819 78.4162L64.5219 74.7341L73.5062 67.149L50.0882 49.7695L47.0688 58.9747Z" fill="#763E1A" stroke="#763E1A" stroke-width="0.0795845" stroke-linecap="round" stroke-linejoin="round"/>
<path d="M104.218 78.4477L91.5514 74.7656L95.3808 80.5833L89.6367 91.7032L97.2218 91.6296H108.489L104.218 78.4477Z" fill="#F5841F" stroke="#F5841F" stroke-width="0.0795845" stroke-linecap="round" stroke-linejoin="round"/>
<path d="M64.5221 74.7656L51.7821 78.4477L47.5845 91.6296H58.8517L66.3631 91.7032L60.6927 80.5833L64.5221 74.7656Z" fill="#F5841F" stroke="#F5841F" stroke-width="0.0795845" stroke-linecap="round" stroke-linejoin="round"/>
<path d="M81.7439 81.14L82.554 67.1481L86.2361 57.1328H69.814L73.496 67.1481L74.3061 81.14L74.6007 85.5585V96.4575H81.3757V85.5585L81.7439 81.14Z" fill="#F5841F" stroke="#F5841F" stroke-width="0.0795845" stroke-linecap="round" stroke-linejoin="round"/>
<g clip-path="url(#clip0_1707_14702)">
<path d="M32.504 46.8879C32.5783 46.3056 33.4217 46.3056 33.496 46.8879L33.9693 50.598C33.9981 50.824 34.176 51.0019 34.402 51.0307L38.1121 51.504C38.6944 51.5783 38.6944 52.4217 38.1121 52.496L34.402 52.9693C34.176 52.9981 33.9981 53.176 33.9693 53.402L33.496 57.1121C33.4217 57.6944 32.5783 57.6944 32.504 57.1121L32.0307 53.402C32.0019 53.176 31.824 52.9981 31.598 52.9693L27.8879 52.496C27.3056 52.4217 27.3056 51.5783 27.8879 51.504L31.598 51.0307C31.824 51.0019 32.0019 50.824 32.0307 50.598L32.504 46.8879Z" fill="#F6F7F9"/>
<path d="M27.504 42.8879C27.5783 42.3056 28.4217 42.3056 28.496 42.8879L28.6299 43.9374C28.6587 44.1634 28.8366 44.3413 29.0626 44.3701L30.1121 44.504C30.6944 44.5783 30.6944 45.4217 30.1121 45.496L29.0626 45.6299C28.8366 45.6587 28.6587 45.8366 28.6299 46.0626L28.496 47.1121C28.4217 47.6944 27.5783 47.6944 27.504 47.1121L27.3701 46.0626C27.3413 45.8366 27.1634 45.6587 26.9374 45.6299L25.8879 45.496C25.3056 45.4217 25.3056 44.5783 25.8879 44.504L26.9374 44.3701C27.1634 44.3413 27.3413 44.1634 27.3701 43.9374L27.504 42.8879Z" fill="#F6F7F9"/>
</g>
<g clip-path="url(#clip1_1707_14702)">
<path d="M124.004 103.513C124.078 102.931 124.922 102.931 124.996 103.513L125.681 108.886C125.71 109.112 125.888 109.29 126.114 109.319L131.487 110.004C132.069 110.078 132.069 110.922 131.487 110.996L126.114 111.681C125.888 111.71 125.71 111.888 125.681 112.114L124.996 117.487C124.922 118.069 124.078 118.069 124.004 117.487L123.319 112.114C123.29 111.888 123.112 111.71 122.886 111.681L117.513 110.996C116.931 110.922 116.931 110.078 117.513 110.004L122.886 109.319C123.112 109.29 123.29 109.112 123.319 108.886L124.004 103.513Z" fill="#F6F7F9"/>
<path d="M117.962 98.6809C118.036 98.0986 118.88 98.0986 118.954 98.6809L119.229 100.839C119.258 101.065 119.436 101.243 119.662 101.272L121.82 101.547C122.402 101.621 122.402 102.465 121.82 102.539L119.662 102.814C119.436 102.843 119.258 103.021 119.229 103.247L118.954 105.405C118.88 105.987 118.036 105.987 117.962 105.405L117.687 103.247C117.658 103.021 117.48 102.843 117.254 102.814L115.096 102.539C114.514 102.465 114.514 101.621 115.096 101.547L117.254 101.272C117.48 101.243 117.658 101.065 117.687 100.839L117.962 98.6809Z" fill="#F6F7F9"/>
</g>
<defs>
<clipPath id="clip0_1707_14702">
<rect width="24" height="24" fill="white" transform="translate(21 40)"/>
</clipPath>
<clipPath id="clip1_1707_14702">
<rect width="29" height="29" fill="white" transform="translate(110 96)"/>
</clipPath>
</defs>
</svg>
