<svg width="64" height="64" viewBox="0 0 64 64" fill="none" xmlns="http://www.w3.org/2000/svg">
<path d="M59.9015 3.78906L35.7471 21.7576L40.2392 11.1532L59.9015 3.78906Z" fill="#E17726" stroke="#E17726" stroke-width="0.0795845" stroke-linecap="round" stroke-linejoin="round"/>
<path d="M4.06592 3.76758L28.0731 21.8834L23.8019 11.1317L4.06592 3.76758Z" fill="#E27625" stroke="#E27625" stroke-width="0.0795845" stroke-linecap="round" stroke-linejoin="round"/>
<path d="M51.1953 45.3691L44.7148 55.2371L58.5595 59.0665L62.4625 45.5901L51.1953 45.3691Z" fill="#E27625" stroke="#E27625" stroke-width="0.0795845" stroke-linecap="round" stroke-linejoin="round"/>
<path d="M1.56299 45.5901L5.466 59.0665L19.237 55.2371L12.8302 45.3691L1.56299 45.5901Z" fill="#E27625" stroke="#E27625" stroke-width="0.0795845" stroke-linecap="round" stroke-linejoin="round"/>
<path d="M18.5032 28.7336L14.6738 34.5513L28.2975 35.1405L27.8557 20.4121L18.5032 28.7336Z" fill="#E27625" stroke="#E27625" stroke-width="0.0795845" stroke-linecap="round" stroke-linejoin="round"/>
<path d="M45.5292 28.7247L36.0294 20.2559L35.7349 35.1315L49.3586 34.5424L45.5292 28.7247Z" fill="#E27625" stroke="#E27625" stroke-width="0.0795845" stroke-linecap="round" stroke-linejoin="round"/>
<path d="M19.2461 55.2375L27.494 51.2608L20.3507 45.6641L19.2461 55.2375Z" fill="#E27625" stroke="#E27625" stroke-width="0.0795845" stroke-linecap="round" stroke-linejoin="round"/>
<path d="M36.54 51.2608L44.7143 55.2375L43.6096 45.6641L36.54 51.2608Z" fill="#E27625" stroke="#E27625" stroke-width="0.0795845" stroke-linecap="round" stroke-linejoin="round"/>
<path d="M44.7465 55.2794L36.5723 51.3027L37.235 56.6049L37.1614 58.8878L44.7465 55.2794Z" fill="#D5BFB2" stroke="#D5BFB2" stroke-width="0.0795845" stroke-linecap="round" stroke-linejoin="round"/>
<path d="M19.2612 55.2794L26.92 58.8878L26.8463 56.6049L27.5091 51.3027L19.2612 55.2794Z" fill="#D5BFB2" stroke="#D5BFB2" stroke-width="0.0795845" stroke-linecap="round" stroke-linejoin="round"/>
<path d="M27.0601 42.1585L20.2114 40.1702L24.9981 37.9609L27.0601 42.1585Z" fill="#233447" stroke="#233447" stroke-width="0.0795845" stroke-linecap="round" stroke-linejoin="round"/>
<path d="M37.0122 42.1585L39.0005 37.9609L43.8609 40.1702L37.0122 42.1585Z" fill="#233447" stroke="#233447" stroke-width="0.0795845" stroke-linecap="round" stroke-linejoin="round"/>
<path d="M19.2525 55.2508L20.4308 45.3828L12.8457 45.6037L19.2525 55.2508Z" fill="#CC6228" stroke="#CC6228" stroke-width="0.0795845" stroke-linecap="round" stroke-linejoin="round"/>
<path d="M43.6226 45.3828L44.7272 55.2508L51.2077 45.6037L43.6226 45.3828Z" fill="#CC6228" stroke="#CC6228" stroke-width="0.0795845" stroke-linecap="round" stroke-linejoin="round"/>
<path d="M49.3752 34.5566L35.7515 35.1458L37.0034 42.1417L38.9917 37.9442L43.8521 40.1534L49.3752 34.5566Z" fill="#CC6228" stroke="#CC6228" stroke-width="0.0795845" stroke-linecap="round" stroke-linejoin="round"/>
<path d="M20.2136 40.1534L25.0003 37.9442L27.0622 42.1417L28.3141 35.1458L14.6904 34.5566L20.2136 40.1534Z" fill="#CC6228" stroke="#CC6228" stroke-width="0.0795845" stroke-linecap="round" stroke-linejoin="round"/>
<path d="M14.6924 34.5566L20.3628 45.6765L20.2155 40.1534L14.6924 34.5566Z" fill="#E27525" stroke="#E27525" stroke-width="0.0795845" stroke-linecap="round" stroke-linejoin="round"/>
<path d="M43.8542 40.1534L43.6333 45.6765L49.3774 34.5566L43.8542 40.1534Z" fill="#E27525" stroke="#E27525" stroke-width="0.0795845" stroke-linecap="round" stroke-linejoin="round"/>
<path d="M28.3193 35.127L27.0674 42.1229L28.6139 50.4444L28.9821 39.4718L28.3193 35.127Z" fill="#E27525" stroke="#E27525" stroke-width="0.0795845" stroke-linecap="round" stroke-linejoin="round"/>
<path d="M35.758 35.127L35.0952 39.4718L35.3898 50.4444L37.0099 42.1229L35.758 35.127Z" fill="#E27525" stroke="#E27525" stroke-width="0.0795845" stroke-linecap="round" stroke-linejoin="round"/>
<path d="M37.0034 42.168L35.3833 50.4895L36.5616 51.2996L43.6312 45.7028L43.8521 40.1797L37.0034 42.168Z" fill="#F5841F" stroke="#F5841F" stroke-width="0.0795845" stroke-linecap="round" stroke-linejoin="round"/>
<path d="M20.2114 40.1797L20.3587 45.7028L27.502 51.2996L28.6066 50.4895L27.0601 42.168L20.2114 40.1797Z" fill="#F5841F" stroke="#F5841F" stroke-width="0.0795845" stroke-linecap="round" stroke-linejoin="round"/>
<path d="M37.1454 58.8721L37.2191 56.5892L36.5563 56.0737H27.4247L26.8356 56.5892L26.9092 58.8721L19.2505 55.2637L21.9016 57.4729L27.3511 61.2286H36.6299L42.0794 57.4729L44.7305 55.2637L37.1454 58.8721Z" fill="#C0AC9D" stroke="#C0AC9D" stroke-width="0.0795845" stroke-linecap="round" stroke-linejoin="round"/>
<path d="M36.5659 51.312L35.3877 50.502H28.6126L27.508 51.312L26.8452 56.6142L27.4343 56.0987H36.5659L37.2287 56.6142L36.5659 51.312Z" fill="#161616" stroke="#161616" stroke-width="0.0795845" stroke-linecap="round" stroke-linejoin="round"/>
<path d="M60.9325 22.9144L62.9945 12.9728L59.9016 3.76758L36.5571 21.147L45.5414 28.7321L58.2078 32.4142L61.0062 29.174L59.8279 28.2903L61.7426 26.5229L60.2698 25.3446L62.1844 23.8718L60.9325 22.9144Z" fill="#763E1A" stroke="#763E1A" stroke-width="0.0795845" stroke-linecap="round" stroke-linejoin="round"/>
<path d="M1.06885 12.9728L3.13081 22.9144L1.80526 23.8718L3.71995 25.3446L2.24711 26.5229L4.23544 28.2903L2.98353 29.174L5.78192 32.4142L18.5219 28.7321L27.5062 21.147L4.08816 3.76758L1.06885 12.9728Z" fill="#763E1A" stroke="#763E1A" stroke-width="0.0795845" stroke-linecap="round" stroke-linejoin="round"/>
<path d="M58.2178 32.4477L45.5514 28.7656L49.3808 34.5833L43.6367 45.7032L51.2218 45.6296H62.489L58.2178 32.4477Z" fill="#F5841F" stroke="#F5841F" stroke-width="0.0795845" stroke-linecap="round" stroke-linejoin="round"/>
<path d="M18.5221 28.7656L5.78205 32.4477L1.58447 45.6296H12.8517L20.3631 45.7032L14.6927 34.5833L18.5221 28.7656Z" fill="#F5841F" stroke="#F5841F" stroke-width="0.0795845" stroke-linecap="round" stroke-linejoin="round"/>
<path d="M35.7439 35.14L36.554 21.1481L40.2361 11.1328H23.814L27.496 21.1481L28.3061 35.14L28.6007 39.5585V50.4575H35.3757V39.5585L35.7439 35.14Z" fill="#F5841F" stroke="#F5841F" stroke-width="0.0795845" stroke-linecap="round" stroke-linejoin="round"/>
</svg>
