<svg width="20" height="21" viewBox="0 0 20 21" fill="none" xmlns="http://www.w3.org/2000/svg">
<g id="Frame">
<path id="Vector" d="M18.7192 1.68359L11.1709 7.29878L12.5747 3.9849L18.7192 1.68359Z" fill="#E17726" stroke="#E17726" stroke-width="0.0795845" stroke-linecap="round" stroke-linejoin="round"/>
<g id="Group">
<path id="Vector_2" d="M1.27051 1.67773L8.77276 7.33894L7.438 3.97904L1.27051 1.67773Z" fill="#E27625" stroke="#E27625" stroke-width="0.0795845" stroke-linecap="round" stroke-linejoin="round"/>
<path id="Vector_3" d="M15.9988 14.6777L13.9736 17.7615L18.3001 18.9582L19.5198 14.7468L15.9988 14.6777Z" fill="#E27625" stroke="#E27625" stroke-width="0.0795845" stroke-linecap="round" stroke-linejoin="round"/>
<path id="Vector_4" d="M0.488281 14.7468L1.70797 18.9582L6.01141 17.7615L4.00928 14.6777L0.488281 14.7468Z" fill="#E27625" stroke="#E27625" stroke-width="0.0795845" stroke-linecap="round" stroke-linejoin="round"/>
<path id="Vector_5" d="M5.78261 9.47938L4.58594 11.2974L8.84335 11.4815L8.70527 6.87891L5.78261 9.47938Z" fill="#E27625" stroke="#E27625" stroke-width="0.0795845" stroke-linecap="round" stroke-linejoin="round"/>
<path id="Vector_6" d="M14.2277 9.47658L11.259 6.83008L11.167 11.4787L15.4244 11.2946L14.2277 9.47658Z" fill="#E27625" stroke="#E27625" stroke-width="0.0795845" stroke-linecap="round" stroke-linejoin="round"/>
<path id="Vector_7" d="M6.01465 17.7612L8.59211 16.5185L6.35984 14.7695L6.01465 17.7612Z" fill="#E27625" stroke="#E27625" stroke-width="0.0795845" stroke-linecap="round" stroke-linejoin="round"/>
<path id="Vector_8" d="M11.4189 16.5185L13.9734 17.7612L13.6282 14.7695L11.4189 16.5185Z" fill="#E27625" stroke="#E27625" stroke-width="0.0795845" stroke-linecap="round" stroke-linejoin="round"/>
</g>
<g id="Group_2">
<path id="Vector_9" d="M13.9841 17.774L11.4297 16.5312L11.6368 18.1882L11.6138 18.9016L13.9841 17.774Z" fill="#D5BFB2" stroke="#D5BFB2" stroke-width="0.0795845" stroke-linecap="round" stroke-linejoin="round"/>
<path id="Vector_10" d="M6.01953 17.774L8.41289 18.9016L8.38987 18.1882L8.59699 16.5312L6.01953 17.774Z" fill="#D5BFB2" stroke="#D5BFB2" stroke-width="0.0795845" stroke-linecap="round" stroke-linejoin="round"/>
</g>
<path id="Vector_11" d="M8.45662 13.675L6.31641 13.0537L7.81225 12.3633L8.45662 13.675Z" fill="#233447" stroke="#233447" stroke-width="0.0795845" stroke-linecap="round" stroke-linejoin="round"/>
<path id="Vector_12" d="M11.5664 13.675L12.1878 12.3633L13.7066 13.0537L11.5664 13.675Z" fill="#233447" stroke="#233447" stroke-width="0.0795845" stroke-linecap="round" stroke-linejoin="round"/>
<g id="Group_3">
<path id="Vector_13" d="M6.01678 17.7654L6.38499 14.6816L4.01465 14.7507L6.01678 17.7654Z" fill="#CC6228" stroke="#CC6228" stroke-width="0.0795845" stroke-linecap="round" stroke-linejoin="round"/>
<path id="Vector_14" d="M13.6328 14.6816L13.978 17.7654L16.0032 14.7507L13.6328 14.6816Z" fill="#CC6228" stroke="#CC6228" stroke-width="0.0795845" stroke-linecap="round" stroke-linejoin="round"/>
<path id="Vector_15" d="M15.4303 11.2988L11.1729 11.4829L11.5641 13.6692L12.1854 12.3574L13.7043 13.0478L15.4303 11.2988Z" fill="#CC6228" stroke="#CC6228" stroke-width="0.0795845" stroke-linecap="round" stroke-linejoin="round"/>
<path id="Vector_16" d="M6.3168 13.0478L7.81264 12.3574L8.45701 13.6692L8.84823 11.4829L4.59082 11.2988L6.3168 13.0478Z" fill="#CC6228" stroke="#CC6228" stroke-width="0.0795845" stroke-linecap="round" stroke-linejoin="round"/>
</g>
<g id="Group_4">
<path id="Vector_17" d="M4.5918 11.2988L6.3638 14.7738L6.31777 13.0478L4.5918 11.2988Z" fill="#E27525" stroke="#E27525" stroke-width="0.0795845" stroke-linecap="round" stroke-linejoin="round"/>
<path id="Vector_18" d="M13.7048 13.0478L13.6357 14.7738L15.4308 11.2988L13.7048 13.0478Z" fill="#E27525" stroke="#E27525" stroke-width="0.0795845" stroke-linecap="round" stroke-linejoin="round"/>
<path id="Vector_19" d="M8.85021 11.4766L8.45898 13.6628L8.94226 16.2633L9.05732 12.8343L8.85021 11.4766Z" fill="#E27525" stroke="#E27525" stroke-width="0.0795845" stroke-linecap="round" stroke-linejoin="round"/>
<path id="Vector_20" d="M11.1749 11.4766L10.9678 12.8343L11.0598 16.2633L11.5661 13.6628L11.1749 11.4766Z" fill="#E27525" stroke="#E27525" stroke-width="0.0795845" stroke-linecap="round" stroke-linejoin="round"/>
</g>
<path id="Vector_21" d="M11.5639 13.678L11.0576 16.2785L11.4258 16.5316L13.6351 14.7826L13.7041 13.0566L11.5639 13.678Z" fill="#F5841F" stroke="#F5841F" stroke-width="0.0795845" stroke-linecap="round" stroke-linejoin="round"/>
<path id="Vector_22" d="M6.31641 13.0566L6.36243 14.7826L8.5947 16.5316L8.93989 16.2785L8.45662 13.678L6.31641 13.0566Z" fill="#F5841F" stroke="#F5841F" stroke-width="0.0795845" stroke-linecap="round" stroke-linejoin="round"/>
<path id="Vector_23" d="M11.6078 18.8972L11.6308 18.1838L11.4237 18.0227H8.57007L8.38597 18.1838L8.40898 18.8972L6.01562 17.7695L6.84409 18.4599L8.54706 19.6336H11.4467L13.1497 18.4599L13.9781 17.7695L11.6078 18.8972Z" fill="#C0AC9D" stroke="#C0AC9D" stroke-width="0.0795845" stroke-linecap="round" stroke-linejoin="round"/>
<path id="Vector_24" d="M11.4264 16.5344L11.0582 16.2812H8.94099L8.59579 16.5344L8.38867 18.1913L8.57278 18.0302H11.4264L11.6335 18.1913L11.4264 16.5344Z" fill="#161616" stroke="#161616" stroke-width="0.0795845" stroke-linecap="round" stroke-linejoin="round"/>
<g id="Group_5">
<path id="Vector_25" d="M19.0411 7.66112L19.6855 4.55436L18.719 1.67773L11.4238 7.10881L14.2314 9.47916L18.1897 10.6298L19.0642 9.61723L18.6959 9.34108L19.2943 8.78876L18.834 8.42055L19.4324 7.96029L19.0411 7.66112Z" fill="#763E1A" stroke="#763E1A" stroke-width="0.0795845" stroke-linecap="round" stroke-linejoin="round"/>
<path id="Vector_26" d="M0.333984 4.55436L0.978348 7.66112L0.564115 7.96029L1.16245 8.42055L0.702193 8.78876L1.32354 9.34108L0.932323 9.61723L1.80682 10.6298L5.78807 9.47916L8.59566 7.10881L1.27752 1.67773L0.333984 4.55436Z" fill="#763E1A" stroke="#763E1A" stroke-width="0.0795845" stroke-linecap="round" stroke-linejoin="round"/>
</g>
<path id="Vector_27" d="M18.1933 10.6389L14.2351 9.48828L15.4317 11.3063L13.6367 14.7813L16.0071 14.7583H19.5281L18.1933 10.6389Z" fill="#F5841F" stroke="#F5841F" stroke-width="0.0795845" stroke-linecap="round" stroke-linejoin="round"/>
<path id="Vector_28" d="M5.78812 9.48828L1.80686 10.6389L0.495117 14.7583H4.01611L6.36344 14.7813L4.59144 11.3063L5.78812 9.48828Z" fill="#F5841F" stroke="#F5841F" stroke-width="0.0795845" stroke-linecap="round" stroke-linejoin="round"/>
<path id="Vector_29" d="M11.1705 11.4808L11.4236 7.10829L12.5743 3.97852H7.44238L8.59303 7.10829L8.84618 11.4808L8.93823 12.8615V16.2675H11.0554V12.8615L11.1705 11.4808Z" fill="#F5841F" stroke="#F5841F" stroke-width="0.0795845" stroke-linecap="round" stroke-linejoin="round"/>
</g>
</svg>
