<svg width="24" height="24" viewBox="0 0 24 24" fill="none" xmlns="http://www.w3.org/2000/svg">
<g id="OneDrive-Logo.wine 1">
<path id="Vector" d="M14.0821 14.2403L18.2102 10.2926C17.3527 6.94905 13.9471 4.9337 10.6036 5.79117C9.09788 6.17733 7.79012 7.11071 6.93555 8.40914C6.99942 8.40753 14.0821 14.2403 14.0821 14.2403Z" fill="#0364B8"/>
<path id="Vector_2" d="M9.62702 9.15304L9.62683 9.15371C8.83804 8.66517 7.92836 8.40695 7.00054 8.40821C6.9791 8.40821 6.95804 8.40957 6.93666 8.40982C4.17677 8.44401 1.9672 10.709 2.00137 13.4688C2.01376 14.47 2.32656 15.4443 2.89923 16.2655L9.08369 15.4909L13.8252 11.6677L9.62702 9.15304Z" fill="#0078D4"/>
<path id="Vector_3" d="M18.2113 10.2935C18.1205 10.2874 18.0293 10.2832 17.9371 10.2832C17.3833 10.2827 16.8352 10.3958 16.3269 10.6155L16.3268 10.6151L13.8252 11.6678L16.583 15.0745L21.5134 16.2729C22.5773 14.2977 21.8386 11.834 19.8634 10.7701C19.353 10.4951 18.7897 10.3326 18.2113 10.2935L18.2113 10.2935Z" fill="#1490DF"/>
<path id="Vector_4" d="M2.89844 16.2638C3.83226 17.6064 5.36436 18.4066 6.99975 18.4057H17.9363C19.4302 18.4061 20.8038 17.5863 21.5126 16.2712L13.8244 11.666L2.89844 16.2638Z" fill="#28A8EA"/>
</g>
</svg>
