<svg width="24" height="24" viewBox="0 0 24 24" fill="none" xmlns="http://www.w3.org/2000/svg">
<g id="opened-folder_1 1">
<g id="Group">
<path id="Vector" d="M17.6454 6.751H10.6487L8.89766 5H4.52737C3.56179 5.0036 2.77637 5.78903 2.77637 6.751V17.2462C2.77637 18.2081 3.56179 18.9972 4.52737 18.9972H18.085C18.8272 18.9972 19.3964 18.4279 19.3964 17.6857V8.502C19.3964 7.54003 18.6074 6.751 17.6454 6.751Z" fill="#FFA000"/>
<path id="Vector_2" d="M19.4829 9.37695H7.71949C6.88723 9.37695 6.14504 9.98944 6.01533 10.8217L4.52734 19.0002H18.3912C19.2235 19.0002 19.9657 18.3877 20.0954 17.5555L21.187 11.4306C21.4068 10.3822 20.5746 9.37695 19.4829 9.37695Z" fill="#FFCA28"/>
</g>
</g>
</svg>
