<svg width="512" height="512" viewBox="0 0 512 512" fill="none" xmlns="http://www.w3.org/2000/svg">
<g clip-path="url(#clip0_1608_2308)">
<path d="M0 50C0 22.3858 22.3858 0 50 0H462C489.614 0 512 22.3858 512 50V462C512 489.614 489.614 512 462 512H50C22.3858 512 0 489.614 0 462V50Z" fill="url(#paint0_linear_1608_2308)"/>
<path d="M319.675 297.954C319.675 316.174 315.576 333.286 307.936 349.194C289.488 391.001 270.295 412.829 217.746 460C217.746 460 266.941 402.47 252.033 368.988C246.597 356.779 192.963 359.739 187 297.954C187 258.367 216.024 231.915 253.897 231.915C291.769 231.915 319.675 260.358 319.675 297.954Z" fill="#35005D"/>
<path d="M324.147 119.074C324.147 156.671 293.446 187.148 255.574 187.148C217.702 187.148 187 156.671 187 119.074C187 81.4778 217.702 51 255.574 51C293.446 51 324.147 81.4778 324.147 119.074Z" fill="#35005D"/>
</g>
<defs>
<linearGradient id="paint0_linear_1608_2308" x1="1.1959e-05" y1="-37" x2="474" y2="536.5" gradientUnits="userSpaceOnUse">
<stop stop-color="#EEF2FE"/>
<stop offset="0.468257" stop-color="#DEEBFC"/>
<stop offset="1" stop-color="#B0DAF3"/>
</linearGradient>
<clipPath id="clip0_1608_2308">
<rect width="512" height="512" fill="white"/>
</clipPath>
</defs>
</svg>
