<svg width="291" height="188" viewBox="0 0 291 188" fill="none" xmlns="http://www.w3.org/2000/svg">
<ellipse cx="146.5" cy="113" rx="73" ry="11" fill="#212121"/>
<path d="M195.398 102.106L151.792 21.1264C148.701 15.3849 140.467 15.3849 137.374 21.1264L93.7705 102.106C93.0994 103.352 92.7629 104.751 92.794 106.167C92.825 107.582 93.2224 108.965 93.9475 110.181C94.6725 111.397 95.7005 112.404 96.9309 113.104C98.1613 113.804 99.5522 114.173 100.968 114.175H188.188C189.604 114.175 190.997 113.808 192.229 113.108C193.461 112.409 194.491 111.403 195.218 110.186C195.944 108.97 196.343 107.586 196.374 106.17C196.406 104.754 196.069 103.353 195.398 102.106Z" fill="white"/>
<path d="M195.398 102.106L151.792 21.1264C148.701 15.3849 140.467 15.3849 137.374 21.1264L93.7705 102.106C93.0994 103.352 92.7629 104.751 92.794 106.167C92.825 107.582 93.2224 108.965 93.9475 110.181C94.6725 111.397 95.7005 112.404 96.9309 113.104C98.1613 113.804 99.5522 114.173 100.968 114.175H188.188C189.604 114.175 190.997 113.808 192.229 113.108C193.461 112.409 194.491 111.403 195.218 110.186C195.944 108.97 196.343 107.586 196.374 106.17C196.406 104.754 196.069 103.353 195.398 102.106ZM144.584 101.638C143.572 101.638 142.583 101.338 141.741 100.775C140.9 100.213 140.244 99.4138 139.856 98.4788C139.469 97.5437 139.368 96.5148 139.565 95.5222C139.763 94.5296 140.25 93.6178 140.966 92.9021C141.681 92.1865 142.593 91.6991 143.586 91.5016C144.578 91.3042 145.607 91.4055 146.542 91.7928C147.477 92.1801 148.277 92.836 148.839 93.6775C149.401 94.5191 149.701 95.5084 149.701 96.5205C149.701 97.1925 149.569 97.8579 149.312 98.4788C149.055 99.0996 148.678 99.6637 148.203 100.139C147.727 100.614 147.163 100.991 146.542 101.248C145.922 101.505 145.256 101.638 144.584 101.638ZM150.141 50.1716L148.673 81.3864C148.673 82.4722 148.241 83.5134 147.474 84.2811C146.706 85.0489 145.665 85.4802 144.579 85.4802C143.493 85.4802 142.452 85.0489 141.684 84.2811C140.917 83.5134 140.485 82.4722 140.485 81.3864L139.017 50.1844C138.984 49.4388 139.101 48.6942 139.362 47.9949C139.623 47.2957 140.022 46.6561 140.535 46.1144C141.049 45.5726 141.666 45.1398 142.35 44.8416C143.034 44.5434 143.771 44.3861 144.518 44.3789H144.571C145.323 44.3785 146.066 44.5304 146.757 44.8253C147.449 45.1202 148.073 45.5521 148.592 46.0949C149.112 46.6377 149.516 47.2801 149.781 47.9834C150.045 48.6867 150.164 49.4363 150.131 50.1869L150.141 50.1716Z" fill="#E26767"/>
<rect x="184.984" y="89.5234" width="71.0131" height="11.0171" rx="5.50856" transform="rotate(28.7118 184.984 89.5234)" fill="#3A4252"/>
<rect x="177.257" y="89.9766" width="7.02784" height="2.80164" transform="rotate(28.7118 177.257 89.9766)" fill="#D9D9D9"/>
<circle cx="144.651" cy="72.7031" r="36.5" fill="white" fill-opacity="0.15" stroke="#FAD44F" stroke-width="4"/>
<path opacity="0.5" d="M117.65 87.2023C123.25 96.8023 131.317 100.869 134.65 101.702C125.651 96.2033 123.151 86.204 122.651 84.2026L122.65 84.202C122.296 82.7861 116.15 84.6308 117.65 87.2023Z" fill="white"/>
<path opacity="0.5" d="M115.327 77.6038C114.651 69.2012 117.606 65.5395 120.124 63.2011C118.651 72.2011 121.651 74.2012 121.154 77.8189C120.651 79.7012 115.254 80.5799 115.327 77.6038Z" fill="white"/>
<path d="M7.78041 175.288C6.50041 175.288 5.37241 175.084 4.39641 174.676C3.42841 174.268 2.66841 173.66 2.11641 172.852C1.57241 172.036 1.30041 171.024 1.30041 169.816C1.30041 169.688 1.30041 169.572 1.30041 169.468C1.30041 169.356 1.30041 169.236 1.30041 169.108H5.03241C5.03241 169.228 5.03241 169.336 5.03241 169.432C5.03241 169.52 5.03241 169.624 5.03241 169.744C5.03241 170.568 5.26441 171.2 5.72841 171.64C6.19241 172.08 6.88041 172.3 7.79241 172.3C8.71241 172.3 9.42041 172.156 9.91641 171.868C10.4124 171.572 10.6604 171.088 10.6604 170.416C10.6604 169.944 10.4724 169.528 10.0964 169.168C9.72841 168.808 9.22441 168.488 8.58441 168.208C7.95241 167.92 7.22841 167.652 6.41241 167.404C5.52441 167.124 4.70041 166.756 3.94041 166.3C3.18041 165.844 2.56841 165.264 2.10441 164.56C1.64841 163.856 1.42041 162.988 1.42041 161.956C1.42041 160.916 1.69641 160.032 2.24841 159.304C2.80041 158.568 3.55241 158.008 4.50441 157.624C5.45641 157.232 6.53241 157.036 7.73241 157.036C8.98841 157.036 10.0964 157.232 11.0564 157.624C12.0244 158.008 12.7804 158.588 13.3244 159.364C13.8764 160.132 14.1524 161.092 14.1524 162.244C14.1524 162.372 14.1524 162.492 14.1524 162.604C14.1524 162.708 14.1524 162.828 14.1524 162.964H10.4324C10.4324 162.876 10.4324 162.784 10.4324 162.688C10.4324 162.592 10.4324 162.5 10.4324 162.412C10.4324 161.636 10.2164 161.04 9.78441 160.624C9.36041 160.208 8.69241 160 7.78041 160C6.90041 160 6.21641 160.16 5.72841 160.48C5.24841 160.8 5.00841 161.292 5.00841 161.956C5.00841 162.436 5.18041 162.844 5.52441 163.18C5.87641 163.516 6.35641 163.816 6.96441 164.08C7.57241 164.344 8.26441 164.608 9.04041 164.872C10.0964 165.24 11.0164 165.648 11.8004 166.096C12.5924 166.536 13.2044 167.092 13.6364 167.764C14.0684 168.428 14.2844 169.276 14.2844 170.308C14.2844 171.364 14.0124 172.264 13.4684 173.008C12.9244 173.752 12.1604 174.32 11.1764 174.712C10.2004 175.096 9.06841 175.288 7.78041 175.288ZM23.1055 175.276C21.7295 175.276 20.5175 174.992 19.4695 174.424C18.4215 173.856 17.6015 173.076 17.0095 172.084C16.4255 171.084 16.1335 169.932 16.1335 168.628C16.1335 167.332 16.4255 166.188 17.0095 165.196C17.6015 164.196 18.4215 163.42 19.4695 162.868C20.5175 162.308 21.7295 162.028 23.1055 162.028C24.4815 162.028 25.6935 162.308 26.7415 162.868C27.7895 163.42 28.6055 164.196 29.1895 165.196C29.7815 166.188 30.0775 167.332 30.0775 168.628C30.0775 169.932 29.7815 171.084 29.1895 172.084C28.6055 173.076 27.7895 173.856 26.7415 174.424C25.6935 174.992 24.4815 175.276 23.1055 175.276ZM23.1055 172.324C23.7535 172.324 24.3175 172.172 24.7975 171.868C25.2775 171.564 25.6495 171.136 25.9135 170.584C26.1775 170.024 26.3095 169.372 26.3095 168.628C26.3095 167.884 26.1775 167.24 25.9135 166.696C25.6495 166.144 25.2775 165.72 24.7975 165.424C24.3175 165.128 23.7535 164.98 23.1055 164.98C22.4655 164.98 21.9015 165.128 21.4135 165.424C20.9335 165.72 20.5615 166.144 20.2975 166.696C20.0335 167.24 19.9015 167.884 19.9015 168.628C19.9015 169.372 20.0335 170.024 20.2975 170.584C20.5615 171.136 20.9335 171.564 21.4135 171.868C21.9015 172.172 22.4655 172.324 23.1055 172.324ZM40.3572 175V170.068C40.3572 169.596 40.3572 169.188 40.3572 168.844C40.3572 168.492 40.3572 168.2 40.3572 167.968C40.3572 167.64 40.3372 167.316 40.2972 166.996C40.2652 166.676 40.1852 166.38 40.0572 166.108C39.9372 165.828 39.7492 165.608 39.4932 165.448C39.2372 165.28 38.8892 165.196 38.4492 165.196C38.0412 165.196 37.6892 165.284 37.3932 165.46C37.0972 165.628 36.8532 165.864 36.6612 166.168C36.4772 166.464 36.3412 166.808 36.2532 167.2C36.1652 167.584 36.1212 167.988 36.1212 168.412L35.1012 167.572C35.1012 166.492 35.2972 165.536 35.6892 164.704C36.0812 163.864 36.6372 163.208 37.3572 162.736C38.0852 162.256 38.9452 162.016 39.9372 162.016C41.0012 162.016 41.8292 162.244 42.4212 162.7C43.0212 163.148 43.4412 163.748 43.6812 164.5C43.9292 165.244 44.0532 166.068 44.0532 166.972C44.0532 167.316 44.0532 167.78 44.0532 168.364C44.0532 168.948 44.0532 169.648 44.0532 170.464V175H40.3572ZM32.4012 175V162.256H36.1212V175H32.4012ZM48.2772 175V170.08C48.2772 169.592 48.2772 169.172 48.2772 168.82C48.2772 168.468 48.2772 168.176 48.2772 167.944C48.2772 167.592 48.2572 167.256 48.2172 166.936C48.1772 166.608 48.0932 166.312 47.9652 166.048C47.8372 165.784 47.6452 165.576 47.3892 165.424C47.1332 165.272 46.7852 165.196 46.3452 165.196C45.9372 165.196 45.5852 165.284 45.2892 165.46C45.0012 165.628 44.7652 165.86 44.5812 166.156C44.3972 166.452 44.2612 166.788 44.1732 167.164C44.0932 167.54 44.0532 167.932 44.0532 168.34L43.0332 167.512C43.0332 166.448 43.2252 165.504 43.6092 164.68C44.0012 163.856 44.5532 163.208 45.2652 162.736C45.9852 162.256 46.8452 162.016 47.8452 162.016C48.8852 162.016 49.7052 162.236 50.3052 162.676C50.9132 163.116 51.3452 163.704 51.6012 164.44C51.8652 165.168 51.9972 165.984 51.9972 166.888C51.9972 167.248 51.9972 167.712 51.9972 168.28C51.9972 168.848 51.9972 169.54 51.9972 170.356V175H48.2772ZM56.212 169.744V167.284H64.66L64.3 167.908C64.3 167.844 64.3 167.784 64.3 167.728C64.3 167.664 64.3 167.604 64.3 167.548C64.3 167.092 64.192 166.656 63.976 166.24C63.76 165.816 63.424 165.472 62.968 165.208C62.52 164.936 61.944 164.8 61.24 164.8C60.536 164.8 59.928 164.952 59.416 165.256C58.912 165.552 58.524 165.98 58.252 166.54C57.988 167.1 57.856 167.776 57.856 168.568C57.856 169.384 57.984 170.084 58.24 170.668C58.504 171.244 58.892 171.688 59.404 172C59.924 172.312 60.568 172.468 61.336 172.468C61.832 172.468 62.26 172.424 62.62 172.336C62.98 172.24 63.272 172.12 63.496 171.976C63.728 171.832 63.904 171.672 64.024 171.496C64.144 171.32 64.216 171.148 64.24 170.98H67.912C67.864 171.516 67.68 172.044 67.36 172.564C67.04 173.076 66.596 173.54 66.028 173.956C65.46 174.364 64.768 174.688 63.952 174.928C63.144 175.168 62.22 175.288 61.18 175.288C59.772 175.288 58.544 175.008 57.496 174.448C56.448 173.88 55.636 173.1 55.06 172.108C54.484 171.108 54.196 169.956 54.196 168.652C54.196 167.332 54.488 166.176 55.072 165.184C55.664 164.184 56.484 163.408 57.532 162.856C58.588 162.296 59.808 162.016 61.192 162.016C62.608 162.016 63.832 162.3 64.864 162.868C65.896 163.428 66.692 164.216 67.252 165.232C67.812 166.24 68.092 167.416 68.092 168.76C68.092 168.96 68.088 169.152 68.08 169.336C68.072 169.52 68.06 169.656 68.044 169.744H56.212ZM76.5871 175.264C76.0991 175.264 75.5951 175.22 75.0751 175.132C74.5631 175.052 74.0831 174.888 73.6351 174.64C73.1951 174.384 72.8391 174.012 72.5671 173.524C72.2951 173.036 72.1591 172.392 72.1591 171.592C72.1591 171.416 72.1591 171.236 72.1591 171.052C72.1591 170.868 72.1591 170.684 72.1591 170.5V165.136H69.2191V162.256H70.0471C70.5271 162.256 70.9071 162.236 71.1871 162.196C71.4751 162.156 71.6871 162.056 71.8231 161.896C71.9671 161.728 72.0591 161.468 72.0991 161.116C72.1391 160.764 72.1591 160.28 72.1591 159.664V158.056H75.8911V162.256H79.5991V165.136H75.8911V169.72C75.8911 169.864 75.8911 170.004 75.8911 170.14C75.8911 170.276 75.8911 170.408 75.8911 170.536C75.8911 171.088 75.9551 171.536 76.0831 171.88C76.2191 172.224 76.5511 172.396 77.0791 172.396C77.3431 172.396 77.5911 172.372 77.8231 172.324C78.0631 172.276 78.2431 172.228 78.3631 172.18V174.976C78.1951 175.048 77.9591 175.112 77.6551 175.168C77.3511 175.232 76.9951 175.264 76.5871 175.264ZM90.8303 175V170.464C90.8303 170.304 90.8303 170.084 90.8303 169.804C90.8303 169.524 90.8303 169.24 90.8303 168.952C90.8303 168.664 90.8303 168.432 90.8303 168.256C90.8303 167.28 90.6543 166.528 90.3023 166C89.9503 165.464 89.3063 165.196 88.3703 165.196C87.7623 165.196 87.2503 165.32 86.8343 165.568C86.4183 165.808 86.1023 166.148 85.8863 166.588C85.6783 167.028 85.5743 167.544 85.5743 168.136L84.4943 167.392C84.4943 166.328 84.7223 165.396 85.1783 164.596C85.6343 163.788 86.2623 163.156 87.0623 162.7C87.8703 162.244 88.8023 162.016 89.8583 162.016C91.4183 162.016 92.5903 162.476 93.3743 163.396C94.1583 164.308 94.5503 165.58 94.5503 167.212C94.5503 167.628 94.5503 168.128 94.5503 168.712C94.5503 169.296 94.5503 169.972 94.5503 170.74V175H90.8303ZM81.8543 175V156.244H85.5743V175H81.8543ZM97.1791 175V162.256H100.863V175H97.1791ZM99.0151 160.18C98.4391 160.18 97.9351 160.028 97.5031 159.724C97.0791 159.42 96.8671 158.992 96.8671 158.44C96.8671 157.88 97.0791 157.448 97.5031 157.144C97.9351 156.84 98.4391 156.688 99.0151 156.688C99.5991 156.688 100.103 156.84 100.527 157.144C100.959 157.448 101.175 157.88 101.175 158.44C101.175 159 100.959 159.432 100.527 159.736C100.103 160.032 99.5991 160.18 99.0151 160.18ZM112.58 175V169.588C112.58 169.284 112.58 169.008 112.58 168.76C112.58 168.512 112.58 168.288 112.58 168.088C112.58 167.56 112.512 167.08 112.376 166.648C112.24 166.208 111.996 165.856 111.644 165.592C111.292 165.328 110.784 165.196 110.12 165.196C109.544 165.196 109.044 165.328 108.62 165.592C108.204 165.856 107.884 166.224 107.66 166.696C107.436 167.168 107.324 167.712 107.324 168.328L106.292 167.584C106.292 166.48 106.532 165.512 107.012 164.68C107.492 163.848 108.14 163.196 108.956 162.724C109.78 162.252 110.692 162.016 111.692 162.016C112.74 162.016 113.6 162.228 114.272 162.652C114.952 163.068 115.456 163.652 115.784 164.404C116.12 165.148 116.288 166.02 116.288 167.02C116.288 167.428 116.288 167.884 116.288 168.388C116.288 168.892 116.288 169.408 116.288 169.936V175H112.58ZM103.604 175V162.256H107.324V175H103.604ZM127.869 173.488C128.653 173.568 129.337 173.72 129.921 173.944C130.513 174.16 130.973 174.484 131.301 174.916C131.629 175.34 131.793 175.908 131.793 176.62C131.793 177.444 131.521 178.144 130.977 178.72C130.441 179.304 129.653 179.748 128.613 180.052C127.573 180.356 126.313 180.508 124.833 180.508C122.649 180.508 120.957 180.192 119.757 179.56C118.565 178.936 117.969 178.1 117.969 177.052C117.969 176.756 118.001 176.488 118.065 176.248C118.137 176.016 118.225 175.816 118.329 175.648L121.713 176.14C121.673 176.196 121.629 176.28 121.581 176.392C121.541 176.512 121.521 176.66 121.521 176.836C121.521 177.26 121.837 177.576 122.469 177.784C123.109 177.992 123.933 178.096 124.941 178.096C125.653 178.096 126.261 178.044 126.765 177.94C127.277 177.844 127.665 177.7 127.929 177.508C128.201 177.316 128.337 177.096 128.337 176.848C128.337 176.488 128.161 176.252 127.809 176.14C127.465 176.028 127.065 175.948 126.609 175.9L121.785 175.408C120.897 175.32 120.161 175.064 119.577 174.64C118.993 174.216 118.701 173.644 118.701 172.924C118.701 172.476 118.825 172.068 119.073 171.7C119.321 171.324 119.605 171.016 119.925 170.776C120.245 170.528 120.513 170.372 120.729 170.308L122.625 171.268C122.473 171.292 122.293 171.388 122.085 171.556C121.885 171.724 121.785 171.92 121.785 172.144C121.785 172.368 121.897 172.56 122.121 172.72C122.353 172.88 122.773 172.988 123.381 173.044L127.869 173.488ZM129.129 162.256H132.405L131.073 167.152C130.825 168.08 130.457 168.908 129.969 169.636C129.481 170.356 128.829 170.924 128.013 171.34C127.205 171.756 126.185 171.964 124.953 171.964C123.657 171.964 122.533 171.764 121.581 171.364C120.637 170.964 119.909 170.4 119.397 169.672C118.885 168.936 118.629 168.068 118.629 167.068C118.629 166.068 118.889 165.188 119.409 164.428C119.937 163.668 120.653 163.076 121.557 162.652C122.469 162.228 123.501 162.016 124.653 162.016C125.525 162.016 126.321 162.16 127.041 162.448C127.769 162.728 128.353 163.1 128.793 163.564C129.241 164.028 129.473 164.54 129.489 165.1L128.805 165.28L129.129 162.256ZM124.929 169.24C125.457 169.24 125.921 169.156 126.321 168.988C126.721 168.812 127.033 168.56 127.257 168.232C127.481 167.896 127.593 167.492 127.593 167.02C127.593 166.556 127.481 166.16 127.257 165.832C127.033 165.504 126.721 165.252 126.321 165.076C125.921 164.9 125.457 164.812 124.929 164.812C124.425 164.812 123.969 164.904 123.561 165.088C123.161 165.264 122.845 165.52 122.613 165.856C122.381 166.184 122.265 166.584 122.265 167.056C122.265 167.52 122.377 167.916 122.601 168.244C122.825 168.564 123.137 168.812 123.537 168.988C123.937 169.156 124.401 169.24 124.929 169.24ZM150.486 175L147.822 162.256H150.534L153.21 173.944L152.598 173.968L154.266 162.256H158.106L155.562 175H150.486ZM141.63 175L139.086 162.256H142.926L144.594 173.968L143.994 173.944L146.646 162.256H149.358L146.718 175H141.63ZM161.212 169.744V167.284H169.66L169.3 167.908C169.3 167.844 169.3 167.784 169.3 167.728C169.3 167.664 169.3 167.604 169.3 167.548C169.3 167.092 169.192 166.656 168.976 166.24C168.76 165.816 168.424 165.472 167.968 165.208C167.52 164.936 166.944 164.8 166.24 164.8C165.536 164.8 164.928 164.952 164.416 165.256C163.912 165.552 163.524 165.98 163.252 166.54C162.988 167.1 162.856 167.776 162.856 168.568C162.856 169.384 162.984 170.084 163.24 170.668C163.504 171.244 163.892 171.688 164.404 172C164.924 172.312 165.568 172.468 166.336 172.468C166.832 172.468 167.26 172.424 167.62 172.336C167.98 172.24 168.272 172.12 168.496 171.976C168.728 171.832 168.904 171.672 169.024 171.496C169.144 171.32 169.216 171.148 169.24 170.98H172.912C172.864 171.516 172.68 172.044 172.36 172.564C172.04 173.076 171.596 173.54 171.028 173.956C170.46 174.364 169.768 174.688 168.952 174.928C168.144 175.168 167.22 175.288 166.18 175.288C164.772 175.288 163.544 175.008 162.496 174.448C161.448 173.88 160.636 173.1 160.06 172.108C159.484 171.108 159.196 169.956 159.196 168.652C159.196 167.332 159.488 166.176 160.072 165.184C160.664 164.184 161.484 163.408 162.532 162.856C163.588 162.296 164.808 162.016 166.192 162.016C167.608 162.016 168.832 162.3 169.864 162.868C170.896 163.428 171.692 164.216 172.252 165.232C172.812 166.24 173.092 167.416 173.092 168.76C173.092 168.96 173.088 169.152 173.08 169.336C173.072 169.52 173.06 169.656 173.044 169.744H161.212ZM184.393 175V169.588C184.393 169.284 184.393 169.008 184.393 168.76C184.393 168.512 184.393 168.288 184.393 168.088C184.393 167.56 184.325 167.08 184.189 166.648C184.053 166.208 183.809 165.856 183.457 165.592C183.105 165.328 182.597 165.196 181.933 165.196C181.357 165.196 180.857 165.328 180.433 165.592C180.017 165.856 179.697 166.224 179.473 166.696C179.249 167.168 179.137 167.712 179.137 168.328L178.105 167.584C178.105 166.48 178.345 165.512 178.825 164.68C179.305 163.848 179.953 163.196 180.769 162.724C181.593 162.252 182.505 162.016 183.505 162.016C184.553 162.016 185.413 162.228 186.085 162.652C186.765 163.068 187.269 163.652 187.597 164.404C187.933 165.148 188.101 166.02 188.101 167.02C188.101 167.428 188.101 167.884 188.101 168.388C188.101 168.892 188.101 169.408 188.101 169.936V175H184.393ZM175.417 175V162.256H179.137V175H175.417ZM196.868 175.264C196.38 175.264 195.876 175.22 195.356 175.132C194.844 175.052 194.364 174.888 193.916 174.64C193.476 174.384 193.12 174.012 192.848 173.524C192.576 173.036 192.44 172.392 192.44 171.592C192.44 171.416 192.44 171.236 192.44 171.052C192.44 170.868 192.44 170.684 192.44 170.5V165.136H189.5V162.256H190.328C190.808 162.256 191.188 162.236 191.468 162.196C191.756 162.156 191.968 162.056 192.104 161.896C192.248 161.728 192.34 161.468 192.38 161.116C192.42 160.764 192.44 160.28 192.44 159.664V158.056H196.172V162.256H199.88V165.136H196.172V169.72C196.172 169.864 196.172 170.004 196.172 170.14C196.172 170.276 196.172 170.408 196.172 170.536C196.172 171.088 196.236 171.536 196.364 171.88C196.5 172.224 196.832 172.396 197.36 172.396C197.624 172.396 197.872 172.372 198.104 172.324C198.344 172.276 198.524 172.228 198.644 172.18V174.976C198.476 175.048 198.24 175.112 197.936 175.168C197.632 175.232 197.276 175.264 196.868 175.264ZM218.408 175L215.744 162.256H218.456L221.132 173.944L220.52 173.968L222.188 162.256H226.028L223.484 175H218.408ZM209.552 175L207.008 162.256H210.848L212.516 173.968L211.916 173.944L214.568 162.256H217.28L214.64 175H209.552ZM227.8 175V162.256H231.532V166.648L230.764 166.168C230.852 165.568 231.012 165.016 231.244 164.512C231.476 164.008 231.776 163.572 232.144 163.204C232.512 162.828 232.948 162.536 233.452 162.328C233.964 162.12 234.548 162.016 235.204 162.016C235.716 162.016 236.116 162.056 236.404 162.136C236.7 162.208 236.884 162.264 236.956 162.304L236.344 165.64C236.272 165.6 236.112 165.536 235.864 165.448C235.616 165.36 235.296 165.316 234.904 165.316C234.264 165.316 233.728 165.424 233.296 165.64C232.864 165.856 232.516 166.144 232.252 166.504C231.996 166.856 231.812 167.248 231.7 167.68C231.588 168.112 231.532 168.548 231.532 168.988V175H227.8ZM244.988 175.276C243.612 175.276 242.4 174.992 241.352 174.424C240.304 173.856 239.484 173.076 238.892 172.084C238.308 171.084 238.016 169.932 238.016 168.628C238.016 167.332 238.308 166.188 238.892 165.196C239.484 164.196 240.304 163.42 241.352 162.868C242.4 162.308 243.612 162.028 244.988 162.028C246.364 162.028 247.576 162.308 248.624 162.868C249.672 163.42 250.488 164.196 251.072 165.196C251.664 166.188 251.96 167.332 251.96 168.628C251.96 169.932 251.664 171.084 251.072 172.084C250.488 173.076 249.672 173.856 248.624 174.424C247.576 174.992 246.364 175.276 244.988 175.276ZM244.988 172.324C245.636 172.324 246.2 172.172 246.68 171.868C247.16 171.564 247.532 171.136 247.796 170.584C248.06 170.024 248.192 169.372 248.192 168.628C248.192 167.884 248.06 167.24 247.796 166.696C247.532 166.144 247.16 165.72 246.68 165.424C246.2 165.128 245.636 164.98 244.988 164.98C244.348 164.98 243.784 165.128 243.296 165.424C242.816 165.72 242.444 166.144 242.18 166.696C241.916 167.24 241.784 167.884 241.784 168.628C241.784 169.372 241.916 170.024 242.18 170.584C242.444 171.136 242.816 171.564 243.296 171.868C243.784 172.172 244.348 172.324 244.988 172.324ZM263.26 175V169.588C263.26 169.284 263.26 169.008 263.26 168.76C263.26 168.512 263.26 168.288 263.26 168.088C263.26 167.56 263.192 167.08 263.056 166.648C262.92 166.208 262.676 165.856 262.324 165.592C261.972 165.328 261.464 165.196 260.8 165.196C260.224 165.196 259.724 165.328 259.3 165.592C258.884 165.856 258.564 166.224 258.34 166.696C258.116 167.168 258.004 167.712 258.004 168.328L256.972 167.584C256.972 166.48 257.212 165.512 257.692 164.68C258.172 163.848 258.82 163.196 259.636 162.724C260.46 162.252 261.372 162.016 262.372 162.016C263.42 162.016 264.28 162.228 264.952 162.652C265.632 163.068 266.136 163.652 266.464 164.404C266.8 165.148 266.968 166.02 266.968 167.02C266.968 167.428 266.968 167.884 266.968 168.388C266.968 168.892 266.968 169.408 266.968 169.936V175H263.26ZM254.284 175V162.256H258.004V175H254.284ZM278.549 173.488C279.333 173.568 280.017 173.72 280.601 173.944C281.193 174.16 281.653 174.484 281.981 174.916C282.309 175.34 282.473 175.908 282.473 176.62C282.473 177.444 282.201 178.144 281.657 178.72C281.121 179.304 280.333 179.748 279.293 180.052C278.253 180.356 276.993 180.508 275.513 180.508C273.329 180.508 271.637 180.192 270.437 179.56C269.245 178.936 268.649 178.1 268.649 177.052C268.649 176.756 268.681 176.488 268.745 176.248C268.817 176.016 268.905 175.816 269.009 175.648L272.393 176.14C272.353 176.196 272.309 176.28 272.261 176.392C272.221 176.512 272.201 176.66 272.201 176.836C272.201 177.26 272.517 177.576 273.149 177.784C273.789 177.992 274.613 178.096 275.621 178.096C276.333 178.096 276.941 178.044 277.445 177.94C277.957 177.844 278.345 177.7 278.609 177.508C278.881 177.316 279.017 177.096 279.017 176.848C279.017 176.488 278.841 176.252 278.489 176.14C278.145 176.028 277.745 175.948 277.289 175.9L272.465 175.408C271.577 175.32 270.841 175.064 270.257 174.64C269.673 174.216 269.381 173.644 269.381 172.924C269.381 172.476 269.505 172.068 269.753 171.7C270.001 171.324 270.285 171.016 270.605 170.776C270.925 170.528 271.193 170.372 271.409 170.308L273.305 171.268C273.153 171.292 272.973 171.388 272.765 171.556C272.565 171.724 272.465 171.92 272.465 172.144C272.465 172.368 272.577 172.56 272.801 172.72C273.033 172.88 273.453 172.988 274.061 173.044L278.549 173.488ZM279.809 162.256H283.085L281.753 167.152C281.505 168.08 281.137 168.908 280.649 169.636C280.161 170.356 279.509 170.924 278.693 171.34C277.885 171.756 276.865 171.964 275.633 171.964C274.337 171.964 273.213 171.764 272.261 171.364C271.317 170.964 270.589 170.4 270.077 169.672C269.565 168.936 269.309 168.068 269.309 167.068C269.309 166.068 269.569 165.188 270.089 164.428C270.617 163.668 271.333 163.076 272.237 162.652C273.149 162.228 274.181 162.016 275.333 162.016C276.205 162.016 277.001 162.16 277.721 162.448C278.449 162.728 279.033 163.1 279.473 163.564C279.921 164.028 280.153 164.54 280.169 165.1L279.485 165.28L279.809 162.256ZM275.609 169.24C276.137 169.24 276.601 169.156 277.001 168.988C277.401 168.812 277.713 168.56 277.937 168.232C278.161 167.896 278.273 167.492 278.273 167.02C278.273 166.556 278.161 166.16 277.937 165.832C277.713 165.504 277.401 165.252 277.001 165.076C276.601 164.9 276.137 164.812 275.609 164.812C275.105 164.812 274.649 164.904 274.241 165.088C273.841 165.264 273.525 165.52 273.293 165.856C273.061 166.184 272.945 166.584 272.945 167.056C272.945 167.52 273.057 167.916 273.281 168.244C273.505 168.564 273.817 168.812 274.217 168.988C274.617 169.156 275.081 169.24 275.609 169.24ZM288.541 157.324L287.797 170.044H285.565L284.821 157.324H288.541ZM286.705 175.36C286.153 175.36 285.685 175.168 285.301 174.784C284.917 174.4 284.725 173.932 284.725 173.38C284.725 172.836 284.917 172.372 285.301 171.988C285.685 171.604 286.153 171.412 286.705 171.412C287.249 171.412 287.713 171.604 288.097 171.988C288.481 172.372 288.673 172.836 288.673 173.38C288.673 173.932 288.481 174.4 288.097 174.784C287.713 175.168 287.249 175.36 286.705 175.36Z" fill="#F7F8F8"/>
</svg>
