<svg width="163" height="30" viewBox="0 0 163 30" fill="none" xmlns="http://www.w3.org/2000/svg">
<rect width="163" height="30" rx="4" fill="#4038CA" fill-opacity="0.05"/>
<path d="M20.5377 19.14C19.8237 19.14 19.2124 19.028 18.7037 18.804C18.1997 18.5753 17.8124 18.2323 17.5417 17.775C17.271 17.3177 17.1357 16.7483 17.1357 16.067C17.1357 15.9737 17.1357 15.8943 17.1357 15.829C17.1357 15.7637 17.1357 15.6843 17.1357 15.591H18.3327C18.3327 15.6797 18.3327 15.7543 18.3327 15.815C18.3327 15.8757 18.3327 15.9527 18.3327 16.046C18.3327 16.76 18.5194 17.2757 18.8927 17.593C19.266 17.9057 19.8097 18.062 20.5237 18.062C21.261 18.062 21.8187 17.936 22.1967 17.684C22.5747 17.432 22.7637 17.0237 22.7637 16.459C22.7637 16.0623 22.654 15.7333 22.4347 15.472C22.22 15.206 21.9214 14.982 21.5387 14.8C21.156 14.6133 20.7104 14.443 20.2017 14.289C19.6277 14.1117 19.1144 13.8877 18.6617 13.617C18.2137 13.3463 17.859 13.0127 17.5977 12.616C17.341 12.2147 17.2127 11.727 17.2127 11.153C17.2127 10.593 17.348 10.1193 17.6187 9.732C17.894 9.34467 18.2767 9.05067 18.7667 8.85C19.2567 8.64933 19.826 8.549 20.4747 8.549C21.1607 8.549 21.7557 8.65633 22.2597 8.871C22.7684 9.081 23.1604 9.403 23.4357 9.837C23.7157 10.2663 23.8557 10.8077 23.8557 11.461C23.8557 11.5637 23.8557 11.6523 23.8557 11.727C23.8557 11.797 23.8557 11.8833 23.8557 11.986H22.6587C22.6587 11.8973 22.6587 11.818 22.6587 11.748C22.6587 11.678 22.6587 11.5987 22.6587 11.51C22.6587 10.8287 22.4744 10.3457 22.1057 10.061C21.737 9.77167 21.2004 9.627 20.4957 9.627C19.819 9.627 19.2964 9.746 18.9277 9.984C18.559 10.222 18.3747 10.6117 18.3747 11.153C18.3747 11.559 18.4867 11.895 18.7107 12.161C18.9394 12.4223 19.2497 12.6463 19.6417 12.833C20.0337 13.015 20.4817 13.19 20.9857 13.358C21.597 13.5587 22.122 13.7873 22.5607 14.044C23.004 14.296 23.3424 14.611 23.5757 14.989C23.8137 15.367 23.9327 15.843 23.9327 16.417C23.9327 16.991 23.795 17.481 23.5197 17.887C23.249 18.293 22.8594 18.6033 22.3507 18.818C21.8467 19.0327 21.2424 19.14 20.5377 19.14ZM25.6815 19V8.675H26.8575V19H25.6815ZM28.8864 19V8.675H30.0834V18.629L29.5444 17.95H34.1574V19H28.8864ZM36.4077 9.725L36.9467 9.046V13.708L36.6527 13.295H40.6147V14.345H36.6527L36.9467 13.932V18.629L36.4077 17.95H41.3917V19H35.7497V8.675H41.3917V9.725H36.4077ZM44.5269 19H43.3649V8.675H45.3179L49.6999 18.314L49.6089 18.37V8.675H50.7709V19H48.7899L44.4219 9.375L44.5269 9.326V19ZM58.9038 9.725H55.9218L56.1948 9.046V19H55.0048V9.046L55.3408 9.725H52.3028V8.675H58.9038V9.725ZM67.0631 19.14C66.3491 19.14 65.7378 19.028 65.2291 18.804C64.7251 18.5753 64.3378 18.2323 64.0671 17.775C63.7964 17.3177 63.6611 16.7483 63.6611 16.067C63.6611 15.9737 63.6611 15.8943 63.6611 15.829C63.6611 15.7637 63.6611 15.6843 63.6611 15.591H64.8581C64.8581 15.6797 64.8581 15.7543 64.8581 15.815C64.8581 15.8757 64.8581 15.9527 64.8581 16.046C64.8581 16.76 65.0448 17.2757 65.4181 17.593C65.7914 17.9057 66.3351 18.062 67.0491 18.062C67.7864 18.062 68.3441 17.936 68.7221 17.684C69.1001 17.432 69.2891 17.0237 69.2891 16.459C69.2891 16.0623 69.1794 15.7333 68.9601 15.472C68.7454 15.206 68.4468 14.982 68.0641 14.8C67.6814 14.6133 67.2358 14.443 66.7271 14.289C66.1531 14.1117 65.6398 13.8877 65.1871 13.617C64.7391 13.3463 64.3844 13.0127 64.1231 12.616C63.8664 12.2147 63.7381 11.727 63.7381 11.153C63.7381 10.593 63.8734 10.1193 64.1441 9.732C64.4194 9.34467 64.8021 9.05067 65.2921 8.85C65.7821 8.64933 66.3514 8.549 67.0001 8.549C67.6861 8.549 68.2811 8.65633 68.7851 8.871C69.2938 9.081 69.6858 9.403 69.9611 9.837C70.2411 10.2663 70.3811 10.8077 70.3811 11.461C70.3811 11.5637 70.3811 11.6523 70.3811 11.727C70.3811 11.797 70.3811 11.8833 70.3811 11.986H69.1841C69.1841 11.8973 69.1841 11.818 69.1841 11.748C69.1841 11.678 69.1841 11.5987 69.1841 11.51C69.1841 10.8287 68.9998 10.3457 68.6311 10.061C68.2624 9.77167 67.7258 9.627 67.0211 9.627C66.3444 9.627 65.8218 9.746 65.4531 9.984C65.0844 10.222 64.9001 10.6117 64.9001 11.153C64.9001 11.559 65.0121 11.895 65.2361 12.161C65.4648 12.4223 65.7751 12.6463 66.1671 12.833C66.5591 13.015 67.0071 13.19 67.5111 13.358C68.1224 13.5587 68.6474 13.7873 69.0861 14.044C69.5294 14.296 69.8678 14.611 70.1011 14.989C70.3391 15.367 70.4581 15.843 70.4581 16.417C70.4581 16.991 70.3204 17.481 70.0451 17.887C69.7744 18.293 69.3848 18.6033 68.8761 18.818C68.3721 19.0327 67.7678 19.14 67.0631 19.14ZM79.1649 8.675V19H77.9679V13.778L78.5069 14.373H72.8159L73.3549 13.778V19H72.1579V8.675H73.3549V13.953L72.8159 13.323H78.5069L77.9679 13.953V8.675H79.1649ZM80.5899 19L83.4319 8.647H85.2939L88.1149 19H86.8829L84.3559 9.424H84.3699L81.8219 19H80.5899ZM82.0599 16.263V15.213H86.6659V16.263H82.0599ZM89.5349 19V8.675H93.1189C94.0662 8.675 94.7872 8.899 95.2819 9.347C95.7765 9.795 96.0239 10.4787 96.0239 11.398C96.0239 11.9487 95.9189 12.4177 95.7089 12.805C95.5035 13.1877 95.2539 13.484 94.9599 13.694C94.6705 13.904 94.4022 14.023 94.1549 14.051C94.4069 14.0697 94.6542 14.1397 94.8969 14.261C95.1442 14.3777 95.3495 14.5597 95.5129 14.807C95.6762 15.0543 95.7579 15.3857 95.7579 15.801C95.7579 16.1837 95.7579 16.5757 95.7579 16.977C95.7579 17.3737 95.7579 17.7657 95.7579 18.153C95.7579 18.3537 95.7742 18.5333 95.8069 18.692C95.8395 18.846 95.8769 18.9487 95.9189 19H94.7149C94.6822 18.9393 94.6495 18.8343 94.6169 18.685C94.5842 18.5357 94.5679 18.3583 94.5679 18.153C94.5679 17.7937 94.5679 17.4273 94.5679 17.054C94.5679 16.6807 94.5679 16.312 94.5679 15.948C94.5679 15.4907 94.4232 15.15 94.1339 14.926C93.8445 14.702 93.4362 14.59 92.9089 14.59H90.3679L90.7039 14.135V19H89.5349ZM90.7039 14.037L90.3679 13.54H92.9229C93.2682 13.54 93.5809 13.456 93.8609 13.288C94.1455 13.1153 94.3719 12.8773 94.5399 12.574C94.7125 12.266 94.7989 11.9067 94.7989 11.496C94.7989 10.8567 94.6309 10.4017 94.2949 10.131C93.9589 9.86033 93.4735 9.725 92.8389 9.725H90.3399L90.7039 9.207V14.037ZM97.861 19V8.675H100.451C101.132 8.675 101.746 8.794 102.292 9.032C102.843 9.27 103.312 9.613 103.699 10.061C104.091 10.5043 104.392 11.0457 104.602 11.685C104.812 12.3197 104.917 13.036 104.917 13.834C104.917 14.632 104.812 15.3507 104.602 15.99C104.392 16.6247 104.091 17.166 103.699 17.614C103.312 18.062 102.843 18.405 102.292 18.643C101.746 18.881 101.132 19 100.451 19H97.861ZM99.065 18.629L98.526 17.95H100.311C100.974 17.95 101.559 17.7843 102.068 17.453C102.581 17.117 102.983 16.641 103.272 16.025C103.561 15.409 103.706 14.6787 103.706 13.834C103.706 12.9847 103.561 12.2543 103.272 11.643C102.983 11.027 102.581 10.5533 102.068 10.222C101.559 9.89067 100.974 9.725 100.311 9.725H98.526L99.065 9.046V18.629ZM110.111 19V8.675H112.701C113.382 8.675 113.996 8.794 114.542 9.032C115.093 9.27 115.562 9.613 115.949 10.061C116.341 10.5043 116.642 11.0457 116.852 11.685C117.062 12.3197 117.167 13.036 117.167 13.834C117.167 14.632 117.062 15.3507 116.852 15.99C116.642 16.6247 116.341 17.166 115.949 17.614C115.562 18.062 115.093 18.405 114.542 18.643C113.996 18.881 113.382 19 112.701 19H110.111ZM111.315 18.629L110.776 17.95H112.561C113.224 17.95 113.809 17.7843 114.318 17.453C114.831 17.117 115.233 16.641 115.522 16.025C115.811 15.409 115.956 14.6787 115.956 13.834C115.956 12.9847 115.811 12.2543 115.522 11.643C115.233 11.027 114.831 10.5533 114.318 10.222C113.809 9.89067 113.224 9.725 112.561 9.725H110.776L111.315 9.046V18.629ZM119.519 9.725L120.058 9.046V13.708L119.764 13.295H123.726V14.345H119.764L120.058 13.932V18.629L119.519 17.95H124.503V19H118.861V8.675H124.503V9.725H119.519ZM133.721 8.675H135.779V19H134.645V9.627L134.68 9.641L132.048 19H130.34L127.694 9.634L127.729 9.62V19H126.595V8.675H128.653L131.187 18.041H131.173L133.721 8.675ZM141.729 19.14C141.127 19.14 140.574 19.021 140.07 18.783C139.57 18.545 139.134 18.1997 138.761 17.747C138.392 17.2897 138.105 16.732 137.9 16.074C137.699 15.416 137.599 14.667 137.599 13.827C137.599 12.987 137.699 12.2403 137.9 11.587C138.105 10.929 138.392 10.376 138.761 9.928C139.134 9.47533 139.573 9.13233 140.077 8.899C140.581 8.66567 141.131 8.549 141.729 8.549C142.331 8.549 142.884 8.66567 143.388 8.899C143.892 9.13233 144.328 9.47533 144.697 9.928C145.07 10.376 145.357 10.929 145.558 11.587C145.763 12.2403 145.866 12.987 145.866 13.827C145.866 14.667 145.763 15.416 145.558 16.074C145.357 16.732 145.07 17.2897 144.697 17.747C144.328 18.1997 143.892 18.545 143.388 18.783C142.884 19.021 142.331 19.14 141.729 19.14ZM141.729 18.062C142.303 18.062 142.809 17.9057 143.248 17.593C143.686 17.2803 144.029 16.8113 144.277 16.186C144.524 15.556 144.648 14.7697 144.648 13.827C144.648 12.8797 144.522 12.0957 144.27 11.475C144.022 10.8543 143.679 10.3923 143.241 10.089C142.802 9.78567 142.298 9.634 141.729 9.634C141.164 9.634 140.66 9.78567 140.217 10.089C139.778 10.3923 139.433 10.8543 139.181 11.475C138.933 12.0957 138.81 12.8797 138.81 13.827C138.81 14.7743 138.933 15.563 139.181 16.193C139.433 16.8183 139.778 17.2873 140.217 17.6C140.66 17.908 141.164 18.062 141.729 18.062Z" fill="#4038CA"/>
</svg>
