<svg width="462" height="58" viewBox="0 0 462 58" fill="none" xmlns="http://www.w3.org/2000/svg">
<path d="M8.47331 4.18L10.1533 2.404V9.736L9.31331 8.68H15.8413V11.56H9.31331L10.1533 10.504V17.896L8.47331 16.12H17.1733V19H6.40931V1.3H17.1733V4.18H8.47331ZM23.9368 0.243999V19H20.2648V0.243999H23.9368ZM26.7611 19V6.256H30.4451V19H26.7611ZM28.5971 4.18C28.0211 4.18 27.5171 4.028 27.0851 3.724C26.6611 3.42 26.4491 2.992 26.4491 2.44C26.4491 1.88 26.6611 1.448 27.0851 1.144C27.5171 0.84 28.0211 0.688 28.5971 0.688C29.1811 0.688 29.6851 0.84 30.1091 1.144C30.5411 1.448 30.7571 1.88 30.7571 2.44C30.7571 3 30.5411 3.432 30.1091 3.736C29.6851 4.032 29.1811 4.18 28.5971 4.18ZM41.1424 19V14.068C41.1424 13.596 41.1424 13.188 41.1424 12.844C41.1424 12.492 41.1424 12.2 41.1424 11.968C41.1424 11.64 41.1224 11.316 41.0824 10.996C41.0504 10.676 40.9704 10.38 40.8424 10.108C40.7224 9.828 40.5344 9.608 40.2784 9.448C40.0224 9.28 39.6744 9.196 39.2344 9.196C38.8264 9.196 38.4744 9.284 38.1784 9.46C37.8824 9.628 37.6384 9.864 37.4464 10.168C37.2624 10.464 37.1264 10.808 37.0384 11.2C36.9504 11.584 36.9064 11.988 36.9064 12.412L35.8864 11.572C35.8864 10.492 36.0824 9.536 36.4744 8.704C36.8664 7.864 37.4224 7.208 38.1424 6.736C38.8704 6.256 39.7304 6.016 40.7224 6.016C41.7864 6.016 42.6144 6.244 43.2064 6.7C43.8064 7.148 44.2264 7.748 44.4664 8.5C44.7144 9.244 44.8384 10.068 44.8384 10.972C44.8384 11.316 44.8384 11.78 44.8384 12.364C44.8384 12.948 44.8384 13.648 44.8384 14.464V19H41.1424ZM33.1864 19V6.256H36.9064V19H33.1864ZM49.0624 19V14.08C49.0624 13.592 49.0624 13.172 49.0624 12.82C49.0624 12.468 49.0624 12.176 49.0624 11.944C49.0624 11.592 49.0424 11.256 49.0024 10.936C48.9624 10.608 48.8784 10.312 48.7504 10.048C48.6224 9.784 48.4304 9.576 48.1744 9.424C47.9184 9.272 47.5704 9.196 47.1304 9.196C46.7224 9.196 46.3704 9.284 46.0744 9.46C45.7864 9.628 45.5504 9.86 45.3664 10.156C45.1824 10.452 45.0464 10.788 44.9584 11.164C44.8784 11.54 44.8384 11.932 44.8384 12.34L43.8184 11.512C43.8184 10.448 44.0104 9.504 44.3944 8.68C44.7864 7.856 45.3384 7.208 46.0504 6.736C46.7704 6.256 47.6304 6.016 48.6304 6.016C49.6704 6.016 50.4904 6.236 51.0904 6.676C51.6984 7.116 52.1304 7.704 52.3864 8.44C52.6504 9.168 52.7824 9.984 52.7824 10.888C52.7824 11.248 52.7824 11.712 52.7824 12.28C52.7824 12.848 52.7824 13.54 52.7824 14.356V19H49.0624ZM55.4252 19V6.256H59.1092V19H55.4252ZM57.2612 4.18C56.6852 4.18 56.1812 4.028 55.7492 3.724C55.3252 3.42 55.1132 2.992 55.1132 2.44C55.1132 1.88 55.3252 1.448 55.7492 1.144C56.1812 0.84 56.6852 0.688 57.2612 0.688C57.8452 0.688 58.3492 0.84 58.7732 1.144C59.2052 1.448 59.4212 1.88 59.4212 2.44C59.4212 3 59.2052 3.432 58.7732 3.736C58.3492 4.032 57.8452 4.18 57.2612 4.18ZM70.8264 19V13.588C70.8264 13.284 70.8264 13.008 70.8264 12.76C70.8264 12.512 70.8264 12.288 70.8264 12.088C70.8264 11.56 70.7584 11.08 70.6224 10.648C70.4864 10.208 70.2424 9.856 69.8904 9.592C69.5384 9.328 69.0304 9.196 68.3664 9.196C67.7904 9.196 67.2904 9.328 66.8664 9.592C66.4504 9.856 66.1304 10.224 65.9064 10.696C65.6824 11.168 65.5704 11.712 65.5704 12.328L64.5384 11.584C64.5384 10.48 64.7784 9.512 65.2584 8.68C65.7384 7.848 66.3864 7.196 67.2024 6.724C68.0264 6.252 68.9384 6.016 69.9384 6.016C70.9864 6.016 71.8464 6.228 72.5184 6.652C73.1984 7.068 73.7024 7.652 74.0304 8.404C74.3664 9.148 74.5344 10.02 74.5344 11.02C74.5344 11.428 74.5344 11.884 74.5344 12.388C74.5344 12.892 74.5344 13.408 74.5344 13.936V19H70.8264ZM61.8504 19V6.256H65.5704V19H61.8504ZM81.6392 19.264C80.7112 19.264 79.8832 19.116 79.1552 18.82C78.4352 18.524 77.8712 18.096 77.4632 17.536C77.0552 16.976 76.8512 16.296 76.8512 15.496C76.8512 14.592 77.0992 13.856 77.5952 13.288C78.0912 12.72 78.7472 12.288 79.5632 11.992C80.3872 11.688 81.2792 11.488 82.2392 11.392C83.6392 11.256 84.6032 11.132 85.1312 11.02C85.6672 10.908 85.9352 10.712 85.9352 10.432C85.9352 10.424 85.9352 10.416 85.9352 10.408C85.9352 9.936 85.7072 9.564 85.2512 9.292C84.8032 9.02 84.1752 8.884 83.3672 8.884C82.5112 8.884 81.8552 9.04 81.3992 9.352C80.9512 9.656 80.7272 10.124 80.7272 10.756H77.0672C77.0672 9.732 77.3432 8.868 77.8952 8.164C78.4552 7.46 79.2112 6.928 80.1632 6.568C81.1152 6.2 82.1912 6.016 83.3912 6.016C84.5112 6.016 85.5472 6.188 86.4992 6.532C87.4512 6.868 88.2152 7.376 88.7912 8.056C89.3752 8.736 89.6672 9.6 89.6672 10.648C89.6672 10.816 89.6672 10.984 89.6672 11.152C89.6672 11.312 89.6672 11.476 89.6672 11.644V16.156C89.6672 16.484 89.6752 16.8 89.6912 17.104C89.7152 17.4 89.7632 17.672 89.8352 17.92C89.9152 18.2 90.0152 18.432 90.1352 18.616C90.2552 18.8 90.3552 18.928 90.4352 19H86.7752C86.7192 18.944 86.6312 18.828 86.5112 18.652C86.3992 18.476 86.3032 18.272 86.2232 18.04C86.1272 17.76 86.0552 17.48 86.0072 17.2C85.9672 16.912 85.9472 16.576 85.9472 16.192L86.7152 16.72C86.4912 17.248 86.1272 17.704 85.6232 18.088C85.1272 18.464 84.5352 18.756 83.8472 18.964C83.1672 19.164 82.4312 19.264 81.6392 19.264ZM82.6352 16.48C83.2192 16.48 83.7632 16.376 84.2672 16.168C84.7792 15.952 85.1952 15.616 85.5152 15.16C85.8352 14.704 85.9952 14.108 85.9952 13.372V12.088L86.9192 12.988C86.3912 13.18 85.7792 13.34 85.0832 13.468C84.3952 13.588 83.7072 13.684 83.0192 13.756C82.2032 13.836 81.5912 13.976 81.1832 14.176C80.7832 14.368 80.5832 14.696 80.5832 15.16C80.5832 15.6 80.7552 15.932 81.0992 16.156C81.4432 16.372 81.9552 16.48 82.6352 16.48ZM98.3723 19.264C97.8843 19.264 97.3803 19.22 96.8603 19.132C96.3483 19.052 95.8683 18.888 95.4203 18.64C94.9803 18.384 94.6243 18.012 94.3523 17.524C94.0803 17.036 93.9443 16.392 93.9443 15.592C93.9443 15.416 93.9443 15.236 93.9443 15.052C93.9443 14.868 93.9443 14.684 93.9443 14.5V9.136H91.0043V6.256H91.8323C92.3123 6.256 92.6923 6.236 92.9723 6.196C93.2603 6.156 93.4723 6.056 93.6083 5.896C93.7523 5.728 93.8443 5.468 93.8843 5.116C93.9243 4.764 93.9443 4.28 93.9443 3.664V2.056H97.6763V6.256H101.384V9.136H97.6763V13.72C97.6763 13.864 97.6763 14.004 97.6763 14.14C97.6763 14.276 97.6763 14.408 97.6763 14.536C97.6763 15.088 97.7403 15.536 97.8683 15.88C98.0043 16.224 98.3363 16.396 98.8643 16.396C99.1283 16.396 99.3763 16.372 99.6083 16.324C99.8483 16.276 100.028 16.228 100.148 16.18V18.976C99.9803 19.048 99.7443 19.112 99.4403 19.168C99.1363 19.232 98.7803 19.264 98.3723 19.264ZM104.763 13.744V11.284H113.211L112.851 11.908C112.851 11.844 112.851 11.784 112.851 11.728C112.851 11.664 112.851 11.604 112.851 11.548C112.851 11.092 112.743 10.656 112.527 10.24C112.311 9.816 111.975 9.472 111.519 9.208C111.071 8.936 110.495 8.8 109.791 8.8C109.087 8.8 108.479 8.952 107.967 9.256C107.463 9.552 107.075 9.98 106.803 10.54C106.539 11.1 106.407 11.776 106.407 12.568C106.407 13.384 106.535 14.084 106.791 14.668C107.055 15.244 107.443 15.688 107.955 16C108.475 16.312 109.119 16.468 109.887 16.468C110.383 16.468 110.811 16.424 111.171 16.336C111.531 16.24 111.823 16.12 112.047 15.976C112.279 15.832 112.455 15.672 112.575 15.496C112.695 15.32 112.767 15.148 112.791 14.98H116.463C116.415 15.516 116.231 16.044 115.911 16.564C115.591 17.076 115.147 17.54 114.579 17.956C114.011 18.364 113.319 18.688 112.503 18.928C111.695 19.168 110.771 19.288 109.731 19.288C108.323 19.288 107.095 19.008 106.047 18.448C104.999 17.88 104.187 17.1 103.611 16.108C103.035 15.108 102.747 13.956 102.747 12.652C102.747 11.332 103.039 10.176 103.623 9.184C104.215 8.184 105.035 7.408 106.083 6.856C107.139 6.296 108.359 6.016 109.743 6.016C111.159 6.016 112.383 6.3 113.415 6.868C114.447 7.428 115.243 8.216 115.803 9.232C116.363 10.24 116.643 11.416 116.643 12.76C116.643 12.96 116.639 13.152 116.631 13.336C116.623 13.52 116.611 13.656 116.595 13.744H104.763ZM130.98 19.288C129.7 19.288 128.572 19.084 127.596 18.676C126.628 18.268 125.868 17.66 125.316 16.852C124.772 16.036 124.5 15.024 124.5 13.816C124.5 13.688 124.5 13.572 124.5 13.468C124.5 13.356 124.5 13.236 124.5 13.108H128.232C128.232 13.228 128.232 13.336 128.232 13.432C128.232 13.52 128.232 13.624 128.232 13.744C128.232 14.568 128.464 15.2 128.928 15.64C129.392 16.08 130.08 16.3 130.992 16.3C131.912 16.3 132.62 16.156 133.116 15.868C133.612 15.572 133.86 15.088 133.86 14.416C133.86 13.944 133.672 13.528 133.296 13.168C132.928 12.808 132.424 12.488 131.784 12.208C131.152 11.92 130.428 11.652 129.612 11.404C128.724 11.124 127.9 10.756 127.14 10.3C126.38 9.844 125.768 9.264 125.304 8.56C124.848 7.856 124.62 6.988 124.62 5.956C124.62 4.916 124.896 4.032 125.448 3.304C126 2.568 126.752 2.008 127.704 1.624C128.656 1.232 129.732 1.036 130.932 1.036C132.188 1.036 133.296 1.232 134.256 1.624C135.224 2.008 135.98 2.588 136.524 3.364C137.076 4.132 137.352 5.092 137.352 6.244C137.352 6.372 137.352 6.492 137.352 6.604C137.352 6.708 137.352 6.828 137.352 6.964H133.632C133.632 6.876 133.632 6.784 133.632 6.688C133.632 6.592 133.632 6.5 133.632 6.412C133.632 5.636 133.416 5.04 132.984 4.624C132.56 4.208 131.892 4 130.98 4C130.1 4 129.416 4.16 128.928 4.48C128.448 4.8 128.208 5.292 128.208 5.956C128.208 6.436 128.38 6.844 128.724 7.18C129.076 7.516 129.556 7.816 130.164 8.08C130.772 8.344 131.464 8.608 132.24 8.872C133.296 9.24 134.216 9.648 135 10.096C135.792 10.536 136.404 11.092 136.836 11.764C137.268 12.428 137.484 13.276 137.484 14.308C137.484 15.364 137.212 16.264 136.668 17.008C136.124 17.752 135.36 18.32 134.376 18.712C133.4 19.096 132.268 19.288 130.98 19.288ZM139.777 19V6.256H143.461V19H139.777ZM141.613 4.18C141.037 4.18 140.533 4.028 140.101 3.724C139.677 3.42 139.465 2.992 139.465 2.44C139.465 1.88 139.677 1.448 140.101 1.144C140.533 0.84 141.037 0.688 141.613 0.688C142.197 0.688 142.701 0.84 143.125 1.144C143.557 1.448 143.773 1.88 143.773 2.44C143.773 3 143.557 3.432 143.125 3.736C142.701 4.032 142.197 4.18 141.613 4.18ZM155.178 19V13.588C155.178 13.284 155.178 13.008 155.178 12.76C155.178 12.512 155.178 12.288 155.178 12.088C155.178 11.56 155.11 11.08 154.974 10.648C154.838 10.208 154.594 9.856 154.242 9.592C153.89 9.328 153.382 9.196 152.718 9.196C152.142 9.196 151.642 9.328 151.218 9.592C150.802 9.856 150.482 10.224 150.258 10.696C150.034 11.168 149.922 11.712 149.922 12.328L148.89 11.584C148.89 10.48 149.13 9.512 149.61 8.68C150.09 7.848 150.738 7.196 151.554 6.724C152.378 6.252 153.29 6.016 154.29 6.016C155.338 6.016 156.198 6.228 156.87 6.652C157.55 7.068 158.054 7.652 158.382 8.404C158.718 9.148 158.886 10.02 158.886 11.02C158.886 11.428 158.886 11.884 158.886 12.388C158.886 12.892 158.886 13.408 158.886 13.936V19H155.178ZM146.202 19V6.256H149.922V19H146.202ZM170.467 17.488C171.251 17.568 171.935 17.72 172.519 17.944C173.111 18.16 173.571 18.484 173.899 18.916C174.227 19.34 174.391 19.908 174.391 20.62C174.391 21.444 174.119 22.144 173.575 22.72C173.039 23.304 172.251 23.748 171.211 24.052C170.171 24.356 168.911 24.508 167.431 24.508C165.247 24.508 163.555 24.192 162.355 23.56C161.163 22.936 160.567 22.1 160.567 21.052C160.567 20.756 160.599 20.488 160.663 20.248C160.735 20.016 160.823 19.816 160.927 19.648L164.311 20.14C164.271 20.196 164.227 20.28 164.179 20.392C164.139 20.512 164.119 20.66 164.119 20.836C164.119 21.26 164.435 21.576 165.067 21.784C165.707 21.992 166.531 22.096 167.539 22.096C168.251 22.096 168.859 22.044 169.363 21.94C169.875 21.844 170.263 21.7 170.527 21.508C170.799 21.316 170.935 21.096 170.935 20.848C170.935 20.488 170.759 20.252 170.407 20.14C170.063 20.028 169.663 19.948 169.207 19.9L164.383 19.408C163.495 19.32 162.759 19.064 162.175 18.64C161.591 18.216 161.299 17.644 161.299 16.924C161.299 16.476 161.423 16.068 161.671 15.7C161.919 15.324 162.203 15.016 162.523 14.776C162.843 14.528 163.111 14.372 163.327 14.308L165.223 15.268C165.071 15.292 164.891 15.388 164.683 15.556C164.483 15.724 164.383 15.92 164.383 16.144C164.383 16.368 164.495 16.56 164.719 16.72C164.951 16.88 165.371 16.988 165.979 17.044L170.467 17.488ZM171.727 6.256H175.003L173.671 11.152C173.423 12.08 173.055 12.908 172.567 13.636C172.079 14.356 171.427 14.924 170.611 15.34C169.803 15.756 168.783 15.964 167.551 15.964C166.255 15.964 165.131 15.764 164.179 15.364C163.235 14.964 162.507 14.4 161.995 13.672C161.483 12.936 161.227 12.068 161.227 11.068C161.227 10.068 161.487 9.188 162.007 8.428C162.535 7.668 163.251 7.076 164.155 6.652C165.067 6.228 166.099 6.016 167.251 6.016C168.123 6.016 168.919 6.16 169.639 6.448C170.367 6.728 170.951 7.1 171.391 7.564C171.839 8.028 172.071 8.54 172.087 9.1L171.403 9.28L171.727 6.256ZM167.527 13.24C168.055 13.24 168.519 13.156 168.919 12.988C169.319 12.812 169.631 12.56 169.855 12.232C170.079 11.896 170.191 11.492 170.191 11.02C170.191 10.556 170.079 10.16 169.855 9.832C169.631 9.504 169.319 9.252 168.919 9.076C168.519 8.9 168.055 8.812 167.527 8.812C167.023 8.812 166.567 8.904 166.159 9.088C165.759 9.264 165.443 9.52 165.211 9.856C164.979 10.184 164.863 10.584 164.863 11.056C164.863 11.52 164.975 11.916 165.199 12.244C165.423 12.564 165.735 12.812 166.135 12.988C166.535 13.156 166.999 13.24 167.527 13.24ZM180.663 0.243999V19H176.991V0.243999H180.663ZM185.06 13.744V11.284H193.508L193.148 11.908C193.148 11.844 193.148 11.784 193.148 11.728C193.148 11.664 193.148 11.604 193.148 11.548C193.148 11.092 193.04 10.656 192.824 10.24C192.608 9.816 192.272 9.472 191.816 9.208C191.368 8.936 190.792 8.8 190.088 8.8C189.384 8.8 188.776 8.952 188.264 9.256C187.76 9.552 187.372 9.98 187.1 10.54C186.836 11.1 186.704 11.776 186.704 12.568C186.704 13.384 186.832 14.084 187.088 14.668C187.352 15.244 187.74 15.688 188.252 16C188.772 16.312 189.416 16.468 190.184 16.468C190.68 16.468 191.108 16.424 191.468 16.336C191.828 16.24 192.12 16.12 192.344 15.976C192.576 15.832 192.752 15.672 192.872 15.496C192.992 15.32 193.064 15.148 193.088 14.98H196.76C196.712 15.516 196.528 16.044 196.208 16.564C195.888 17.076 195.444 17.54 194.876 17.956C194.308 18.364 193.616 18.688 192.8 18.928C191.992 19.168 191.068 19.288 190.028 19.288C188.62 19.288 187.392 19.008 186.344 18.448C185.296 17.88 184.484 17.1 183.908 16.108C183.332 15.108 183.044 13.956 183.044 12.652C183.044 11.332 183.336 10.176 183.92 9.184C184.512 8.184 185.332 7.408 186.38 6.856C187.436 6.296 188.656 6.016 190.04 6.016C191.456 6.016 192.68 6.3 193.712 6.868C194.744 7.428 195.54 8.216 196.1 9.232C196.66 10.24 196.94 11.416 196.94 12.76C196.94 12.96 196.936 13.152 196.928 13.336C196.92 13.52 196.908 13.656 196.892 13.744H185.06ZM209.009 19H205.277V1.3H211.337C212.689 1.3 213.845 1.564 214.805 2.092C215.773 2.612 216.509 3.32 217.013 4.216C217.525 5.104 217.781 6.108 217.781 7.228C217.781 8.34 217.521 9.36 217.001 10.288C216.489 11.208 215.753 11.948 214.793 12.508C213.833 13.06 212.681 13.336 211.337 13.336H209.009V19ZM209.009 12.184L207.329 10.456H210.941C211.565 10.456 212.109 10.332 212.573 10.084C213.037 9.828 213.397 9.46 213.653 8.98C213.909 8.492 214.037 7.908 214.037 7.228C214.037 6.54 213.909 5.972 213.653 5.524C213.405 5.068 213.049 4.732 212.585 4.516C212.129 4.292 211.581 4.18 210.941 4.18H207.329L209.009 2.404V12.184ZM225.875 19.276C224.499 19.276 223.287 18.992 222.239 18.424C221.191 17.856 220.371 17.076 219.779 16.084C219.195 15.084 218.903 13.932 218.903 12.628C218.903 11.332 219.195 10.188 219.779 9.196C220.371 8.196 221.191 7.42 222.239 6.868C223.287 6.308 224.499 6.028 225.875 6.028C227.251 6.028 228.463 6.308 229.511 6.868C230.559 7.42 231.375 8.196 231.959 9.196C232.551 10.188 232.847 11.332 232.847 12.628C232.847 13.932 232.551 15.084 231.959 16.084C231.375 17.076 230.559 17.856 229.511 18.424C228.463 18.992 227.251 19.276 225.875 19.276ZM225.875 16.324C226.523 16.324 227.087 16.172 227.567 15.868C228.047 15.564 228.419 15.136 228.683 14.584C228.947 14.024 229.079 13.372 229.079 12.628C229.079 11.884 228.947 11.24 228.683 10.696C228.419 10.144 228.047 9.72 227.567 9.424C227.087 9.128 226.523 8.98 225.875 8.98C225.235 8.98 224.671 9.128 224.183 9.424C223.703 9.72 223.331 10.144 223.067 10.696C222.803 11.24 222.671 11.884 222.671 12.628C222.671 13.372 222.803 14.024 223.067 14.584C223.331 15.136 223.703 15.564 224.183 15.868C224.671 16.172 225.235 16.324 225.875 16.324ZM235.027 19V6.256H238.711V19H235.027ZM236.863 4.18C236.287 4.18 235.783 4.028 235.351 3.724C234.927 3.42 234.715 2.992 234.715 2.44C234.715 1.88 234.927 1.448 235.351 1.144C235.783 0.84 236.287 0.688 236.863 0.688C237.447 0.688 237.951 0.84 238.375 1.144C238.807 1.448 239.023 1.88 239.023 2.44C239.023 3 238.807 3.432 238.375 3.736C237.951 4.032 237.447 4.18 236.863 4.18ZM250.428 19V13.588C250.428 13.284 250.428 13.008 250.428 12.76C250.428 12.512 250.428 12.288 250.428 12.088C250.428 11.56 250.36 11.08 250.224 10.648C250.088 10.208 249.844 9.856 249.492 9.592C249.14 9.328 248.632 9.196 247.968 9.196C247.392 9.196 246.892 9.328 246.468 9.592C246.052 9.856 245.732 10.224 245.508 10.696C245.284 11.168 245.172 11.712 245.172 12.328L244.14 11.584C244.14 10.48 244.38 9.512 244.86 8.68C245.34 7.848 245.988 7.196 246.804 6.724C247.628 6.252 248.54 6.016 249.54 6.016C250.588 6.016 251.448 6.228 252.12 6.652C252.8 7.068 253.304 7.652 253.632 8.404C253.968 9.148 254.136 10.02 254.136 11.02C254.136 11.428 254.136 11.884 254.136 12.388C254.136 12.892 254.136 13.408 254.136 13.936V19H250.428ZM241.452 19V6.256H245.172V19H241.452ZM262.904 19.264C262.416 19.264 261.912 19.22 261.392 19.132C260.88 19.052 260.4 18.888 259.952 18.64C259.512 18.384 259.156 18.012 258.884 17.524C258.612 17.036 258.476 16.392 258.476 15.592C258.476 15.416 258.476 15.236 258.476 15.052C258.476 14.868 258.476 14.684 258.476 14.5V9.136H255.536V6.256H256.364C256.844 6.256 257.224 6.236 257.504 6.196C257.792 6.156 258.004 6.056 258.14 5.896C258.284 5.728 258.376 5.468 258.416 5.116C258.456 4.764 258.476 4.28 258.476 3.664V2.056H262.208V6.256H265.916V9.136H262.208V13.72C262.208 13.864 262.208 14.004 262.208 14.14C262.208 14.276 262.208 14.408 262.208 14.536C262.208 15.088 262.272 15.536 262.4 15.88C262.536 16.224 262.868 16.396 263.396 16.396C263.66 16.396 263.908 16.372 264.14 16.324C264.38 16.276 264.56 16.228 264.68 16.18V18.976C264.512 19.048 264.276 19.112 263.972 19.168C263.668 19.232 263.312 19.264 262.904 19.264ZM273.17 19.288C272.41 19.288 271.678 19.2 270.974 19.024C270.27 18.848 269.638 18.588 269.078 18.244C268.526 17.9 268.086 17.472 267.758 16.96C267.438 16.44 267.278 15.836 267.278 15.148C267.278 15.116 267.278 15.08 267.278 15.04C267.278 14.992 267.278 14.956 267.278 14.932H270.974C270.974 14.956 270.974 14.984 270.974 15.016C270.974 15.04 270.974 15.068 270.974 15.1C270.974 15.564 271.178 15.904 271.586 16.12C272.002 16.336 272.562 16.444 273.266 16.444C273.634 16.444 273.986 16.408 274.322 16.336C274.666 16.256 274.946 16.132 275.162 15.964C275.386 15.788 275.498 15.568 275.498 15.304C275.498 14.88 275.262 14.58 274.79 14.404C274.326 14.228 273.578 14.052 272.546 13.876C271.962 13.78 271.37 13.644 270.77 13.468C270.17 13.292 269.618 13.06 269.114 12.772C268.61 12.476 268.206 12.104 267.902 11.656C267.598 11.2 267.446 10.648 267.446 10C267.446 9.136 267.706 8.408 268.226 7.816C268.754 7.224 269.454 6.776 270.326 6.472C271.198 6.168 272.158 6.016 273.206 6.016C274.206 6.016 275.138 6.184 276.002 6.52C276.866 6.848 277.566 7.324 278.102 7.948C278.638 8.564 278.906 9.308 278.906 10.18C278.906 10.196 278.906 10.22 278.906 10.252C278.906 10.284 278.906 10.316 278.906 10.348H275.246C275.246 10.316 275.246 10.288 275.246 10.264C275.246 10.24 275.246 10.22 275.246 10.204C275.246 9.884 275.142 9.624 274.934 9.424C274.734 9.224 274.478 9.076 274.166 8.98C273.854 8.876 273.53 8.824 273.194 8.824C272.89 8.824 272.574 8.86 272.246 8.932C271.926 8.996 271.654 9.108 271.43 9.268C271.206 9.42 271.094 9.636 271.094 9.916C271.094 10.188 271.214 10.412 271.454 10.588C271.694 10.756 272.03 10.896 272.462 11.008C272.894 11.112 273.394 11.212 273.962 11.308C274.498 11.396 275.062 11.52 275.654 11.68C276.254 11.832 276.814 12.052 277.334 12.34C277.862 12.62 278.286 12.992 278.606 13.456C278.934 13.912 279.098 14.492 279.098 15.196C279.098 15.924 278.93 16.548 278.594 17.068C278.258 17.588 277.802 18.012 277.226 18.34C276.658 18.66 276.022 18.896 275.318 19.048C274.622 19.208 273.906 19.288 273.17 19.288ZM293.867 19.276C292.491 19.276 291.279 18.992 290.231 18.424C289.183 17.856 288.363 17.076 287.771 16.084C287.187 15.084 286.895 13.932 286.895 12.628C286.895 11.332 287.187 10.188 287.771 9.196C288.363 8.196 289.183 7.42 290.231 6.868C291.279 6.308 292.491 6.028 293.867 6.028C295.243 6.028 296.455 6.308 297.503 6.868C298.551 7.42 299.367 8.196 299.951 9.196C300.543 10.188 300.839 11.332 300.839 12.628C300.839 13.932 300.543 15.084 299.951 16.084C299.367 17.076 298.551 17.856 297.503 18.424C296.455 18.992 295.243 19.276 293.867 19.276ZM293.867 16.324C294.515 16.324 295.079 16.172 295.559 15.868C296.039 15.564 296.411 15.136 296.675 14.584C296.939 14.024 297.071 13.372 297.071 12.628C297.071 11.884 296.939 11.24 296.675 10.696C296.411 10.144 296.039 9.72 295.559 9.424C295.079 9.128 294.515 8.98 293.867 8.98C293.227 8.98 292.663 9.128 292.175 9.424C291.695 9.72 291.323 10.144 291.059 10.696C290.795 11.24 290.663 11.884 290.663 12.628C290.663 13.372 290.795 14.024 291.059 14.584C291.323 15.136 291.695 15.564 292.175 15.868C292.663 16.172 293.227 16.324 293.867 16.324ZM304.641 19V9.136H301.989V6.256H304.641V5.38C304.641 4.532 304.753 3.808 304.977 3.208C305.209 2.6 305.521 2.096 305.913 1.696C306.305 1.288 306.745 0.967999 307.233 0.735999C307.729 0.495999 308.237 0.327999 308.757 0.231998C309.285 0.127999 309.797 0.0759997 310.293 0.0759997C310.821 0.0759997 311.213 0.107999 311.469 0.171999C311.733 0.227999 311.909 0.276 311.997 0.316V3.208C311.901 3.176 311.729 3.14 311.481 3.1C311.241 3.06 310.981 3.04 310.701 3.04C310.237 3.04 309.853 3.1 309.549 3.22C309.245 3.34 309.005 3.516 308.829 3.748C308.653 3.972 308.529 4.24 308.457 4.552C308.385 4.856 308.349 5.188 308.349 5.548V6.256H311.769V9.136H308.349V19H304.641ZM321.211 19V9.136H318.559V6.256H321.211V5.38C321.211 4.532 321.323 3.808 321.547 3.208C321.779 2.6 322.091 2.096 322.483 1.696C322.875 1.288 323.315 0.967999 323.803 0.735999C324.299 0.495999 324.807 0.327999 325.327 0.231998C325.855 0.127999 326.367 0.0759997 326.863 0.0759997C327.391 0.0759997 327.783 0.107999 328.039 0.171999C328.303 0.227999 328.479 0.276 328.567 0.316V3.208C328.471 3.176 328.299 3.14 328.051 3.1C327.811 3.06 327.551 3.04 327.271 3.04C326.807 3.04 326.423 3.1 326.119 3.22C325.815 3.34 325.575 3.516 325.399 3.748C325.223 3.972 325.099 4.24 325.027 4.552C324.955 4.856 324.919 5.188 324.919 5.548V6.256H328.339V9.136H324.919V19H321.211ZM334.061 19.264C333.133 19.264 332.305 19.116 331.577 18.82C330.857 18.524 330.293 18.096 329.885 17.536C329.477 16.976 329.273 16.296 329.273 15.496C329.273 14.592 329.521 13.856 330.017 13.288C330.513 12.72 331.169 12.288 331.985 11.992C332.809 11.688 333.701 11.488 334.661 11.392C336.061 11.256 337.025 11.132 337.553 11.02C338.089 10.908 338.357 10.712 338.357 10.432C338.357 10.424 338.357 10.416 338.357 10.408C338.357 9.936 338.129 9.564 337.673 9.292C337.225 9.02 336.597 8.884 335.789 8.884C334.933 8.884 334.277 9.04 333.821 9.352C333.373 9.656 333.149 10.124 333.149 10.756H329.489C329.489 9.732 329.765 8.868 330.317 8.164C330.877 7.46 331.633 6.928 332.585 6.568C333.537 6.2 334.613 6.016 335.813 6.016C336.933 6.016 337.969 6.188 338.921 6.532C339.873 6.868 340.637 7.376 341.213 8.056C341.797 8.736 342.089 9.6 342.089 10.648C342.089 10.816 342.089 10.984 342.089 11.152C342.089 11.312 342.089 11.476 342.089 11.644V16.156C342.089 16.484 342.097 16.8 342.113 17.104C342.137 17.4 342.185 17.672 342.257 17.92C342.337 18.2 342.437 18.432 342.557 18.616C342.677 18.8 342.777 18.928 342.857 19H339.197C339.141 18.944 339.053 18.828 338.933 18.652C338.821 18.476 338.725 18.272 338.645 18.04C338.549 17.76 338.477 17.48 338.429 17.2C338.389 16.912 338.369 16.576 338.369 16.192L339.137 16.72C338.913 17.248 338.549 17.704 338.045 18.088C337.549 18.464 336.957 18.756 336.269 18.964C335.589 19.164 334.853 19.264 334.061 19.264ZM335.057 16.48C335.641 16.48 336.185 16.376 336.689 16.168C337.201 15.952 337.617 15.616 337.937 15.16C338.257 14.704 338.417 14.108 338.417 13.372V12.088L339.341 12.988C338.813 13.18 338.201 13.34 337.505 13.468C336.817 13.588 336.129 13.684 335.441 13.756C334.625 13.836 334.013 13.976 333.605 14.176C333.205 14.368 333.005 14.696 333.005 15.16C333.005 15.6 333.177 15.932 333.521 16.156C333.865 16.372 334.377 16.48 335.057 16.48ZM344.667 19V6.256H348.351V19H344.667ZM346.503 4.18C345.927 4.18 345.423 4.028 344.991 3.724C344.567 3.42 344.355 2.992 344.355 2.44C344.355 1.88 344.567 1.448 344.991 1.144C345.423 0.84 345.927 0.688 346.503 0.688C347.087 0.688 347.591 0.84 348.015 1.144C348.447 1.448 348.663 1.88 348.663 2.44C348.663 3 348.447 3.432 348.015 3.736C347.591 4.032 347.087 4.18 346.503 4.18ZM354.945 0.243999V19H351.273V0.243999H354.945ZM362.437 19.24C361.533 19.24 360.789 19.096 360.205 18.808C359.621 18.512 359.161 18.116 358.825 17.62C358.489 17.124 358.253 16.572 358.117 15.964C357.981 15.356 357.913 14.74 357.913 14.116C357.913 13.828 357.913 13.524 357.913 13.204C357.913 12.884 357.913 12.556 357.913 12.22V6.256H361.633V11.632C361.633 11.904 361.633 12.168 361.633 12.424C361.633 12.68 361.633 12.916 361.633 13.132C361.633 13.668 361.693 14.16 361.813 14.608C361.933 15.056 362.153 15.416 362.473 15.688C362.801 15.96 363.265 16.096 363.865 16.096C364.449 16.096 364.945 15.932 365.353 15.604C365.761 15.268 366.073 14.84 366.289 14.32C366.505 13.8 366.613 13.264 366.613 12.712L367.657 13.564C367.657 14.364 367.533 15.108 367.285 15.796C367.045 16.484 366.701 17.088 366.253 17.608C365.805 18.12 365.257 18.52 364.609 18.808C363.969 19.096 363.245 19.24 362.437 19.24ZM366.613 19V6.256H370.333V19H366.613ZM373.124 19V6.256H376.856V10.648L376.088 10.168C376.176 9.568 376.336 9.016 376.568 8.512C376.8 8.008 377.1 7.572 377.468 7.204C377.836 6.828 378.272 6.536 378.776 6.328C379.288 6.12 379.872 6.016 380.528 6.016C381.04 6.016 381.44 6.056 381.728 6.136C382.024 6.208 382.208 6.264 382.28 6.304L381.668 9.64C381.596 9.6 381.436 9.536 381.188 9.448C380.94 9.36 380.62 9.316 380.228 9.316C379.588 9.316 379.052 9.424 378.62 9.64C378.188 9.856 377.84 10.144 377.576 10.504C377.32 10.856 377.136 11.248 377.024 11.68C376.912 12.112 376.856 12.548 376.856 12.988V19H373.124ZM385.357 13.744V11.284H393.805L393.445 11.908C393.445 11.844 393.445 11.784 393.445 11.728C393.445 11.664 393.445 11.604 393.445 11.548C393.445 11.092 393.337 10.656 393.121 10.24C392.905 9.816 392.569 9.472 392.113 9.208C391.665 8.936 391.089 8.8 390.385 8.8C389.681 8.8 389.073 8.952 388.561 9.256C388.057 9.552 387.669 9.98 387.397 10.54C387.133 11.1 387.001 11.776 387.001 12.568C387.001 13.384 387.129 14.084 387.385 14.668C387.649 15.244 388.037 15.688 388.549 16C389.069 16.312 389.713 16.468 390.481 16.468C390.977 16.468 391.405 16.424 391.765 16.336C392.125 16.24 392.417 16.12 392.641 15.976C392.873 15.832 393.049 15.672 393.169 15.496C393.289 15.32 393.361 15.148 393.385 14.98H397.057C397.009 15.516 396.825 16.044 396.505 16.564C396.185 17.076 395.741 17.54 395.173 17.956C394.605 18.364 393.913 18.688 393.097 18.928C392.289 19.168 391.365 19.288 390.325 19.288C388.917 19.288 387.689 19.008 386.641 18.448C385.593 17.88 384.781 17.1 384.205 16.108C383.629 15.108 383.341 13.956 383.341 12.652C383.341 11.332 383.633 10.176 384.217 9.184C384.809 8.184 385.629 7.408 386.677 6.856C387.733 6.296 388.953 6.016 390.337 6.016C391.753 6.016 392.977 6.3 394.009 6.868C395.041 7.428 395.837 8.216 396.397 9.232C396.957 10.24 397.237 11.416 397.237 12.76C397.237 12.96 397.233 13.152 397.225 13.336C397.217 13.52 397.205 13.656 397.189 13.744H385.357ZM415.833 19L413.169 6.256H415.881L418.557 17.944L417.945 17.968L419.613 6.256H423.453L420.909 19H415.833ZM406.977 19L404.433 6.256H408.273L409.941 17.968L409.341 17.944L411.993 6.256H414.705L412.065 19H406.977ZM425.081 19V6.256H428.765V19H425.081ZM426.917 4.18C426.341 4.18 425.837 4.028 425.405 3.724C424.981 3.42 424.769 2.992 424.769 2.44C424.769 1.88 424.981 1.448 425.405 1.144C425.837 0.84 426.341 0.688 426.917 0.688C427.501 0.688 428.005 0.84 428.429 1.144C428.861 1.448 429.077 1.88 429.077 2.44C429.077 3 428.861 3.432 428.429 3.736C428.005 4.032 427.501 4.18 426.917 4.18ZM437.771 19.264C437.283 19.264 436.779 19.22 436.259 19.132C435.747 19.052 435.267 18.888 434.819 18.64C434.379 18.384 434.023 18.012 433.751 17.524C433.479 17.036 433.343 16.392 433.343 15.592C433.343 15.416 433.343 15.236 433.343 15.052C433.343 14.868 433.343 14.684 433.343 14.5V9.136H430.403V6.256H431.231C431.711 6.256 432.091 6.236 432.371 6.196C432.659 6.156 432.871 6.056 433.007 5.896C433.151 5.728 433.243 5.468 433.283 5.116C433.323 4.764 433.343 4.28 433.343 3.664V2.056H437.075V6.256H440.783V9.136H437.075V13.72C437.075 13.864 437.075 14.004 437.075 14.14C437.075 14.276 437.075 14.408 437.075 14.536C437.075 15.088 437.139 15.536 437.267 15.88C437.403 16.224 437.735 16.396 438.263 16.396C438.527 16.396 438.775 16.372 439.007 16.324C439.247 16.276 439.427 16.228 439.547 16.18V18.976C439.379 19.048 439.143 19.112 438.839 19.168C438.535 19.232 438.179 19.264 437.771 19.264ZM452.014 19V14.464C452.014 14.304 452.014 14.084 452.014 13.804C452.014 13.524 452.014 13.24 452.014 12.952C452.014 12.664 452.014 12.432 452.014 12.256C452.014 11.28 451.838 10.528 451.486 10C451.134 9.464 450.49 9.196 449.554 9.196C448.946 9.196 448.434 9.32 448.018 9.568C447.602 9.808 447.286 10.148 447.07 10.588C446.862 11.028 446.758 11.544 446.758 12.136L445.678 11.392C445.678 10.328 445.906 9.396 446.362 8.596C446.818 7.788 447.446 7.156 448.246 6.7C449.054 6.244 449.986 6.016 451.042 6.016C452.602 6.016 453.774 6.476 454.558 7.396C455.342 8.308 455.734 9.58 455.734 11.212C455.734 11.628 455.734 12.128 455.734 12.712C455.734 13.296 455.734 13.972 455.734 14.74V19H452.014ZM443.038 19V0.243999H446.758V19H443.038ZM0.888094 57V39.3H7.04409C8.22809 39.3 9.30809 39.516 10.2841 39.948C11.2681 40.38 12.1161 40.992 12.8281 41.784C13.5401 42.568 14.0881 43.5 14.4721 44.58C14.8561 45.652 15.0481 46.832 15.0481 48.12C15.0481 49.4 14.8561 50.584 14.4721 51.672C14.0881 52.752 13.5401 53.692 12.8281 54.492C12.1161 55.284 11.2681 55.9 10.2841 56.34C9.30809 56.78 8.22809 57 7.04409 57H0.888094ZM5.18409 55.74L3.25209 53.76H6.46809C7.25209 53.76 7.96009 53.532 8.59209 53.076C9.23209 52.62 9.74409 51.972 10.1281 51.132C10.5121 50.284 10.7041 49.28 10.7041 48.12C10.7041 46.952 10.5121 45.952 10.1281 45.12C9.74409 44.288 9.23209 43.652 8.59209 43.212C7.96009 42.764 7.25209 42.54 6.46809 42.54H3.25209L5.18409 40.56V55.74ZM17.0412 57V44.256H21.2772V57H17.0412ZM19.1532 42.468C18.5132 42.468 17.9492 42.3 17.4612 41.964C16.9812 41.628 16.7412 41.152 16.7412 40.536C16.7412 39.912 16.9812 39.436 17.4612 39.108C17.9492 38.772 18.5132 38.604 19.1532 38.604C19.8012 38.604 20.3652 38.772 20.8452 39.108C21.3252 39.436 21.5652 39.912 21.5652 40.536C21.5652 41.16 21.3252 41.64 20.8452 41.976C20.3652 42.304 19.8012 42.468 19.1532 42.468ZM29.1157 57.3C28.3557 57.3 27.6157 57.212 26.8957 57.036C26.1837 56.86 25.5357 56.596 24.9517 56.244C24.3757 55.884 23.9117 55.436 23.5597 54.9C23.2157 54.364 23.0437 53.74 23.0437 53.028C23.0437 53.004 23.0437 52.976 23.0437 52.944C23.0437 52.912 23.0437 52.884 23.0437 52.86H27.2917C27.2917 52.884 27.2917 52.908 27.2917 52.932C27.2917 52.956 27.2917 52.98 27.2917 53.004C27.2917 53.404 27.4637 53.692 27.8077 53.868C28.1597 54.044 28.6357 54.132 29.2357 54.132C29.5077 54.132 29.7837 54.104 30.0637 54.048C30.3517 53.984 30.5917 53.884 30.7837 53.748C30.9837 53.604 31.0837 53.424 31.0837 53.208C31.0837 52.864 30.8757 52.62 30.4597 52.476C30.0517 52.332 29.3597 52.18 28.3837 52.02C27.8237 51.932 27.2397 51.8 26.6317 51.624C26.0317 51.448 25.4717 51.212 24.9517 50.916C24.4317 50.62 24.0117 50.244 23.6917 49.788C23.3717 49.332 23.2117 48.772 23.2117 48.108C23.2117 47.204 23.4837 46.452 24.0277 45.852C24.5717 45.244 25.2917 44.784 26.1877 44.472C27.0917 44.16 28.0837 44.004 29.1637 44.004C30.1877 44.004 31.1437 44.176 32.0317 44.52C32.9277 44.864 33.6517 45.356 34.2037 45.996C34.7637 46.636 35.0437 47.396 35.0437 48.276C35.0437 48.292 35.0437 48.316 35.0437 48.348C35.0437 48.372 35.0437 48.396 35.0437 48.42H30.8437C30.8437 48.396 30.8437 48.372 30.8437 48.348C30.8437 48.324 30.8437 48.304 30.8437 48.288C30.8437 48.016 30.7557 47.796 30.5797 47.628C30.4117 47.46 30.1957 47.336 29.9317 47.256C29.6757 47.176 29.4117 47.136 29.1397 47.136C28.9077 47.136 28.6557 47.164 28.3837 47.22C28.1117 47.268 27.8797 47.356 27.6877 47.484C27.4957 47.604 27.3997 47.784 27.3997 48.024C27.3997 48.232 27.5117 48.408 27.7357 48.552C27.9597 48.696 28.2677 48.816 28.6597 48.912C29.0517 49 29.4997 49.084 30.0037 49.164C30.4997 49.236 31.0477 49.348 31.6477 49.5C32.2477 49.652 32.8197 49.872 33.3637 50.16C33.9077 50.44 34.3517 50.816 34.6957 51.288C35.0477 51.76 35.2237 52.36 35.2237 53.088C35.2237 53.856 35.0477 54.508 34.6957 55.044C34.3437 55.58 33.8677 56.016 33.2677 56.352C32.6757 56.68 32.0197 56.92 31.2997 57.072C30.5797 57.224 29.8517 57.3 29.1157 57.3ZM43.8985 57.288C43.3785 57.288 42.8345 57.244 42.2665 57.156C41.6985 57.076 41.1705 56.908 40.6825 56.652C40.1945 56.396 39.7985 56.012 39.4945 55.5C39.1905 54.988 39.0385 54.308 39.0385 53.46C39.0385 53.276 39.0385 53.096 39.0385 52.92C39.0385 52.736 39.0385 52.552 39.0385 52.368V47.496H36.1465V44.256H36.5905C37.1425 44.256 37.5825 44.232 37.9105 44.184C38.2385 44.136 38.4825 44.016 38.6425 43.824C38.8025 43.632 38.9065 43.336 38.9545 42.936C39.0105 42.528 39.0385 41.964 39.0385 41.244V40.068H43.3345V44.256H46.9345V47.496H43.3345V51.54C43.3345 51.676 43.3345 51.808 43.3345 51.936C43.3345 52.056 43.3345 52.18 43.3345 52.308C43.3345 52.812 43.3945 53.232 43.5145 53.568C43.6345 53.904 43.9465 54.072 44.4505 54.072C44.7305 54.072 44.9945 54.044 45.2425 53.988C45.4905 53.932 45.6745 53.88 45.7945 53.832V56.976C45.6185 57.048 45.3665 57.116 45.0385 57.18C44.7105 57.252 44.3305 57.288 43.8985 57.288ZM49.0625 57V44.256H53.3465V48.816L52.5425 48.24C52.6545 47.608 52.8305 47.032 53.0705 46.512C53.3105 45.984 53.6185 45.536 53.9945 45.168C54.3785 44.792 54.8225 44.504 55.3265 44.304C55.8385 44.104 56.4145 44.004 57.0545 44.004C57.5745 44.004 57.9705 44.04 58.2425 44.112C58.5225 44.184 58.6985 44.24 58.7705 44.28L58.1345 48.06C58.0625 48.02 57.9025 47.96 57.6545 47.88C57.4065 47.792 57.0985 47.748 56.7305 47.748C56.0985 47.748 55.5625 47.852 55.1225 48.06C54.6905 48.26 54.3425 48.532 54.0785 48.876C53.8225 49.22 53.6345 49.604 53.5145 50.028C53.4025 50.452 53.3465 50.876 53.3465 51.3V57H49.0625ZM60.3068 57V44.256H64.5428V57H60.3068ZM62.4188 42.468C61.7788 42.468 61.2148 42.3 60.7268 41.964C60.2468 41.628 60.0068 41.152 60.0068 40.536C60.0068 39.912 60.2468 39.436 60.7268 39.108C61.2148 38.772 61.7788 38.604 62.4188 38.604C63.0668 38.604 63.6308 38.772 64.1108 39.108C64.5908 39.436 64.8308 39.912 64.8308 40.536C64.8308 41.16 64.5908 41.64 64.1108 41.976C63.6308 42.304 63.0668 42.468 62.4188 42.468ZM75.0813 57.288C74.0733 57.288 73.1493 57.012 72.3093 56.46C71.4773 55.908 70.8133 55.164 70.3173 54.228C69.8213 53.284 69.5733 52.232 69.5733 51.072C69.5733 51.04 69.5733 51.008 69.5733 50.976C69.5733 50.936 69.5733 50.896 69.5733 50.856L71.2293 50.82C71.2293 50.844 71.2293 50.872 71.2293 50.904C71.2293 50.928 71.2293 50.948 71.2293 50.964C71.2293 51.524 71.3573 52.008 71.6133 52.416C71.8773 52.816 72.2133 53.124 72.6213 53.34C73.0373 53.548 73.4653 53.652 73.9053 53.652C74.6173 53.652 75.2493 53.404 75.8013 52.908C76.3533 52.412 76.6293 51.628 76.6293 50.556C76.6293 49.484 76.3533 48.712 75.8013 48.24C75.2573 47.76 74.6253 47.52 73.9053 47.52C73.4733 47.52 73.0493 47.624 72.6333 47.832C72.2253 48.032 71.8893 48.328 71.6253 48.72C71.3613 49.104 71.2293 49.58 71.2293 50.148L69.5733 50.04C69.5733 48.872 69.8213 47.836 70.3173 46.932C70.8133 46.028 71.4773 45.316 72.3093 44.796C73.1493 44.276 74.0733 44.016 75.0813 44.016C76.1133 44.016 77.0813 44.268 77.9853 44.772C78.8973 45.276 79.6333 46.016 80.1933 46.992C80.7613 47.96 81.0453 49.148 81.0453 50.556C81.0453 52.036 80.7693 53.276 80.2173 54.276C79.6653 55.268 78.9373 56.02 78.0333 56.532C77.1293 57.036 76.1453 57.288 75.0813 57.288ZM66.9453 57V38.244H71.2293V57H66.9453ZM87.5577 57.252C86.6537 57.252 85.9097 57.108 85.3257 56.82C84.7497 56.532 84.2977 56.144 83.9697 55.656C83.6497 55.16 83.4217 54.608 83.2857 54C83.1577 53.384 83.0937 52.748 83.0937 52.092C83.0937 51.804 83.0937 51.504 83.0937 51.192C83.0937 50.872 83.0937 50.544 83.0937 50.208V44.256H87.3657V49.5C87.3657 49.772 87.3657 50.032 87.3657 50.28C87.3657 50.52 87.3657 50.744 87.3657 50.952C87.3657 51.44 87.4137 51.892 87.5097 52.308C87.6057 52.724 87.7937 53.06 88.0737 53.316C88.3617 53.564 88.7737 53.688 89.3097 53.688C89.8457 53.688 90.2937 53.54 90.6537 53.244C91.0137 52.94 91.2857 52.556 91.4697 52.092C91.6617 51.62 91.7577 51.128 91.7577 50.616L92.7417 51.576C92.7417 52.416 92.6217 53.184 92.3817 53.88C92.1417 54.568 91.7977 55.164 91.3497 55.668C90.9017 56.172 90.3577 56.564 89.7177 56.844C89.0857 57.116 88.3657 57.252 87.5577 57.252ZM91.7577 57V44.256H96.0297V57H91.7577ZM105.234 57.288C104.714 57.288 104.17 57.244 103.602 57.156C103.034 57.076 102.506 56.908 102.018 56.652C101.53 56.396 101.134 56.012 100.83 55.5C100.526 54.988 100.374 54.308 100.374 53.46C100.374 53.276 100.374 53.096 100.374 52.92C100.374 52.736 100.374 52.552 100.374 52.368V47.496H97.4825V44.256H97.9265C98.4785 44.256 98.9185 44.232 99.2465 44.184C99.5745 44.136 99.8185 44.016 99.9785 43.824C100.138 43.632 100.242 43.336 100.29 42.936C100.346 42.528 100.374 41.964 100.374 41.244V40.068H104.67V44.256H108.27V47.496H104.67V51.54C104.67 51.676 104.67 51.808 104.67 51.936C104.67 52.056 104.67 52.18 104.67 52.308C104.67 52.812 104.73 53.232 104.85 53.568C104.97 53.904 105.282 54.072 105.786 54.072C106.066 54.072 106.33 54.044 106.578 53.988C106.826 53.932 107.01 53.88 107.13 53.832V56.976C106.954 57.048 106.702 57.116 106.374 57.18C106.046 57.252 105.666 57.288 105.234 57.288ZM111.797 51.852V49.176H119.777L119.417 49.8C119.417 49.736 119.417 49.672 119.417 49.608C119.417 49.536 119.417 49.472 119.417 49.416C119.417 49.056 119.325 48.7 119.141 48.348C118.957 47.988 118.665 47.692 118.265 47.46C117.865 47.22 117.341 47.1 116.693 47.1C116.053 47.1 115.509 47.236 115.061 47.508C114.621 47.772 114.285 48.164 114.053 48.684C113.829 49.196 113.717 49.816 113.717 50.544C113.717 51.304 113.825 51.956 114.041 52.5C114.265 53.036 114.605 53.448 115.061 53.736C115.517 54.016 116.101 54.156 116.813 54.156C117.253 54.156 117.629 54.12 117.941 54.048C118.261 53.976 118.517 53.884 118.709 53.772C118.909 53.652 119.057 53.524 119.153 53.388C119.257 53.244 119.321 53.104 119.345 52.968H123.569C123.521 53.52 123.329 54.056 122.993 54.576C122.657 55.088 122.193 55.552 121.601 55.968C121.017 56.376 120.305 56.7 119.465 56.94C118.633 57.18 117.689 57.3 116.633 57.3C115.185 57.3 113.925 57.02 112.853 56.46C111.781 55.892 110.949 55.108 110.357 54.108C109.773 53.108 109.481 51.956 109.481 50.652C109.481 49.324 109.781 48.164 110.381 47.172C110.981 46.172 111.817 45.396 112.889 44.844C113.969 44.284 115.217 44.004 116.633 44.004C118.097 44.004 119.361 44.288 120.425 44.856C121.489 45.416 122.309 46.208 122.885 47.232C123.461 48.256 123.749 49.46 123.749 50.844C123.749 51.06 123.745 51.256 123.737 51.432C123.729 51.608 123.717 51.748 123.701 51.852H111.797ZM131.113 57.3C130.049 57.3 129.061 57.048 128.149 56.544C127.245 56.032 126.517 55.276 125.965 54.276C125.413 53.276 125.137 52.036 125.137 50.556C125.137 49.148 125.421 47.956 125.989 46.98C126.557 46.004 127.297 45.264 128.209 44.76C129.121 44.256 130.089 44.004 131.113 44.004C132.129 44.004 133.053 44.268 133.885 44.796C134.717 45.316 135.381 46.028 135.877 46.932C136.373 47.836 136.621 48.872 136.621 50.04C136.621 50.08 136.621 50.12 136.621 50.16C136.621 50.2 136.621 50.244 136.621 50.292L134.965 50.304C134.965 50.28 134.965 50.256 134.965 50.232C134.965 50.2 134.965 50.172 134.965 50.148C134.965 49.58 134.829 49.104 134.557 48.72C134.293 48.328 133.957 48.032 133.549 47.832C133.141 47.624 132.717 47.52 132.277 47.52C131.565 47.52 130.933 47.76 130.381 48.24C129.829 48.712 129.553 49.484 129.553 50.556C129.553 51.628 129.829 52.412 130.381 52.908C130.933 53.404 131.565 53.652 132.277 53.652C132.733 53.652 133.165 53.544 133.573 53.328C133.981 53.112 134.313 52.804 134.569 52.404C134.833 51.996 134.965 51.512 134.965 50.952L136.621 51.048C136.621 52.208 136.373 53.26 135.877 54.204C135.389 55.148 134.729 55.9 133.897 56.46C133.065 57.02 132.137 57.3 131.113 57.3ZM134.965 57V38.244H139.249V57H134.965ZM153.984 57.288C152.704 57.288 151.576 57.084 150.6 56.676C149.632 56.268 148.872 55.66 148.32 54.852C147.776 54.036 147.504 53.024 147.504 51.816C147.504 51.688 147.504 51.572 147.504 51.468C147.504 51.356 147.504 51.236 147.504 51.108H151.236C151.236 51.228 151.236 51.336 151.236 51.432C151.236 51.52 151.236 51.624 151.236 51.744C151.236 52.568 151.468 53.2 151.932 53.64C152.396 54.08 153.084 54.3 153.996 54.3C154.916 54.3 155.624 54.156 156.12 53.868C156.616 53.572 156.864 53.088 156.864 52.416C156.864 51.944 156.676 51.528 156.3 51.168C155.932 50.808 155.428 50.488 154.788 50.208C154.156 49.92 153.432 49.652 152.616 49.404C151.728 49.124 150.904 48.756 150.144 48.3C149.384 47.844 148.772 47.264 148.308 46.56C147.852 45.856 147.624 44.988 147.624 43.956C147.624 42.916 147.9 42.032 148.452 41.304C149.004 40.568 149.756 40.008 150.708 39.624C151.66 39.232 152.736 39.036 153.936 39.036C155.192 39.036 156.3 39.232 157.26 39.624C158.228 40.008 158.984 40.588 159.528 41.364C160.08 42.132 160.356 43.092 160.356 44.244C160.356 44.372 160.356 44.492 160.356 44.604C160.356 44.708 160.356 44.828 160.356 44.964H156.636C156.636 44.876 156.636 44.784 156.636 44.688C156.636 44.592 156.636 44.5 156.636 44.412C156.636 43.636 156.42 43.04 155.988 42.624C155.564 42.208 154.896 42 153.984 42C153.104 42 152.42 42.16 151.932 42.48C151.452 42.8 151.212 43.292 151.212 43.956C151.212 44.436 151.384 44.844 151.728 45.18C152.08 45.516 152.56 45.816 153.168 46.08C153.776 46.344 154.468 46.608 155.244 46.872C156.3 47.24 157.22 47.648 158.004 48.096C158.796 48.536 159.408 49.092 159.84 49.764C160.272 50.428 160.488 51.276 160.488 52.308C160.488 53.364 160.216 54.264 159.672 55.008C159.128 55.752 158.364 56.32 157.38 56.712C156.404 57.096 155.272 57.288 153.984 57.288ZM170.881 57V52.068C170.881 51.596 170.881 51.188 170.881 50.844C170.881 50.492 170.881 50.2 170.881 49.968C170.881 49.64 170.861 49.316 170.821 48.996C170.789 48.676 170.709 48.38 170.581 48.108C170.461 47.828 170.273 47.608 170.017 47.448C169.761 47.28 169.413 47.196 168.973 47.196C168.565 47.196 168.213 47.284 167.917 47.46C167.621 47.628 167.377 47.864 167.185 48.168C167.001 48.464 166.865 48.808 166.777 49.2C166.689 49.584 166.645 49.988 166.645 50.412L165.625 49.572C165.625 48.492 165.821 47.536 166.213 46.704C166.605 45.864 167.161 45.208 167.881 44.736C168.609 44.256 169.469 44.016 170.461 44.016C171.525 44.016 172.353 44.244 172.945 44.7C173.545 45.148 173.965 45.748 174.205 46.5C174.453 47.244 174.577 48.068 174.577 48.972C174.577 49.316 174.577 49.78 174.577 50.364C174.577 50.948 174.577 51.648 174.577 52.464V57H170.881ZM162.925 57V44.256H166.645V57H162.925ZM178.801 57V52.08C178.801 51.592 178.801 51.172 178.801 50.82C178.801 50.468 178.801 50.176 178.801 49.944C178.801 49.592 178.781 49.256 178.741 48.936C178.701 48.608 178.617 48.312 178.489 48.048C178.361 47.784 178.169 47.576 177.913 47.424C177.657 47.272 177.309 47.196 176.869 47.196C176.461 47.196 176.109 47.284 175.813 47.46C175.525 47.628 175.289 47.86 175.105 48.156C174.921 48.452 174.785 48.788 174.697 49.164C174.617 49.54 174.577 49.932 174.577 50.34L173.557 49.512C173.557 48.448 173.749 47.504 174.133 46.68C174.525 45.856 175.077 45.208 175.789 44.736C176.509 44.256 177.369 44.016 178.369 44.016C179.409 44.016 180.229 44.236 180.829 44.676C181.437 45.116 181.869 45.704 182.125 46.44C182.389 47.168 182.521 47.984 182.521 48.888C182.521 49.248 182.521 49.712 182.521 50.28C182.521 50.848 182.521 51.54 182.521 52.356V57H178.801ZM189.627 57.264C188.699 57.264 187.871 57.116 187.143 56.82C186.423 56.524 185.859 56.096 185.451 55.536C185.043 54.976 184.839 54.296 184.839 53.496C184.839 52.592 185.087 51.856 185.583 51.288C186.079 50.72 186.735 50.288 187.551 49.992C188.375 49.688 189.267 49.488 190.227 49.392C191.627 49.256 192.591 49.132 193.119 49.02C193.655 48.908 193.923 48.712 193.923 48.432C193.923 48.424 193.923 48.416 193.923 48.408C193.923 47.936 193.695 47.564 193.239 47.292C192.791 47.02 192.163 46.884 191.355 46.884C190.499 46.884 189.843 47.04 189.387 47.352C188.939 47.656 188.715 48.124 188.715 48.756H185.055C185.055 47.732 185.331 46.868 185.883 46.164C186.443 45.46 187.199 44.928 188.151 44.568C189.103 44.2 190.179 44.016 191.379 44.016C192.499 44.016 193.535 44.188 194.487 44.532C195.439 44.868 196.203 45.376 196.779 46.056C197.363 46.736 197.655 47.6 197.655 48.648C197.655 48.816 197.655 48.984 197.655 49.152C197.655 49.312 197.655 49.476 197.655 49.644V54.156C197.655 54.484 197.663 54.8 197.679 55.104C197.703 55.4 197.751 55.672 197.823 55.92C197.903 56.2 198.003 56.432 198.123 56.616C198.243 56.8 198.343 56.928 198.423 57H194.763C194.707 56.944 194.619 56.828 194.499 56.652C194.387 56.476 194.291 56.272 194.211 56.04C194.115 55.76 194.043 55.48 193.995 55.2C193.955 54.912 193.935 54.576 193.935 54.192L194.703 54.72C194.479 55.248 194.115 55.704 193.611 56.088C193.115 56.464 192.523 56.756 191.835 56.964C191.155 57.164 190.419 57.264 189.627 57.264ZM190.623 54.48C191.207 54.48 191.751 54.376 192.255 54.168C192.767 53.952 193.183 53.616 193.503 53.16C193.823 52.704 193.983 52.108 193.983 51.372V50.088L194.907 50.988C194.379 51.18 193.767 51.34 193.071 51.468C192.383 51.588 191.695 51.684 191.007 51.756C190.191 51.836 189.579 51.976 189.171 52.176C188.771 52.368 188.571 52.696 188.571 53.16C188.571 53.6 188.743 53.932 189.087 54.156C189.431 54.372 189.943 54.48 190.623 54.48ZM200.378 57V44.256H204.11V48.648L203.342 48.168C203.43 47.568 203.59 47.016 203.822 46.512C204.054 46.008 204.354 45.572 204.722 45.204C205.09 44.828 205.526 44.536 206.03 44.328C206.542 44.12 207.126 44.016 207.782 44.016C208.294 44.016 208.694 44.056 208.982 44.136C209.278 44.208 209.462 44.264 209.534 44.304L208.922 47.64C208.85 47.6 208.69 47.536 208.442 47.448C208.194 47.36 207.874 47.316 207.482 47.316C206.842 47.316 206.306 47.424 205.874 47.64C205.442 47.856 205.094 48.144 204.83 48.504C204.574 48.856 204.39 49.248 204.278 49.68C204.166 50.112 204.11 50.548 204.11 50.988V57H200.378ZM217.681 57.264C217.193 57.264 216.689 57.22 216.169 57.132C215.657 57.052 215.177 56.888 214.729 56.64C214.289 56.384 213.933 56.012 213.661 55.524C213.389 55.036 213.253 54.392 213.253 53.592C213.253 53.416 213.253 53.236 213.253 53.052C213.253 52.868 213.253 52.684 213.253 52.5V47.136H210.313V44.256H211.141C211.621 44.256 212.001 44.236 212.281 44.196C212.569 44.156 212.781 44.056 212.917 43.896C213.061 43.728 213.153 43.468 213.193 43.116C213.233 42.764 213.253 42.28 213.253 41.664V40.056H216.985V44.256H220.693V47.136H216.985V51.72C216.985 51.864 216.985 52.004 216.985 52.14C216.985 52.276 216.985 52.408 216.985 52.536C216.985 53.088 217.049 53.536 217.177 53.88C217.313 54.224 217.645 54.396 218.173 54.396C218.437 54.396 218.685 54.372 218.917 54.324C219.157 54.276 219.337 54.228 219.457 54.18V56.976C219.289 57.048 219.053 57.112 218.749 57.168C218.445 57.232 218.089 57.264 217.681 57.264ZM243.444 50.532C243.444 51.3 243.296 52.08 243 52.872C242.712 53.664 242.272 54.392 241.68 55.056C241.096 55.72 240.352 56.26 239.448 56.676C238.552 57.084 237.488 57.288 236.256 57.288C234.616 57.288 233.216 56.9 232.056 56.124C230.896 55.34 230.008 54.26 229.392 52.884C228.784 51.508 228.48 49.928 228.48 48.144C228.48 46.36 228.784 44.784 229.392 43.416C230.008 42.048 230.896 40.976 232.056 40.2C233.216 39.424 234.616 39.036 236.256 39.036C237.624 39.036 238.788 39.284 239.748 39.78C240.716 40.276 241.488 40.92 242.064 41.712C242.648 42.504 243.044 43.34 243.252 44.22C243.38 44.756 243.444 45.272 243.444 45.768H239.712C239.712 45.528 239.692 45.296 239.652 45.072C239.572 44.488 239.388 43.968 239.1 43.512C238.812 43.056 238.428 42.696 237.948 42.432C237.476 42.16 236.912 42.024 236.256 42.024C235.488 42.024 234.804 42.244 234.204 42.684C233.604 43.124 233.132 43.796 232.788 44.7C232.444 45.604 232.272 46.752 232.272 48.144C232.272 49.544 232.444 50.7 232.788 51.612C233.132 52.516 233.604 53.192 234.204 53.64C234.804 54.08 235.488 54.3 236.256 54.3C236.808 54.3 237.296 54.2 237.72 54C238.152 53.8 238.512 53.524 238.8 53.172C239.096 52.82 239.32 52.416 239.472 51.96C239.632 51.504 239.712 51.028 239.712 50.532H243.444ZM252.254 57.276C250.878 57.276 249.666 56.992 248.618 56.424C247.57 55.856 246.75 55.076 246.158 54.084C245.574 53.084 245.282 51.932 245.282 50.628C245.282 49.332 245.574 48.188 246.158 47.196C246.75 46.196 247.57 45.42 248.618 44.868C249.666 44.308 250.878 44.028 252.254 44.028C253.63 44.028 254.842 44.308 255.89 44.868C256.938 45.42 257.754 46.196 258.338 47.196C258.93 48.188 259.226 49.332 259.226 50.628C259.226 51.932 258.93 53.084 258.338 54.084C257.754 55.076 256.938 55.856 255.89 56.424C254.842 56.992 253.63 57.276 252.254 57.276ZM252.254 54.324C252.902 54.324 253.466 54.172 253.946 53.868C254.426 53.564 254.798 53.136 255.062 52.584C255.326 52.024 255.458 51.372 255.458 50.628C255.458 49.884 255.326 49.24 255.062 48.696C254.798 48.144 254.426 47.72 253.946 47.424C253.466 47.128 252.902 46.98 252.254 46.98C251.614 46.98 251.05 47.128 250.562 47.424C250.082 47.72 249.71 48.144 249.446 48.696C249.182 49.24 249.05 49.884 249.05 50.628C249.05 51.372 249.182 52.024 249.446 52.584C249.71 53.136 250.082 53.564 250.562 53.868C251.05 54.172 251.614 54.324 252.254 54.324ZM270.526 57V51.588C270.526 51.284 270.526 51.008 270.526 50.76C270.526 50.512 270.526 50.288 270.526 50.088C270.526 49.56 270.458 49.08 270.322 48.648C270.186 48.208 269.942 47.856 269.59 47.592C269.238 47.328 268.73 47.196 268.066 47.196C267.49 47.196 266.99 47.328 266.566 47.592C266.15 47.856 265.83 48.224 265.606 48.696C265.382 49.168 265.27 49.712 265.27 50.328L264.238 49.584C264.238 48.48 264.478 47.512 264.958 46.68C265.438 45.848 266.086 45.196 266.902 44.724C267.726 44.252 268.638 44.016 269.638 44.016C270.686 44.016 271.546 44.228 272.218 44.652C272.898 45.068 273.402 45.652 273.73 46.404C274.066 47.148 274.234 48.02 274.234 49.02C274.234 49.428 274.234 49.884 274.234 50.388C274.234 50.892 274.234 51.408 274.234 51.936V57H270.526ZM261.55 57V44.256H265.27V57H261.55ZM283.001 57.264C282.513 57.264 282.009 57.22 281.489 57.132C280.977 57.052 280.497 56.888 280.049 56.64C279.609 56.384 279.253 56.012 278.981 55.524C278.709 55.036 278.573 54.392 278.573 53.592C278.573 53.416 278.573 53.236 278.573 53.052C278.573 52.868 278.573 52.684 278.573 52.5V47.136H275.633V44.256H276.461C276.941 44.256 277.321 44.236 277.601 44.196C277.889 44.156 278.101 44.056 278.237 43.896C278.381 43.728 278.473 43.468 278.513 43.116C278.553 42.764 278.573 42.28 278.573 41.664V40.056H282.305V44.256H286.013V47.136H282.305V51.72C282.305 51.864 282.305 52.004 282.305 52.14C282.305 52.276 282.305 52.408 282.305 52.536C282.305 53.088 282.369 53.536 282.497 53.88C282.633 54.224 282.965 54.396 283.493 54.396C283.757 54.396 284.005 54.372 284.237 54.324C284.477 54.276 284.657 54.228 284.777 54.18V56.976C284.609 57.048 284.373 57.112 284.069 57.168C283.765 57.232 283.409 57.264 283.001 57.264ZM288.268 57V44.256H292V48.648L291.232 48.168C291.32 47.568 291.48 47.016 291.712 46.512C291.944 46.008 292.244 45.572 292.612 45.204C292.98 44.828 293.416 44.536 293.92 44.328C294.432 44.12 295.016 44.016 295.672 44.016C296.184 44.016 296.584 44.056 296.872 44.136C297.168 44.208 297.352 44.264 297.424 44.304L296.812 47.64C296.74 47.6 296.58 47.536 296.332 47.448C296.084 47.36 295.764 47.316 295.372 47.316C294.732 47.316 294.196 47.424 293.764 47.64C293.332 47.856 292.984 48.144 292.72 48.504C292.464 48.856 292.28 49.248 292.168 49.68C292.056 50.112 292 50.548 292 50.988V57H288.268ZM303.393 57.264C302.465 57.264 301.637 57.116 300.909 56.82C300.189 56.524 299.625 56.096 299.217 55.536C298.809 54.976 298.605 54.296 298.605 53.496C298.605 52.592 298.853 51.856 299.349 51.288C299.845 50.72 300.501 50.288 301.317 49.992C302.141 49.688 303.033 49.488 303.993 49.392C305.393 49.256 306.357 49.132 306.885 49.02C307.421 48.908 307.689 48.712 307.689 48.432C307.689 48.424 307.689 48.416 307.689 48.408C307.689 47.936 307.461 47.564 307.005 47.292C306.557 47.02 305.929 46.884 305.121 46.884C304.265 46.884 303.609 47.04 303.153 47.352C302.705 47.656 302.481 48.124 302.481 48.756H298.821C298.821 47.732 299.097 46.868 299.649 46.164C300.209 45.46 300.965 44.928 301.917 44.568C302.869 44.2 303.945 44.016 305.145 44.016C306.265 44.016 307.301 44.188 308.253 44.532C309.205 44.868 309.969 45.376 310.545 46.056C311.129 46.736 311.421 47.6 311.421 48.648C311.421 48.816 311.421 48.984 311.421 49.152C311.421 49.312 311.421 49.476 311.421 49.644V54.156C311.421 54.484 311.429 54.8 311.445 55.104C311.469 55.4 311.517 55.672 311.589 55.92C311.669 56.2 311.769 56.432 311.889 56.616C312.009 56.8 312.109 56.928 312.189 57H308.529C308.473 56.944 308.385 56.828 308.265 56.652C308.153 56.476 308.057 56.272 307.977 56.04C307.881 55.76 307.809 55.48 307.761 55.2C307.721 54.912 307.701 54.576 307.701 54.192L308.469 54.72C308.245 55.248 307.881 55.704 307.377 56.088C306.881 56.464 306.289 56.756 305.601 56.964C304.921 57.164 304.185 57.264 303.393 57.264ZM304.389 54.48C304.973 54.48 305.517 54.376 306.021 54.168C306.533 53.952 306.949 53.616 307.269 53.16C307.589 52.704 307.749 52.108 307.749 51.372V50.088L308.673 50.988C308.145 51.18 307.533 51.34 306.837 51.468C306.149 51.588 305.461 51.684 304.773 51.756C303.957 51.836 303.345 51.976 302.937 52.176C302.537 52.368 302.337 52.696 302.337 53.16C302.337 53.6 302.509 53.932 302.853 54.156C303.197 54.372 303.709 54.48 304.389 54.48ZM320.563 57.288C319.163 57.288 317.935 57.008 316.879 56.448C315.823 55.88 315.003 55.092 314.419 54.084C313.843 53.076 313.555 51.912 313.555 50.592C313.555 49.256 313.843 48.1 314.419 47.124C315.003 46.14 315.823 45.376 316.879 44.832C317.935 44.288 319.163 44.016 320.563 44.016C321.611 44.016 322.539 44.172 323.347 44.484C324.155 44.788 324.831 45.192 325.375 45.696C325.919 46.2 326.331 46.752 326.611 47.352C326.891 47.952 327.031 48.548 327.031 49.14C327.031 49.148 327.031 49.164 327.031 49.188C327.031 49.204 327.031 49.22 327.031 49.236H323.347C323.347 49.188 323.343 49.144 323.335 49.104C323.335 49.056 323.327 49.008 323.311 48.96C323.247 48.624 323.107 48.308 322.891 48.012C322.675 47.716 322.371 47.476 321.979 47.292C321.595 47.1 321.115 47.004 320.539 47.004C319.923 47.004 319.371 47.14 318.883 47.412C318.403 47.684 318.023 48.088 317.743 48.624C317.463 49.152 317.323 49.808 317.323 50.592C317.323 51.36 317.463 52.024 317.743 52.584C318.023 53.136 318.403 53.56 318.883 53.856C319.371 54.152 319.923 54.3 320.539 54.3C321.171 54.3 321.687 54.204 322.087 54.012C322.487 53.812 322.787 53.548 322.987 53.22C323.187 52.884 323.307 52.516 323.347 52.116H327.031C327.031 52.708 326.891 53.312 326.611 53.928C326.339 54.536 325.931 55.092 325.387 55.596C324.851 56.1 324.179 56.508 323.371 56.82C322.563 57.132 321.627 57.288 320.563 57.288ZM335.525 57.264C335.037 57.264 334.533 57.22 334.013 57.132C333.501 57.052 333.021 56.888 332.573 56.64C332.133 56.384 331.777 56.012 331.505 55.524C331.233 55.036 331.097 54.392 331.097 53.592C331.097 53.416 331.097 53.236 331.097 53.052C331.097 52.868 331.097 52.684 331.097 52.5V47.136H328.157V44.256H328.985C329.465 44.256 329.845 44.236 330.125 44.196C330.413 44.156 330.625 44.056 330.761 43.896C330.905 43.728 330.997 43.468 331.037 43.116C331.077 42.764 331.097 42.28 331.097 41.664V40.056H334.829V44.256H338.537V47.136H334.829V51.72C334.829 51.864 334.829 52.004 334.829 52.14C334.829 52.276 334.829 52.408 334.829 52.536C334.829 53.088 334.893 53.536 335.021 53.88C335.157 54.224 335.489 54.396 336.017 54.396C336.281 54.396 336.529 54.372 336.761 54.324C337.001 54.276 337.181 54.228 337.301 54.18V56.976C337.133 57.048 336.897 57.112 336.593 57.168C336.289 57.232 335.933 57.264 335.525 57.264ZM346 57L350.416 39.276H356.308L360.7 57H356.884L353.356 41.544H353.38L349.816 57H346ZM349.168 52.896V49.992H357.568V52.896H349.168ZM369.102 57.288C367.702 57.288 366.474 57.008 365.418 56.448C364.362 55.88 363.542 55.092 362.958 54.084C362.382 53.076 362.094 51.912 362.094 50.592C362.094 49.256 362.382 48.1 362.958 47.124C363.542 46.14 364.362 45.376 365.418 44.832C366.474 44.288 367.702 44.016 369.102 44.016C370.15 44.016 371.078 44.172 371.886 44.484C372.694 44.788 373.37 45.192 373.914 45.696C374.458 46.2 374.87 46.752 375.15 47.352C375.43 47.952 375.57 48.548 375.57 49.14C375.57 49.148 375.57 49.164 375.57 49.188C375.57 49.204 375.57 49.22 375.57 49.236H371.886C371.886 49.188 371.882 49.144 371.874 49.104C371.874 49.056 371.866 49.008 371.85 48.96C371.786 48.624 371.646 48.308 371.43 48.012C371.214 47.716 370.91 47.476 370.518 47.292C370.134 47.1 369.654 47.004 369.078 47.004C368.462 47.004 367.91 47.14 367.422 47.412C366.942 47.684 366.562 48.088 366.282 48.624C366.002 49.152 365.862 49.808 365.862 50.592C365.862 51.36 366.002 52.024 366.282 52.584C366.562 53.136 366.942 53.56 367.422 53.856C367.91 54.152 368.462 54.3 369.078 54.3C369.71 54.3 370.226 54.204 370.626 54.012C371.026 53.812 371.326 53.548 371.526 53.22C371.726 52.884 371.846 52.516 371.886 52.116H375.57C375.57 52.708 375.43 53.312 375.15 53.928C374.878 54.536 374.47 55.092 373.926 55.596C373.39 56.1 372.718 56.508 371.91 56.82C371.102 57.132 370.166 57.288 369.102 57.288ZM384.313 57.288C382.913 57.288 381.685 57.008 380.629 56.448C379.573 55.88 378.753 55.092 378.169 54.084C377.593 53.076 377.305 51.912 377.305 50.592C377.305 49.256 377.593 48.1 378.169 47.124C378.753 46.14 379.573 45.376 380.629 44.832C381.685 44.288 382.913 44.016 384.313 44.016C385.361 44.016 386.289 44.172 387.097 44.484C387.905 44.788 388.581 45.192 389.125 45.696C389.669 46.2 390.081 46.752 390.361 47.352C390.641 47.952 390.781 48.548 390.781 49.14C390.781 49.148 390.781 49.164 390.781 49.188C390.781 49.204 390.781 49.22 390.781 49.236H387.097C387.097 49.188 387.093 49.144 387.085 49.104C387.085 49.056 387.077 49.008 387.061 48.96C386.997 48.624 386.857 48.308 386.641 48.012C386.425 47.716 386.121 47.476 385.729 47.292C385.345 47.1 384.865 47.004 384.289 47.004C383.673 47.004 383.121 47.14 382.633 47.412C382.153 47.684 381.773 48.088 381.493 48.624C381.213 49.152 381.073 49.808 381.073 50.592C381.073 51.36 381.213 52.024 381.493 52.584C381.773 53.136 382.153 53.56 382.633 53.856C383.121 54.152 383.673 54.3 384.289 54.3C384.921 54.3 385.437 54.204 385.837 54.012C386.237 53.812 386.537 53.548 386.737 53.22C386.937 52.884 387.057 52.516 387.097 52.116H390.781C390.781 52.708 390.641 53.312 390.361 53.928C390.089 54.536 389.681 55.092 389.137 55.596C388.601 56.1 387.929 56.508 387.121 56.82C386.313 57.132 385.377 57.288 384.313 57.288ZM399.488 57.276C398.112 57.276 396.9 56.992 395.852 56.424C394.804 55.856 393.984 55.076 393.392 54.084C392.808 53.084 392.516 51.932 392.516 50.628C392.516 49.332 392.808 48.188 393.392 47.196C393.984 46.196 394.804 45.42 395.852 44.868C396.9 44.308 398.112 44.028 399.488 44.028C400.864 44.028 402.076 44.308 403.124 44.868C404.172 45.42 404.988 46.196 405.572 47.196C406.164 48.188 406.46 49.332 406.46 50.628C406.46 51.932 406.164 53.084 405.572 54.084C404.988 55.076 404.172 55.856 403.124 56.424C402.076 56.992 400.864 57.276 399.488 57.276ZM399.488 54.324C400.136 54.324 400.7 54.172 401.18 53.868C401.66 53.564 402.032 53.136 402.296 52.584C402.56 52.024 402.692 51.372 402.692 50.628C402.692 49.884 402.56 49.24 402.296 48.696C402.032 48.144 401.66 47.72 401.18 47.424C400.7 47.128 400.136 46.98 399.488 46.98C398.848 46.98 398.284 47.128 397.796 47.424C397.316 47.72 396.944 48.144 396.68 48.696C396.416 49.24 396.284 49.884 396.284 50.628C396.284 51.372 396.416 52.024 396.68 52.584C396.944 53.136 397.316 53.564 397.796 53.868C398.284 54.172 398.848 54.324 399.488 54.324ZM413.308 57.24C412.404 57.24 411.66 57.096 411.076 56.808C410.492 56.512 410.032 56.116 409.696 55.62C409.36 55.124 409.124 54.572 408.988 53.964C408.852 53.356 408.784 52.74 408.784 52.116C408.784 51.828 408.784 51.524 408.784 51.204C408.784 50.884 408.784 50.556 408.784 50.22V44.256H412.504V49.632C412.504 49.904 412.504 50.168 412.504 50.424C412.504 50.68 412.504 50.916 412.504 51.132C412.504 51.668 412.564 52.16 412.684 52.608C412.804 53.056 413.024 53.416 413.344 53.688C413.672 53.96 414.136 54.096 414.736 54.096C415.32 54.096 415.816 53.932 416.224 53.604C416.632 53.268 416.944 52.84 417.16 52.32C417.376 51.8 417.484 51.264 417.484 50.712L418.528 51.564C418.528 52.364 418.404 53.108 418.156 53.796C417.916 54.484 417.572 55.088 417.124 55.608C416.676 56.12 416.128 56.52 415.48 56.808C414.84 57.096 414.116 57.24 413.308 57.24ZM417.484 57V44.256H421.204V57H417.484ZM432.971 57V51.588C432.971 51.284 432.971 51.008 432.971 50.76C432.971 50.512 432.971 50.288 432.971 50.088C432.971 49.56 432.903 49.08 432.767 48.648C432.631 48.208 432.387 47.856 432.035 47.592C431.683 47.328 431.175 47.196 430.511 47.196C429.935 47.196 429.435 47.328 429.011 47.592C428.595 47.856 428.275 48.224 428.051 48.696C427.827 49.168 427.715 49.712 427.715 50.328L426.683 49.584C426.683 48.48 426.923 47.512 427.403 46.68C427.883 45.848 428.531 45.196 429.347 44.724C430.171 44.252 431.083 44.016 432.083 44.016C433.131 44.016 433.991 44.228 434.663 44.652C435.343 45.068 435.847 45.652 436.175 46.404C436.511 47.148 436.679 48.02 436.679 49.02C436.679 49.428 436.679 49.884 436.679 50.388C436.679 50.892 436.679 51.408 436.679 51.936V57H432.971ZM423.995 57V44.256H427.715V57H423.995ZM445.446 57.264C444.958 57.264 444.454 57.22 443.934 57.132C443.422 57.052 442.942 56.888 442.494 56.64C442.054 56.384 441.698 56.012 441.426 55.524C441.154 55.036 441.018 54.392 441.018 53.592C441.018 53.416 441.018 53.236 441.018 53.052C441.018 52.868 441.018 52.684 441.018 52.5V47.136H438.078V44.256H438.906C439.386 44.256 439.766 44.236 440.046 44.196C440.334 44.156 440.546 44.056 440.682 43.896C440.826 43.728 440.918 43.468 440.958 43.116C440.998 42.764 441.018 42.28 441.018 41.664V40.056H444.75V44.256H448.458V47.136H444.75V51.72C444.75 51.864 444.75 52.004 444.75 52.14C444.75 52.276 444.75 52.408 444.75 52.536C444.75 53.088 444.814 53.536 444.942 53.88C445.078 54.224 445.41 54.396 445.938 54.396C446.202 54.396 446.45 54.372 446.682 54.324C446.922 54.276 447.102 54.228 447.222 54.18V56.976C447.054 57.048 446.818 57.112 446.514 57.168C446.21 57.232 445.854 57.264 445.446 57.264ZM455.713 57.288C454.953 57.288 454.221 57.2 453.517 57.024C452.813 56.848 452.181 56.588 451.621 56.244C451.069 55.9 450.629 55.472 450.301 54.96C449.981 54.44 449.821 53.836 449.821 53.148C449.821 53.116 449.821 53.08 449.821 53.04C449.821 52.992 449.821 52.956 449.821 52.932H453.517C453.517 52.956 453.517 52.984 453.517 53.016C453.517 53.04 453.517 53.068 453.517 53.1C453.517 53.564 453.721 53.904 454.129 54.12C454.545 54.336 455.105 54.444 455.809 54.444C456.177 54.444 456.529 54.408 456.865 54.336C457.209 54.256 457.489 54.132 457.705 53.964C457.929 53.788 458.041 53.568 458.041 53.304C458.041 52.88 457.805 52.58 457.333 52.404C456.869 52.228 456.121 52.052 455.089 51.876C454.505 51.78 453.913 51.644 453.313 51.468C452.713 51.292 452.161 51.06 451.657 50.772C451.153 50.476 450.749 50.104 450.445 49.656C450.141 49.2 449.989 48.648 449.989 48C449.989 47.136 450.249 46.408 450.769 45.816C451.297 45.224 451.997 44.776 452.869 44.472C453.741 44.168 454.701 44.016 455.749 44.016C456.749 44.016 457.681 44.184 458.545 44.52C459.409 44.848 460.109 45.324 460.645 45.948C461.181 46.564 461.449 47.308 461.449 48.18C461.449 48.196 461.449 48.22 461.449 48.252C461.449 48.284 461.449 48.316 461.449 48.348H457.789C457.789 48.316 457.789 48.288 457.789 48.264C457.789 48.24 457.789 48.22 457.789 48.204C457.789 47.884 457.685 47.624 457.477 47.424C457.277 47.224 457.021 47.076 456.709 46.98C456.397 46.876 456.073 46.824 455.737 46.824C455.433 46.824 455.117 46.86 454.789 46.932C454.469 46.996 454.197 47.108 453.973 47.268C453.749 47.42 453.637 47.636 453.637 47.916C453.637 48.188 453.757 48.412 453.997 48.588C454.237 48.756 454.573 48.896 455.005 49.008C455.437 49.112 455.937 49.212 456.505 49.308C457.041 49.396 457.605 49.52 458.197 49.68C458.797 49.832 459.357 50.052 459.877 50.34C460.405 50.62 460.829 50.992 461.149 51.456C461.477 51.912 461.641 52.492 461.641 53.196C461.641 53.924 461.473 54.548 461.137 55.068C460.801 55.588 460.345 56.012 459.769 56.34C459.201 56.66 458.565 56.896 457.861 57.048C457.165 57.208 456.449 57.288 455.713 57.288Z" fill="#1D1818"/>
</svg>
