<svg width="1280" height="720" viewBox="0 0 1280 720" fill="none" xmlns="http://www.w3.org/2000/svg">
<path d="M0.226402 229.013H0L0.000224468 -130.013H0.226615L0.226402 229.013Z" fill="#3A3535"/>
<path d="M19.2283 229.013H19.002L19.0022 -130.013H19.2286L19.2283 229.013Z" fill="#3A3535"/>
<path d="M38.0125 229.013H37.7861L37.7864 -130.013H38.0127L38.0125 229.013Z" fill="#3A3535"/>
<path d="M56.7977 229.013H56.5713L56.5715 -130.013H56.7979L56.7977 229.013Z" fill="#3A3535"/>
<path d="M75.5819 229.013H75.3555L75.3557 -130.013H75.5821L75.5819 229.013Z" fill="#3A3535"/>
<path d="M94.367 229.013H94.1406L94.1408 -130.013H94.3672L94.367 229.013Z" fill="#3A3535"/>
<path d="M113.151 229.013H112.925V-130.013H113.151V229.013Z" fill="#3A3535"/>
<path d="M131.936 229.013H131.71L131.711 -130.013H131.938L131.936 229.013Z" fill="#3A3535"/>
<path d="M150.722 229.013H150.495V-130.013H150.722V229.013Z" fill="#3A3535"/>
<path d="M169.506 229.013H169.279V-130.013H169.506V229.013Z" fill="#3A3535"/>
<path d="M188.29 229.013H188.063L188.065 -130.013H188.291L188.29 229.013Z" fill="#3A3535"/>
<path d="M207.076 229.013H206.85V-130.013H207.076V229.013Z" fill="#3A3535"/>
<path d="M225.86 229.013H225.634V-130.013H225.86V229.013Z" fill="#3A3535"/>
<path d="M244.644 229.013H244.418L244.419 -130.013H244.644V229.013Z" fill="#3A3535"/>
<path d="M263.43 229.013H263.203V-130.013H263.43V229.013Z" fill="#3A3535"/>
<path d="M282.215 229.013H281.988V-130.013H282.215V229.013Z" fill="#3A3535"/>
<path d="M300.999 229.013H300.772L300.774 -130.013H300.999V229.013Z" fill="#3A3535"/>
<path d="M320 229.013H319.773V-130.013H320V229.013Z" fill="#3A3535"/>
<path d="M339.399 2.62085H-19.3984V2.39473H339.399V2.62085Z" fill="#3A3535"/>
<path d="M339.399 21.4189L-19.3984 21.4178V21.1917L339.399 21.1928V21.4189Z" fill="#3A3535"/>
<path d="M339.399 40.2148H-19.3984V39.9887H339.399V40.2148Z" fill="#3A3535"/>
<path d="M339.399 59.011H-19.3984V58.7849H339.399V59.011Z" fill="#3A3535"/>
<path d="M339.399 77.8088L-19.3984 77.8077V77.5816L339.399 77.5827V77.8088Z" fill="#3A3535"/>
<path d="M339.399 96.6045H-19.3984V96.3784H339.399V96.6045Z" fill="#3A3535"/>
<path d="M339.399 115.401H-19.3984V115.175H339.399V115.401Z" fill="#3A3535"/>
<path d="M339.399 134.198H-19.3984V133.971L339.399 133.973V134.198Z" fill="#3A3535"/>
<path d="M339.399 152.995H-19.3984V152.769H339.399V152.995Z" fill="#3A3535"/>
<path d="M0.226402 436.013H0L0.000224468 76.9872H0.226615L0.226402 436.013Z" fill="#3A3535"/>
<path d="M19.2283 436.013H19.002L19.0022 76.9873H19.2286L19.2283 436.013Z" fill="#3A3535"/>
<path d="M38.0125 436.013H37.7861L37.7864 76.9873H38.0127L38.0125 436.013Z" fill="#3A3535"/>
<path d="M56.7977 436.013H56.5713L56.5715 76.9872H56.7979L56.7977 436.013Z" fill="#3A3535"/>
<path d="M75.5819 436.013H75.3555L75.3557 76.9872H75.5821L75.5819 436.013Z" fill="#3A3535"/>
<path d="M94.367 436.013H94.1406L94.1408 76.9872H94.3672L94.367 436.013Z" fill="#3A3535"/>
<path d="M113.151 436.013H112.925V76.9872H113.151V436.013Z" fill="#3A3535"/>
<path d="M131.936 436.013H131.71L131.711 76.9872H131.938L131.936 436.013Z" fill="#3A3535"/>
<path d="M150.722 436.013H150.495V76.9872H150.722V436.013Z" fill="#3A3535"/>
<path d="M169.506 436.013H169.279V76.9872H169.506V436.013Z" fill="#3A3535"/>
<path d="M188.29 436.013H188.063L188.065 76.9872H188.291L188.29 436.013Z" fill="#3A3535"/>
<path d="M207.076 436.013H206.85V76.9872H207.076V436.013Z" fill="#3A3535"/>
<path d="M225.86 436.013H225.634V76.9872H225.86V436.013Z" fill="#3A3535"/>
<path d="M244.644 436.013H244.418L244.419 76.9872H244.644V436.013Z" fill="#3A3535"/>
<path d="M263.43 436.013H263.203V76.9872H263.43V436.013Z" fill="#3A3535"/>
<path d="M282.215 436.013H281.988V76.9872H282.215V436.013Z" fill="#3A3535"/>
<path d="M300.999 436.013H300.772L300.774 76.9872H300.999V436.013Z" fill="#3A3535"/>
<path d="M320 436.013H319.773V76.9872H320V436.013Z" fill="#3A3535"/>
<path d="M339.399 172.028L-19.3984 172.027V171.802H339.399V172.028Z" fill="#3A3535"/>
<path d="M339.399 190.825H-19.3984V190.599H339.399V190.825Z" fill="#3A3535"/>
<path d="M339.399 209.621H-19.3984V209.395H339.399V209.621Z" fill="#3A3535"/>
<path d="M339.399 228.419L-19.3984 228.418V228.192L339.399 228.193V228.419Z" fill="#3A3535"/>
<path d="M339.399 247.215H-19.3984V246.989H339.399V247.215Z" fill="#3A3535"/>
<path d="M339.399 266.011H-19.3984V265.785H339.399V266.011Z" fill="#3A3535"/>
<path d="M339.399 284.809L-19.3984 284.808V284.582L339.399 284.583V284.809Z" fill="#3A3535"/>
<path d="M339.399 303.604H-19.3984V303.378H339.399V303.604Z" fill="#3A3535"/>
<path d="M339.399 322.401H-19.3984V322.175H339.399V322.401Z" fill="#3A3535"/>
<path d="M339.399 341.198H-19.3984V340.971L339.399 340.973V341.198Z" fill="#3A3535"/>
<path d="M339.399 359.995H-19.3984V359.769H339.399V359.995Z" fill="#3A3535"/>
<path d="M0.226402 643.013H0L0.000224468 283.987H0.226615L0.226402 643.013Z" fill="#3A3535"/>
<path d="M19.2283 643.013H19.002L19.0022 283.987H19.2286L19.2283 643.013Z" fill="#3A3535"/>
<path d="M38.0125 643.013H37.7861L37.7864 283.987H38.0127L38.0125 643.013Z" fill="#3A3535"/>
<path d="M56.7977 643.013H56.5713L56.5715 283.987H56.7979L56.7977 643.013Z" fill="#3A3535"/>
<path d="M75.5819 643.013H75.3555L75.3557 283.987H75.5821L75.5819 643.013Z" fill="#3A3535"/>
<path d="M94.367 643.013H94.1406L94.1408 283.987H94.3672L94.367 643.013Z" fill="#3A3535"/>
<path d="M113.151 643.013H112.925V283.987H113.151V643.013Z" fill="#3A3535"/>
<path d="M131.936 643.013H131.71L131.711 283.987H131.938L131.936 643.013Z" fill="#3A3535"/>
<path d="M150.722 643.013H150.495V283.987H150.722V643.013Z" fill="#3A3535"/>
<path d="M169.506 643.013H169.279V283.987H169.506V643.013Z" fill="#3A3535"/>
<path d="M188.29 643.013H188.063L188.065 283.987H188.291L188.29 643.013Z" fill="#3A3535"/>
<path d="M207.076 643.013H206.85V283.987H207.076V643.013Z" fill="#3A3535"/>
<path d="M225.86 643.013H225.634V283.987H225.86V643.013Z" fill="#3A3535"/>
<path d="M244.644 643.013H244.418L244.419 283.987H244.644V643.013Z" fill="#3A3535"/>
<path d="M263.43 643.013H263.203V283.987H263.43V643.013Z" fill="#3A3535"/>
<path d="M282.215 643.013H281.988V283.987H282.215V643.013Z" fill="#3A3535"/>
<path d="M300.999 643.013H300.772L300.774 283.987H300.999V643.013Z" fill="#3A3535"/>
<path d="M320 643.013H319.773V283.987H320V643.013Z" fill="#3A3535"/>
<path d="M339.399 379.028L-19.3984 379.027V378.802H339.399V379.028Z" fill="#3A3535"/>
<path d="M339.399 397.825H-19.3984V397.599H339.399V397.825Z" fill="#3A3535"/>
<path d="M339.399 416.621H-19.3984V416.395H339.399V416.621Z" fill="#3A3535"/>
<path d="M339.399 435.419L-19.3984 435.418V435.192L339.399 435.193V435.419Z" fill="#3A3535"/>
<path d="M339.399 454.215H-19.3984V453.989H339.399V454.215Z" fill="#3A3535"/>
<path d="M339.399 473.011H-19.3984V472.785H339.399V473.011Z" fill="#3A3535"/>
<path d="M339.399 491.809L-19.3984 491.808V491.582L339.399 491.583V491.809Z" fill="#3A3535"/>
<path d="M339.399 510.604H-19.3984V510.378H339.399V510.604Z" fill="#3A3535"/>
<path d="M339.399 529.401H-19.3984V529.175H339.399V529.401Z" fill="#3A3535"/>
<path d="M339.399 548.198H-19.3984V547.971L339.399 547.973V548.198Z" fill="#3A3535"/>
<path d="M339.399 566.995H-19.3984V566.769H339.399V566.995Z" fill="#3A3535"/>
<path d="M0.226402 850.013H0L0.000224468 490.987H0.226615L0.226402 850.013Z" fill="#3A3535"/>
<path d="M19.2283 850.013H19.002L19.0022 490.987H19.2286L19.2283 850.013Z" fill="#3A3535"/>
<path d="M38.0125 850.013H37.7861L37.7864 490.987H38.0127L38.0125 850.013Z" fill="#3A3535"/>
<path d="M56.7977 850.013H56.5713L56.5715 490.987H56.7979L56.7977 850.013Z" fill="#3A3535"/>
<path d="M75.5819 850.013H75.3555L75.3557 490.987H75.5821L75.5819 850.013Z" fill="#3A3535"/>
<path d="M94.367 850.013H94.1406L94.1408 490.987H94.3672L94.367 850.013Z" fill="#3A3535"/>
<path d="M113.151 850.013H112.925V490.987H113.151V850.013Z" fill="#3A3535"/>
<path d="M131.936 850.013H131.71L131.711 490.987H131.938L131.936 850.013Z" fill="#3A3535"/>
<path d="M150.722 850.013H150.495V490.987H150.722V850.013Z" fill="#3A3535"/>
<path d="M169.506 850.013H169.279V490.987H169.506V850.013Z" fill="#3A3535"/>
<path d="M188.29 850.013H188.063L188.065 490.987H188.291L188.29 850.013Z" fill="#3A3535"/>
<path d="M207.076 850.013H206.85V490.987H207.076V850.013Z" fill="#3A3535"/>
<path d="M225.86 850.013H225.634V490.987H225.86V850.013Z" fill="#3A3535"/>
<path d="M244.644 850.013H244.418L244.419 490.987H244.644V850.013Z" fill="#3A3535"/>
<path d="M263.43 850.013H263.203V490.987H263.43V850.013Z" fill="#3A3535"/>
<path d="M282.215 850.013H281.988V490.987H282.215V850.013Z" fill="#3A3535"/>
<path d="M300.999 850.013H300.772L300.774 490.987H300.999V850.013Z" fill="#3A3535"/>
<path d="M320 850.013H319.773V490.987H320V850.013Z" fill="#3A3535"/>
<path d="M339.399 586.028L-19.3984 586.027V585.802H339.399V586.028Z" fill="#3A3535"/>
<path d="M339.399 604.825H-19.3984V604.599H339.399V604.825Z" fill="#3A3535"/>
<path d="M339.399 623.621H-19.3984V623.395H339.399V623.621Z" fill="#3A3535"/>
<path d="M339.399 642.419L-19.3984 642.418V642.192L339.399 642.193V642.419Z" fill="#3A3535"/>
<path d="M339.399 661.215H-19.3984V660.989H339.399V661.215Z" fill="#3A3535"/>
<path d="M339.399 680.011H-19.3984V679.785H339.399V680.011Z" fill="#3A3535"/>
<path d="M339.399 698.809L-19.3984 698.808V698.582L339.399 698.583V698.809Z" fill="#3A3535"/>
<path d="M339.399 717.604H-19.3984V717.378H339.399V717.604Z" fill="#3A3535"/>
<path d="M339.228 229.013H339.002L339.002 -130.013H339.229L339.228 229.013Z" fill="#3A3535"/>
<path d="M358.013 229.013H357.786L357.786 -130.013H358.013L358.013 229.013Z" fill="#3A3535"/>
<path d="M376.798 229.013H376.571L376.572 -130.013H376.798L376.798 229.013Z" fill="#3A3535"/>
<path d="M395.582 229.013H395.355L395.356 -130.013H395.582L395.582 229.013Z" fill="#3A3535"/>
<path d="M414.367 229.013H414.141L414.141 -130.013H414.367L414.367 229.013Z" fill="#3A3535"/>
<path d="M433.151 229.013H432.925V-130.013H433.151V229.013Z" fill="#3A3535"/>
<path d="M451.936 229.013H451.71L451.711 -130.013H451.938L451.936 229.013Z" fill="#3A3535"/>
<path d="M470.722 229.013H470.495V-130.013H470.722V229.013Z" fill="#3A3535"/>
<path d="M489.506 229.013H489.279V-130.013H489.506V229.013Z" fill="#3A3535"/>
<path d="M508.29 229.013H508.063L508.065 -130.013H508.291L508.29 229.013Z" fill="#3A3535"/>
<path d="M527.076 229.013H526.85V-130.013H527.076V229.013Z" fill="#3A3535"/>
<path d="M545.86 229.013H545.634V-130.013H545.86V229.013Z" fill="#3A3535"/>
<path d="M564.644 229.013H564.418L564.419 -130.013H564.644V229.013Z" fill="#3A3535"/>
<path d="M583.43 229.013H583.203V-130.013H583.43V229.013Z" fill="#3A3535"/>
<path d="M602.215 229.013H601.988V-130.013H602.215V229.013Z" fill="#3A3535"/>
<path d="M620.999 229.013H620.772L620.774 -130.013H620.999V229.013Z" fill="#3A3535"/>
<path d="M640 229.013H639.773V-130.013H640V229.013Z" fill="#3A3535"/>
<path d="M659.399 2.62085H300.602V2.39473H659.399V2.62085Z" fill="#3A3535"/>
<path d="M300.551 2.90039H300.322V2.11456H300.551V2.90039Z" fill="#3A3535"/>
<path d="M659.399 21.4189L300.602 21.4178V21.1917L659.399 21.1928V21.4189Z" fill="#3A3535"/>
<path d="M300.551 21.698L300.322 21.6969V20.9111L300.551 20.9122V21.698Z" fill="#3A3535"/>
<path d="M659.399 40.2148H300.602V39.9887H659.399V40.2148Z" fill="#3A3535"/>
<path d="M300.551 40.4941H300.322V39.7083H300.551V40.4941Z" fill="#3A3535"/>
<path d="M659.399 59.011H300.602V58.7849H659.399V59.011Z" fill="#3A3535"/>
<path d="M300.551 59.291H300.322V58.5052H300.551V59.291Z" fill="#3A3535"/>
<path d="M659.399 77.8088L300.602 77.8077V77.5816L659.399 77.5827V77.8088Z" fill="#3A3535"/>
<path d="M300.551 78.0879L300.322 78.0868V77.3009L300.551 77.3021V78.0879Z" fill="#3A3535"/>
<path d="M659.399 96.6045H300.602V96.3784H659.399V96.6045Z" fill="#3A3535"/>
<path d="M300.55 96.8845H300.321V96.0987H300.55V96.8845Z" fill="#3A3535"/>
<path d="M659.399 115.401H300.602V115.175H659.399V115.401Z" fill="#3A3535"/>
<path d="M300.55 115.681H300.321V114.895H300.55V115.681Z" fill="#3A3535"/>
<path d="M659.399 134.198H300.602V133.971L659.399 133.973V134.198Z" fill="#3A3535"/>
<path d="M300.55 134.478H300.321V133.692L300.55 133.693V134.478Z" fill="#3A3535"/>
<path d="M659.399 152.995H300.602V152.769H659.399V152.995Z" fill="#3A3535"/>
<path d="M300.55 153.274H300.321V152.489H300.55V153.274Z" fill="#3A3535"/>
<path d="M339.228 436.013H339.002L339.002 76.9873H339.229L339.228 436.013Z" fill="#3A3535"/>
<path d="M358.013 436.013H357.786L357.786 76.9873H358.013L358.013 436.013Z" fill="#3A3535"/>
<path d="M376.798 436.013H376.571L376.572 76.9872H376.798L376.798 436.013Z" fill="#3A3535"/>
<path d="M395.582 436.013H395.355L395.356 76.9872H395.582L395.582 436.013Z" fill="#3A3535"/>
<path d="M414.367 436.013H414.141L414.141 76.9872H414.367L414.367 436.013Z" fill="#3A3535"/>
<path d="M433.151 436.013H432.925V76.9872H433.151V436.013Z" fill="#3A3535"/>
<path d="M451.936 436.013H451.71L451.711 76.9872H451.938L451.936 436.013Z" fill="#3A3535"/>
<path d="M470.722 436.013H470.495V76.9872H470.722V436.013Z" fill="#3A3535"/>
<path d="M489.506 436.013H489.279V76.9872H489.506V436.013Z" fill="#3A3535"/>
<path d="M508.29 436.013H508.063L508.065 76.9872H508.291L508.29 436.013Z" fill="#3A3535"/>
<path d="M527.076 436.013H526.85V76.9872H527.076V436.013Z" fill="#3A3535"/>
<path d="M545.86 436.013H545.634V76.9872H545.86V436.013Z" fill="#3A3535"/>
<path d="M564.644 436.013H564.418L564.419 76.9872H564.644V436.013Z" fill="#3A3535"/>
<path d="M583.43 436.013H583.203V76.9872H583.43V436.013Z" fill="#3A3535"/>
<path d="M602.215 436.013H601.988V76.9872H602.215V436.013Z" fill="#3A3535"/>
<path d="M620.999 436.013H620.772L620.774 76.9872H620.999V436.013Z" fill="#3A3535"/>
<path d="M640 436.013H639.773V76.9872H640V436.013Z" fill="#3A3535"/>
<path d="M300.551 153.511H300.322V152.725H300.551V153.511Z" fill="#3A3535"/>
<path d="M659.399 172.028L300.602 172.027V171.802H659.399V172.028Z" fill="#3A3535"/>
<path d="M300.551 172.309L300.322 172.307V171.523H300.551V172.309Z" fill="#3A3535"/>
<path d="M659.399 190.825H300.602V190.599H659.399V190.825Z" fill="#3A3535"/>
<path d="M300.551 191.104H300.322V190.319H300.551V191.104Z" fill="#3A3535"/>
<path d="M659.399 209.621H300.602V209.395H659.399V209.621Z" fill="#3A3535"/>
<path d="M300.551 209.9H300.322V209.115H300.551V209.9Z" fill="#3A3535"/>
<path d="M659.399 228.419L300.602 228.418V228.192L659.399 228.193V228.419Z" fill="#3A3535"/>
<path d="M300.551 228.698L300.322 228.697V227.911L300.551 227.912V228.698Z" fill="#3A3535"/>
<path d="M659.399 247.215H300.602V246.989H659.399V247.215Z" fill="#3A3535"/>
<path d="M300.551 247.494H300.322V246.708H300.551V247.494Z" fill="#3A3535"/>
<path d="M659.399 266.011H300.602V265.785H659.399V266.011Z" fill="#3A3535"/>
<path d="M300.551 266.291H300.322V265.505H300.551V266.291Z" fill="#3A3535"/>
<path d="M659.399 284.809L300.602 284.808V284.582L659.399 284.583V284.809Z" fill="#3A3535"/>
<path d="M300.551 285.088L300.322 285.087V284.301L300.551 284.302V285.088Z" fill="#3A3535"/>
<path d="M659.399 303.604H300.602V303.378H659.399V303.604Z" fill="#3A3535"/>
<path d="M300.55 303.885H300.321V303.099H300.55V303.885Z" fill="#3A3535"/>
<path d="M659.399 322.401H300.602V322.175H659.399V322.401Z" fill="#3A3535"/>
<path d="M300.55 322.681H300.321V321.895H300.55V322.681Z" fill="#3A3535"/>
<path d="M659.399 341.198H300.602V340.971L659.399 340.973V341.198Z" fill="#3A3535"/>
<path d="M300.55 341.478H300.321V340.692L300.55 340.693V341.478Z" fill="#3A3535"/>
<path d="M659.399 359.995H300.602V359.769H659.399V359.995Z" fill="#3A3535"/>
<path d="M300.55 360.275H300.321V359.489H300.55V360.275Z" fill="#3A3535"/>
<path d="M339.228 643.013H339.002L339.002 283.987H339.229L339.228 643.013Z" fill="#3A3535"/>
<path d="M358.013 643.013H357.786L357.786 283.987H358.013L358.013 643.013Z" fill="#3A3535"/>
<path d="M376.798 643.013H376.571L376.572 283.987H376.798L376.798 643.013Z" fill="#3A3535"/>
<path d="M395.582 643.013H395.355L395.356 283.987H395.582L395.582 643.013Z" fill="#3A3535"/>
<path d="M414.367 643.013H414.141L414.141 283.987H414.367L414.367 643.013Z" fill="#3A3535"/>
<path d="M433.151 643.013H432.925V283.987H433.151V643.013Z" fill="#3A3535"/>
<path d="M451.936 643.013H451.71L451.711 283.987H451.938L451.936 643.013Z" fill="#3A3535"/>
<path d="M470.722 643.013H470.495V283.987H470.722V643.013Z" fill="#3A3535"/>
<path d="M489.506 643.013H489.279V283.987H489.506V643.013Z" fill="#3A3535"/>
<path d="M508.29 643.013H508.063L508.065 283.987H508.291L508.29 643.013Z" fill="#3A3535"/>
<path d="M527.076 643.013H526.85V283.987H527.076V643.013Z" fill="#3A3535"/>
<path d="M545.86 643.013H545.634V283.987H545.86V643.013Z" fill="#3A3535"/>
<path d="M564.644 643.013H564.418L564.419 283.987H564.644V643.013Z" fill="#3A3535"/>
<path d="M583.43 643.013H583.203V283.987H583.43V643.013Z" fill="#3A3535"/>
<path d="M602.215 643.013H601.988V283.987H602.215V643.013Z" fill="#3A3535"/>
<path d="M620.999 643.013H620.772L620.774 283.987H620.999V643.013Z" fill="#3A3535"/>
<path d="M640 643.013H639.773V283.987H640V643.013Z" fill="#3A3535"/>
<path d="M300.551 360.511H300.322V359.725H300.551V360.511Z" fill="#3A3535"/>
<path d="M659.399 379.028L300.602 379.027V378.802H659.399V379.028Z" fill="#3A3535"/>
<path d="M300.551 379.309L300.322 379.307V378.523H300.551V379.309Z" fill="#3A3535"/>
<path d="M659.399 397.825H300.602V397.599H659.399V397.825Z" fill="#3A3535"/>
<path d="M300.551 398.104H300.322V397.319H300.551V398.104Z" fill="#3A3535"/>
<path d="M659.399 416.621H300.602V416.395H659.399V416.621Z" fill="#3A3535"/>
<path d="M300.551 416.9H300.322V416.115H300.551V416.9Z" fill="#3A3535"/>
<path d="M659.399 435.419L300.602 435.418V435.192L659.399 435.193V435.419Z" fill="#3A3535"/>
<path d="M300.551 435.698L300.322 435.697V434.911L300.551 434.912V435.698Z" fill="#3A3535"/>
<path d="M659.399 454.215H300.602V453.989H659.399V454.215Z" fill="#3A3535"/>
<path d="M300.551 454.494H300.322V453.708H300.551V454.494Z" fill="#3A3535"/>
<path d="M659.399 473.011H300.602V472.785H659.399V473.011Z" fill="#3A3535"/>
<path d="M300.551 473.291H300.322V472.505H300.551V473.291Z" fill="#3A3535"/>
<path d="M659.399 491.809L300.602 491.808V491.582L659.399 491.583V491.809Z" fill="#3A3535"/>
<path d="M300.551 492.088L300.322 492.087V491.301L300.551 491.302V492.088Z" fill="#3A3535"/>
<path d="M659.399 510.604H300.602V510.378H659.399V510.604Z" fill="#3A3535"/>
<path d="M300.55 510.885H300.321V510.099H300.55V510.885Z" fill="#3A3535"/>
<path d="M659.399 529.401H300.602V529.175H659.399V529.401Z" fill="#3A3535"/>
<path d="M300.55 529.681H300.321V528.895H300.55V529.681Z" fill="#3A3535"/>
<path d="M659.399 548.198H300.602V547.971L659.399 547.973V548.198Z" fill="#3A3535"/>
<path d="M300.55 548.478H300.321V547.692L300.55 547.693V548.478Z" fill="#3A3535"/>
<path d="M659.399 566.995H300.602V566.769H659.399V566.995Z" fill="#3A3535"/>
<path d="M300.55 567.275H300.321V566.489H300.55V567.275Z" fill="#3A3535"/>
<path d="M339.228 850.013H339.002L339.002 490.987H339.229L339.228 850.013Z" fill="#3A3535"/>
<path d="M358.013 850.013H357.786L357.786 490.987H358.013L358.013 850.013Z" fill="#3A3535"/>
<path d="M376.798 850.013H376.571L376.572 490.987H376.798L376.798 850.013Z" fill="#3A3535"/>
<path d="M395.582 850.013H395.355L395.356 490.987H395.582L395.582 850.013Z" fill="#3A3535"/>
<path d="M414.367 850.013H414.141L414.141 490.987H414.367L414.367 850.013Z" fill="#3A3535"/>
<path d="M433.151 850.013H432.925V490.987H433.151V850.013Z" fill="#3A3535"/>
<path d="M451.936 850.013H451.71L451.711 490.987H451.938L451.936 850.013Z" fill="#3A3535"/>
<path d="M470.722 850.013H470.495V490.987H470.722V850.013Z" fill="#3A3535"/>
<path d="M489.506 850.013H489.279V490.987H489.506V850.013Z" fill="#3A3535"/>
<path d="M508.29 850.013H508.063L508.065 490.987H508.291L508.29 850.013Z" fill="#3A3535"/>
<path d="M527.076 850.013H526.85V490.987H527.076V850.013Z" fill="#3A3535"/>
<path d="M545.86 850.013H545.634V490.987H545.86V850.013Z" fill="#3A3535"/>
<path d="M564.644 850.013H564.418L564.419 490.987H564.644V850.013Z" fill="#3A3535"/>
<path d="M583.43 850.013H583.203V490.987H583.43V850.013Z" fill="#3A3535"/>
<path d="M602.215 850.013H601.988V490.987H602.215V850.013Z" fill="#3A3535"/>
<path d="M620.999 850.013H620.772L620.774 490.987H620.999V850.013Z" fill="#3A3535"/>
<path d="M640 850.013H639.773V490.987H640V850.013Z" fill="#3A3535"/>
<path d="M300.551 567.511H300.322V566.725H300.551V567.511Z" fill="#3A3535"/>
<path d="M659.399 586.028L300.602 586.027V585.802H659.399V586.028Z" fill="#3A3535"/>
<path d="M300.551 586.309L300.322 586.307V585.523H300.551V586.309Z" fill="#3A3535"/>
<path d="M659.399 604.825H300.602V604.599H659.399V604.825Z" fill="#3A3535"/>
<path d="M300.551 605.104H300.322V604.319H300.551V605.104Z" fill="#3A3535"/>
<path d="M659.399 623.621H300.602V623.395H659.399V623.621Z" fill="#3A3535"/>
<path d="M300.551 623.9H300.322V623.115H300.551V623.9Z" fill="#3A3535"/>
<path d="M659.399 642.419L300.602 642.418V642.192L659.399 642.193V642.419Z" fill="#3A3535"/>
<path d="M300.551 642.698L300.322 642.697V641.911L300.551 641.912V642.698Z" fill="#3A3535"/>
<path d="M659.399 661.215H300.602V660.989H659.399V661.215Z" fill="#3A3535"/>
<path d="M300.551 661.494H300.322V660.708H300.551V661.494Z" fill="#3A3535"/>
<path d="M659.399 680.011H300.602V679.785H659.399V680.011Z" fill="#3A3535"/>
<path d="M300.551 680.291H300.322V679.505H300.551V680.291Z" fill="#3A3535"/>
<path d="M659.399 698.809L300.602 698.808V698.582L659.399 698.583V698.809Z" fill="#3A3535"/>
<path d="M300.551 699.088L300.322 699.087V698.301L300.551 698.302V699.088Z" fill="#3A3535"/>
<path d="M659.399 717.604H300.602V717.378H659.399V717.604Z" fill="#3A3535"/>
<path d="M300.55 717.885H300.321V717.099H300.55V717.885Z" fill="#3A3535"/>
<path d="M659.228 229.013H659.002L659.002 -130.013H659.229L659.228 229.013Z" fill="#3A3535"/>
<path d="M678.013 229.013H677.786L677.786 -130.013H678.013L678.013 229.013Z" fill="#3A3535"/>
<path d="M696.798 229.013H696.571L696.572 -130.013H696.798L696.798 229.013Z" fill="#3A3535"/>
<path d="M715.582 229.013H715.355L715.356 -130.013H715.582L715.582 229.013Z" fill="#3A3535"/>
<path d="M734.367 229.013H734.141L734.141 -130.013H734.367L734.367 229.013Z" fill="#3A3535"/>
<path d="M753.151 229.013H752.925V-130.013H753.151V229.013Z" fill="#3A3535"/>
<path d="M771.936 229.013H771.71L771.711 -130.013H771.938L771.936 229.013Z" fill="#3A3535"/>
<path d="M790.722 229.013H790.495V-130.013H790.722V229.013Z" fill="#3A3535"/>
<path d="M809.506 229.013H809.279V-130.013H809.506V229.013Z" fill="#3A3535"/>
<path d="M828.29 229.013H828.063L828.065 -130.013H828.291L828.29 229.013Z" fill="#3A3535"/>
<path d="M847.076 229.013H846.85V-130.013H847.076V229.013Z" fill="#3A3535"/>
<path d="M865.86 229.013H865.634V-130.013H865.86V229.013Z" fill="#3A3535"/>
<path d="M884.644 229.013H884.418L884.419 -130.013H884.644V229.013Z" fill="#3A3535"/>
<path d="M903.43 229.013H903.203V-130.013H903.43V229.013Z" fill="#3A3535"/>
<path d="M922.215 229.013H921.988V-130.013H922.215V229.013Z" fill="#3A3535"/>
<path d="M940.999 229.013H940.772L940.774 -130.013H940.999V229.013Z" fill="#3A3535"/>
<path d="M960 229.013H959.773V-130.013H960V229.013Z" fill="#3A3535"/>
<path d="M979.399 2.62085H620.602V2.39473H979.399V2.62085Z" fill="#3A3535"/>
<path d="M620.551 2.90039H620.322V2.11456H620.551V2.90039Z" fill="#3A3535"/>
<path d="M979.399 21.4189L620.602 21.4178V21.1917L979.399 21.1928V21.4189Z" fill="#3A3535"/>
<path d="M620.551 21.698L620.322 21.6969V20.9111L620.551 20.9122V21.698Z" fill="#3A3535"/>
<path d="M979.399 40.2148H620.602V39.9887H979.399V40.2148Z" fill="#3A3535"/>
<path d="M620.551 40.4941H620.322V39.7083H620.551V40.4941Z" fill="#3A3535"/>
<path d="M979.399 59.011H620.602V58.7849H979.399V59.011Z" fill="#3A3535"/>
<path d="M620.551 59.291H620.322V58.5052H620.551V59.291Z" fill="#3A3535"/>
<path d="M979.399 77.8088L620.602 77.8077V77.5816L979.399 77.5827V77.8088Z" fill="#3A3535"/>
<path d="M620.551 78.0879L620.322 78.0868V77.3009L620.551 77.3021V78.0879Z" fill="#3A3535"/>
<path d="M979.399 96.6045H620.602V96.3784H979.399V96.6045Z" fill="#3A3535"/>
<path d="M620.55 96.8845H620.321V96.0987H620.55V96.8845Z" fill="#3A3535"/>
<path d="M979.399 115.401H620.602V115.175H979.399V115.401Z" fill="#3A3535"/>
<path d="M620.55 115.681H620.321V114.895H620.55V115.681Z" fill="#3A3535"/>
<path d="M979.399 134.198H620.602V133.971L979.399 133.973V134.198Z" fill="#3A3535"/>
<path d="M620.55 134.478H620.321V133.692L620.55 133.693V134.478Z" fill="#3A3535"/>
<path d="M979.399 152.995H620.602V152.769H979.399V152.995Z" fill="#3A3535"/>
<path d="M620.55 153.274H620.321V152.489H620.55V153.274Z" fill="#3A3535"/>
<path d="M659.228 436.013H659.002L659.002 76.9873H659.229L659.228 436.013Z" fill="#3A3535"/>
<path d="M678.013 436.013H677.786L677.786 76.9873H678.013L678.013 436.013Z" fill="#3A3535"/>
<path d="M696.798 436.013H696.571L696.572 76.9872H696.798L696.798 436.013Z" fill="#3A3535"/>
<path d="M715.582 436.013H715.355L715.356 76.9872H715.582L715.582 436.013Z" fill="#3A3535"/>
<path d="M734.367 436.013H734.141L734.141 76.9872H734.367L734.367 436.013Z" fill="#3A3535"/>
<path d="M753.151 436.013H752.925V76.9872H753.151V436.013Z" fill="#3A3535"/>
<path d="M771.936 436.013H771.71L771.711 76.9872H771.938L771.936 436.013Z" fill="#3A3535"/>
<path d="M790.722 436.013H790.495V76.9872H790.722V436.013Z" fill="#3A3535"/>
<path d="M809.506 436.013H809.279V76.9872H809.506V436.013Z" fill="#3A3535"/>
<path d="M828.29 436.013H828.063L828.065 76.9872H828.291L828.29 436.013Z" fill="#3A3535"/>
<path d="M847.076 436.013H846.85V76.9872H847.076V436.013Z" fill="#3A3535"/>
<path d="M865.86 436.013H865.634V76.9872H865.86V436.013Z" fill="#3A3535"/>
<path d="M884.644 436.013H884.418L884.419 76.9872H884.644V436.013Z" fill="#3A3535"/>
<path d="M903.43 436.013H903.203V76.9872H903.43V436.013Z" fill="#3A3535"/>
<path d="M922.215 436.013H921.988V76.9872H922.215V436.013Z" fill="#3A3535"/>
<path d="M940.999 436.013H940.772L940.774 76.9872H940.999V436.013Z" fill="#3A3535"/>
<path d="M960 436.013H959.773V76.9872H960V436.013Z" fill="#3A3535"/>
<path d="M620.551 153.511H620.322V152.725H620.551V153.511Z" fill="#3A3535"/>
<path d="M979.399 172.028L620.602 172.027V171.802H979.399V172.028Z" fill="#3A3535"/>
<path d="M620.551 172.309L620.322 172.307V171.523H620.551V172.309Z" fill="#3A3535"/>
<path d="M979.399 190.825H620.602V190.599H979.399V190.825Z" fill="#3A3535"/>
<path d="M620.551 191.104H620.322V190.319H620.551V191.104Z" fill="#3A3535"/>
<path d="M979.399 209.621H620.602V209.395H979.399V209.621Z" fill="#3A3535"/>
<path d="M620.551 209.9H620.322V209.115H620.551V209.9Z" fill="#3A3535"/>
<path d="M979.399 228.419L620.602 228.418V228.192L979.399 228.193V228.419Z" fill="#3A3535"/>
<path d="M620.551 228.698L620.322 228.697V227.911L620.551 227.912V228.698Z" fill="#3A3535"/>
<path d="M979.399 247.215H620.602V246.989H979.399V247.215Z" fill="#3A3535"/>
<path d="M620.551 247.494H620.322V246.708H620.551V247.494Z" fill="#3A3535"/>
<path d="M979.399 266.011H620.602V265.785H979.399V266.011Z" fill="#3A3535"/>
<path d="M620.551 266.291H620.322V265.505H620.551V266.291Z" fill="#3A3535"/>
<path d="M979.399 284.809L620.602 284.808V284.582L979.399 284.583V284.809Z" fill="#3A3535"/>
<path d="M620.551 285.088L620.322 285.087V284.301L620.551 284.302V285.088Z" fill="#3A3535"/>
<path d="M979.399 303.604H620.602V303.378H979.399V303.604Z" fill="#3A3535"/>
<path d="M620.55 303.885H620.321V303.099H620.55V303.885Z" fill="#3A3535"/>
<path d="M979.399 322.401H620.602V322.175H979.399V322.401Z" fill="#3A3535"/>
<path d="M620.55 322.681H620.321V321.895H620.55V322.681Z" fill="#3A3535"/>
<path d="M979.399 341.198H620.602V340.971L979.399 340.973V341.198Z" fill="#3A3535"/>
<path d="M620.55 341.478H620.321V340.692L620.55 340.693V341.478Z" fill="#3A3535"/>
<path d="M979.399 359.995H620.602V359.769H979.399V359.995Z" fill="#3A3535"/>
<path d="M620.55 360.275H620.321V359.489H620.55V360.275Z" fill="#3A3535"/>
<path d="M659.228 643.013H659.002L659.002 283.987H659.229L659.228 643.013Z" fill="#3A3535"/>
<path d="M678.013 643.013H677.786L677.786 283.987H678.013L678.013 643.013Z" fill="#3A3535"/>
<path d="M696.798 643.013H696.571L696.572 283.987H696.798L696.798 643.013Z" fill="#3A3535"/>
<path d="M715.582 643.013H715.355L715.356 283.987H715.582L715.582 643.013Z" fill="#3A3535"/>
<path d="M734.367 643.013H734.141L734.141 283.987H734.367L734.367 643.013Z" fill="#3A3535"/>
<path d="M753.151 643.013H752.925V283.987H753.151V643.013Z" fill="#3A3535"/>
<path d="M771.936 643.013H771.71L771.711 283.987H771.938L771.936 643.013Z" fill="#3A3535"/>
<path d="M790.722 643.013H790.495V283.987H790.722V643.013Z" fill="#3A3535"/>
<path d="M809.506 643.013H809.279V283.987H809.506V643.013Z" fill="#3A3535"/>
<path d="M828.29 643.013H828.063L828.065 283.987H828.291L828.29 643.013Z" fill="#3A3535"/>
<path d="M847.076 643.013H846.85V283.987H847.076V643.013Z" fill="#3A3535"/>
<path d="M865.86 643.013H865.634V283.987H865.86V643.013Z" fill="#3A3535"/>
<path d="M884.644 643.013H884.418L884.419 283.987H884.644V643.013Z" fill="#3A3535"/>
<path d="M903.43 643.013H903.203V283.987H903.43V643.013Z" fill="#3A3535"/>
<path d="M922.215 643.013H921.988V283.987H922.215V643.013Z" fill="#3A3535"/>
<path d="M940.999 643.013H940.772L940.774 283.987H940.999V643.013Z" fill="#3A3535"/>
<path d="M960 643.013H959.773V283.987H960V643.013Z" fill="#3A3535"/>
<path d="M620.551 360.511H620.322V359.725H620.551V360.511Z" fill="#3A3535"/>
<path d="M979.399 379.028L620.602 379.027V378.802H979.399V379.028Z" fill="#3A3535"/>
<path d="M620.551 379.309L620.322 379.307V378.523H620.551V379.309Z" fill="#3A3535"/>
<path d="M979.399 397.825H620.602V397.599H979.399V397.825Z" fill="#3A3535"/>
<path d="M620.551 398.104H620.322V397.319H620.551V398.104Z" fill="#3A3535"/>
<path d="M979.399 416.621H620.602V416.395H979.399V416.621Z" fill="#3A3535"/>
<path d="M620.551 416.9H620.322V416.115H620.551V416.9Z" fill="#3A3535"/>
<path d="M979.399 435.419L620.602 435.418V435.192L979.399 435.193V435.419Z" fill="#3A3535"/>
<path d="M620.551 435.698L620.322 435.697V434.911L620.551 434.912V435.698Z" fill="#3A3535"/>
<path d="M979.399 454.215H620.602V453.989H979.399V454.215Z" fill="#3A3535"/>
<path d="M620.551 454.494H620.322V453.708H620.551V454.494Z" fill="#3A3535"/>
<path d="M979.399 473.011H620.602V472.785H979.399V473.011Z" fill="#3A3535"/>
<path d="M620.551 473.291H620.322V472.505H620.551V473.291Z" fill="#3A3535"/>
<path d="M979.399 491.809L620.602 491.808V491.582L979.399 491.583V491.809Z" fill="#3A3535"/>
<path d="M620.551 492.088L620.322 492.087V491.301L620.551 491.302V492.088Z" fill="#3A3535"/>
<path d="M979.399 510.604H620.602V510.378H979.399V510.604Z" fill="#3A3535"/>
<path d="M620.55 510.885H620.321V510.099H620.55V510.885Z" fill="#3A3535"/>
<path d="M979.399 529.401H620.602V529.175H979.399V529.401Z" fill="#3A3535"/>
<path d="M620.55 529.681H620.321V528.895H620.55V529.681Z" fill="#3A3535"/>
<path d="M979.399 548.198H620.602V547.971L979.399 547.973V548.198Z" fill="#3A3535"/>
<path d="M620.55 548.478H620.321V547.692L620.55 547.693V548.478Z" fill="#3A3535"/>
<path d="M979.399 566.995H620.602V566.769H979.399V566.995Z" fill="#3A3535"/>
<path d="M620.55 567.275H620.321V566.489H620.55V567.275Z" fill="#3A3535"/>
<path d="M659.228 850.013H659.002L659.002 490.987H659.229L659.228 850.013Z" fill="#3A3535"/>
<path d="M678.013 850.013H677.786L677.786 490.987H678.013L678.013 850.013Z" fill="#3A3535"/>
<path d="M696.798 850.013H696.571L696.572 490.987H696.798L696.798 850.013Z" fill="#3A3535"/>
<path d="M715.582 850.013H715.355L715.356 490.987H715.582L715.582 850.013Z" fill="#3A3535"/>
<path d="M734.367 850.013H734.141L734.141 490.987H734.367L734.367 850.013Z" fill="#3A3535"/>
<path d="M753.151 850.013H752.925V490.987H753.151V850.013Z" fill="#3A3535"/>
<path d="M771.936 850.013H771.71L771.711 490.987H771.938L771.936 850.013Z" fill="#3A3535"/>
<path d="M790.722 850.013H790.495V490.987H790.722V850.013Z" fill="#3A3535"/>
<path d="M809.506 850.013H809.279V490.987H809.506V850.013Z" fill="#3A3535"/>
<path d="M828.29 850.013H828.063L828.065 490.987H828.291L828.29 850.013Z" fill="#3A3535"/>
<path d="M847.076 850.013H846.85V490.987H847.076V850.013Z" fill="#3A3535"/>
<path d="M865.86 850.013H865.634V490.987H865.86V850.013Z" fill="#3A3535"/>
<path d="M884.644 850.013H884.418L884.419 490.987H884.644V850.013Z" fill="#3A3535"/>
<path d="M903.43 850.013H903.203V490.987H903.43V850.013Z" fill="#3A3535"/>
<path d="M922.215 850.013H921.988V490.987H922.215V850.013Z" fill="#3A3535"/>
<path d="M940.999 850.013H940.772L940.774 490.987H940.999V850.013Z" fill="#3A3535"/>
<path d="M960 850.013H959.773V490.987H960V850.013Z" fill="#3A3535"/>
<path d="M620.551 567.511H620.322V566.725H620.551V567.511Z" fill="#3A3535"/>
<path d="M979.399 586.028L620.602 586.027V585.802H979.399V586.028Z" fill="#3A3535"/>
<path d="M620.551 586.309L620.322 586.307V585.523H620.551V586.309Z" fill="#3A3535"/>
<path d="M979.399 604.825H620.602V604.599H979.399V604.825Z" fill="#3A3535"/>
<path d="M620.551 605.104H620.322V604.319H620.551V605.104Z" fill="#3A3535"/>
<path d="M979.399 623.621H620.602V623.395H979.399V623.621Z" fill="#3A3535"/>
<path d="M620.551 623.9H620.322V623.115H620.551V623.9Z" fill="#3A3535"/>
<path d="M979.399 642.419L620.602 642.418V642.192L979.399 642.193V642.419Z" fill="#3A3535"/>
<path d="M620.551 642.698L620.322 642.697V641.911L620.551 641.912V642.698Z" fill="#3A3535"/>
<path d="M979.399 661.215H620.602V660.989H979.399V661.215Z" fill="#3A3535"/>
<path d="M620.551 661.494H620.322V660.708H620.551V661.494Z" fill="#3A3535"/>
<path d="M979.399 680.011H620.602V679.785H979.399V680.011Z" fill="#3A3535"/>
<path d="M620.551 680.291H620.322V679.505H620.551V680.291Z" fill="#3A3535"/>
<path d="M979.399 698.809L620.602 698.808V698.582L979.399 698.583V698.809Z" fill="#3A3535"/>
<path d="M620.551 699.088L620.322 699.087V698.301L620.551 698.302V699.088Z" fill="#3A3535"/>
<path d="M979.399 717.604H620.602V717.378H979.399V717.604Z" fill="#3A3535"/>
<path d="M620.55 717.885H620.321V717.099H620.55V717.885Z" fill="#3A3535"/>
<path d="M979.228 229.013H979.002L979.002 -130.013H979.229L979.228 229.013Z" fill="#3A3535"/>
<path d="M998.013 229.013H997.786L997.786 -130.013H998.013L998.013 229.013Z" fill="#3A3535"/>
<path d="M1016.8 229.013H1016.57L1016.57 -130.013H1016.8L1016.8 229.013Z" fill="#3A3535"/>
<path d="M1035.58 229.013H1035.36L1035.36 -130.013H1035.58L1035.58 229.013Z" fill="#3A3535"/>
<path d="M1054.37 229.013H1054.14L1054.14 -130.013H1054.37L1054.37 229.013Z" fill="#3A3535"/>
<path d="M1073.15 229.013H1072.92V-130.013H1073.15V229.013Z" fill="#3A3535"/>
<path d="M1091.94 229.013H1091.71L1091.71 -130.013H1091.94L1091.94 229.013Z" fill="#3A3535"/>
<path d="M1110.72 229.013H1110.5V-130.013H1110.72V229.013Z" fill="#3A3535"/>
<path d="M1129.51 229.013H1129.28V-130.013H1129.51V229.013Z" fill="#3A3535"/>
<path d="M1148.29 229.013H1148.06L1148.06 -130.013H1148.29L1148.29 229.013Z" fill="#3A3535"/>
<path d="M1167.08 229.013H1166.85V-130.013H1167.08V229.013Z" fill="#3A3535"/>
<path d="M1185.86 229.013H1185.63V-130.013H1185.86V229.013Z" fill="#3A3535"/>
<path d="M1204.64 229.013H1204.42L1204.42 -130.013H1204.64V229.013Z" fill="#3A3535"/>
<path d="M1223.43 229.013H1223.2V-130.013H1223.43V229.013Z" fill="#3A3535"/>
<path d="M1242.21 229.013H1241.99V-130.013H1242.21V229.013Z" fill="#3A3535"/>
<path d="M1261 229.013H1260.77L1260.77 -130.013H1261V229.013Z" fill="#3A3535"/>
<path d="M1280 229.013H1279.77V-130.013H1280V229.013Z" fill="#3A3535"/>
<path d="M1299.4 2.62085H940.602V2.39473H1299.4V2.62085Z" fill="#3A3535"/>
<path d="M940.551 2.90039H940.322V2.11456H940.551V2.90039Z" fill="#3A3535"/>
<path d="M1299.4 21.4189L940.602 21.4178V21.1917L1299.4 21.1928V21.4189Z" fill="#3A3535"/>
<path d="M940.551 21.698L940.322 21.6969V20.9111L940.551 20.9122V21.698Z" fill="#3A3535"/>
<path d="M1299.4 40.2148H940.602V39.9887H1299.4V40.2148Z" fill="#3A3535"/>
<path d="M940.551 40.4941H940.322V39.7083H940.551V40.4941Z" fill="#3A3535"/>
<path d="M1299.4 59.011H940.602V58.7849H1299.4V59.011Z" fill="#3A3535"/>
<path d="M940.551 59.291H940.322V58.5052H940.551V59.291Z" fill="#3A3535"/>
<path d="M1299.4 77.8088L940.602 77.8077V77.5816L1299.4 77.5827V77.8088Z" fill="#3A3535"/>
<path d="M940.551 78.0879L940.322 78.0868V77.3009L940.551 77.3021V78.0879Z" fill="#3A3535"/>
<path d="M1299.4 96.6045H940.602V96.3784H1299.4V96.6045Z" fill="#3A3535"/>
<path d="M940.55 96.8845H940.321V96.0987H940.55V96.8845Z" fill="#3A3535"/>
<path d="M1299.4 115.401H940.602V115.175H1299.4V115.401Z" fill="#3A3535"/>
<path d="M940.55 115.681H940.321V114.895H940.55V115.681Z" fill="#3A3535"/>
<path d="M1299.4 134.198H940.602V133.971L1299.4 133.973V134.198Z" fill="#3A3535"/>
<path d="M940.55 134.478H940.321V133.692L940.55 133.693V134.478Z" fill="#3A3535"/>
<path d="M1299.4 152.995H940.602V152.769H1299.4V152.995Z" fill="#3A3535"/>
<path d="M940.55 153.274H940.321V152.489H940.55V153.274Z" fill="#3A3535"/>
<path d="M979.228 436.013H979.002L979.002 76.9873H979.229L979.228 436.013Z" fill="#3A3535"/>
<path d="M998.013 436.013H997.786L997.786 76.9873H998.013L998.013 436.013Z" fill="#3A3535"/>
<path d="M1016.8 436.013H1016.57L1016.57 76.9872H1016.8L1016.8 436.013Z" fill="#3A3535"/>
<path d="M1035.58 436.013H1035.36L1035.36 76.9872H1035.58L1035.58 436.013Z" fill="#3A3535"/>
<path d="M1054.37 436.013H1054.14L1054.14 76.9872H1054.37L1054.37 436.013Z" fill="#3A3535"/>
<path d="M1073.15 436.013H1072.92V76.9872H1073.15V436.013Z" fill="#3A3535"/>
<path d="M1091.94 436.013H1091.71L1091.71 76.9872H1091.94L1091.94 436.013Z" fill="#3A3535"/>
<path d="M1110.72 436.013H1110.5V76.9872H1110.72V436.013Z" fill="#3A3535"/>
<path d="M1129.51 436.013H1129.28V76.9872H1129.51V436.013Z" fill="#3A3535"/>
<path d="M1148.29 436.013H1148.06L1148.06 76.9872H1148.29L1148.29 436.013Z" fill="#3A3535"/>
<path d="M1167.08 436.013H1166.85V76.9872H1167.08V436.013Z" fill="#3A3535"/>
<path d="M1185.86 436.013H1185.63V76.9872H1185.86V436.013Z" fill="#3A3535"/>
<path d="M1204.64 436.013H1204.42L1204.42 76.9872H1204.64V436.013Z" fill="#3A3535"/>
<path d="M1223.43 436.013H1223.2V76.9872H1223.43V436.013Z" fill="#3A3535"/>
<path d="M1242.21 436.013H1241.99V76.9872H1242.21V436.013Z" fill="#3A3535"/>
<path d="M1261 436.013H1260.77L1260.77 76.9872H1261V436.013Z" fill="#3A3535"/>
<path d="M1280 436.013H1279.77V76.9872H1280V436.013Z" fill="#3A3535"/>
<path d="M940.551 153.511H940.322V152.725H940.551V153.511Z" fill="#3A3535"/>
<path d="M1299.4 172.028L940.602 172.027V171.802H1299.4V172.028Z" fill="#3A3535"/>
<path d="M940.551 172.309L940.322 172.307V171.523H940.551V172.309Z" fill="#3A3535"/>
<path d="M1299.4 190.825H940.602V190.599H1299.4V190.825Z" fill="#3A3535"/>
<path d="M940.551 191.104H940.322V190.319H940.551V191.104Z" fill="#3A3535"/>
<path d="M1299.4 209.621H940.602V209.395H1299.4V209.621Z" fill="#3A3535"/>
<path d="M940.551 209.9H940.322V209.115H940.551V209.9Z" fill="#3A3535"/>
<path d="M1299.4 228.419L940.602 228.418V228.192L1299.4 228.193V228.419Z" fill="#3A3535"/>
<path d="M940.551 228.698L940.322 228.697V227.911L940.551 227.912V228.698Z" fill="#3A3535"/>
<path d="M1299.4 247.215H940.602V246.989H1299.4V247.215Z" fill="#3A3535"/>
<path d="M940.551 247.494H940.322V246.708H940.551V247.494Z" fill="#3A3535"/>
<path d="M1299.4 266.011H940.602V265.785H1299.4V266.011Z" fill="#3A3535"/>
<path d="M940.551 266.291H940.322V265.505H940.551V266.291Z" fill="#3A3535"/>
<path d="M1299.4 284.809L940.602 284.808V284.582L1299.4 284.583V284.809Z" fill="#3A3535"/>
<path d="M940.551 285.088L940.322 285.087V284.301L940.551 284.302V285.088Z" fill="#3A3535"/>
<path d="M1299.4 303.604H940.602V303.378H1299.4V303.604Z" fill="#3A3535"/>
<path d="M940.55 303.885H940.321V303.099H940.55V303.885Z" fill="#3A3535"/>
<path d="M1299.4 322.401H940.602V322.175H1299.4V322.401Z" fill="#3A3535"/>
<path d="M940.55 322.681H940.321V321.895H940.55V322.681Z" fill="#3A3535"/>
<path d="M1299.4 341.198H940.602V340.971L1299.4 340.973V341.198Z" fill="#3A3535"/>
<path d="M940.55 341.478H940.321V340.692L940.55 340.693V341.478Z" fill="#3A3535"/>
<path d="M1299.4 359.995H940.602V359.769H1299.4V359.995Z" fill="#3A3535"/>
<path d="M940.55 360.275H940.321V359.489H940.55V360.275Z" fill="#3A3535"/>
<path d="M979.228 643.013H979.002L979.002 283.987H979.229L979.228 643.013Z" fill="#3A3535"/>
<path d="M998.013 643.013H997.786L997.786 283.987H998.013L998.013 643.013Z" fill="#3A3535"/>
<path d="M1016.8 643.013H1016.57L1016.57 283.987H1016.8L1016.8 643.013Z" fill="#3A3535"/>
<path d="M1035.58 643.013H1035.36L1035.36 283.987H1035.58L1035.58 643.013Z" fill="#3A3535"/>
<path d="M1054.37 643.013H1054.14L1054.14 283.987H1054.37L1054.37 643.013Z" fill="#3A3535"/>
<path d="M1073.15 643.013H1072.92V283.987H1073.15V643.013Z" fill="#3A3535"/>
<path d="M1091.94 643.013H1091.71L1091.71 283.987H1091.94L1091.94 643.013Z" fill="#3A3535"/>
<path d="M1110.72 643.013H1110.5V283.987H1110.72V643.013Z" fill="#3A3535"/>
<path d="M1129.51 643.013H1129.28V283.987H1129.51V643.013Z" fill="#3A3535"/>
<path d="M1148.29 643.013H1148.06L1148.06 283.987H1148.29L1148.29 643.013Z" fill="#3A3535"/>
<path d="M1167.08 643.013H1166.85V283.987H1167.08V643.013Z" fill="#3A3535"/>
<path d="M1185.86 643.013H1185.63V283.987H1185.86V643.013Z" fill="#3A3535"/>
<path d="M1204.64 643.013H1204.42L1204.42 283.987H1204.64V643.013Z" fill="#3A3535"/>
<path d="M1223.43 643.013H1223.2V283.987H1223.43V643.013Z" fill="#3A3535"/>
<path d="M1242.21 643.013H1241.99V283.987H1242.21V643.013Z" fill="#3A3535"/>
<path d="M1261 643.013H1260.77L1260.77 283.987H1261V643.013Z" fill="#3A3535"/>
<path d="M1280 643.013H1279.77V283.987H1280V643.013Z" fill="#3A3535"/>
<path d="M940.551 360.511H940.322V359.725H940.551V360.511Z" fill="#3A3535"/>
<path d="M1299.4 379.028L940.602 379.027V378.802H1299.4V379.028Z" fill="#3A3535"/>
<path d="M940.551 379.309L940.322 379.307V378.523H940.551V379.309Z" fill="#3A3535"/>
<path d="M1299.4 397.825H940.602V397.599H1299.4V397.825Z" fill="#3A3535"/>
<path d="M940.551 398.104H940.322V397.319H940.551V398.104Z" fill="#3A3535"/>
<path d="M1299.4 416.621H940.602V416.395H1299.4V416.621Z" fill="#3A3535"/>
<path d="M940.551 416.9H940.322V416.115H940.551V416.9Z" fill="#3A3535"/>
<path d="M1299.4 435.419L940.602 435.418V435.192L1299.4 435.193V435.419Z" fill="#3A3535"/>
<path d="M940.551 435.698L940.322 435.697V434.911L940.551 434.912V435.698Z" fill="#3A3535"/>
<path d="M1299.4 454.215H940.602V453.989H1299.4V454.215Z" fill="#3A3535"/>
<path d="M940.551 454.494H940.322V453.708H940.551V454.494Z" fill="#3A3535"/>
<path d="M1299.4 473.011H940.602V472.785H1299.4V473.011Z" fill="#3A3535"/>
<path d="M940.551 473.291H940.322V472.505H940.551V473.291Z" fill="#3A3535"/>
<path d="M1299.4 491.809L940.602 491.808V491.582L1299.4 491.583V491.809Z" fill="#3A3535"/>
<path d="M940.551 492.088L940.322 492.087V491.301L940.551 491.302V492.088Z" fill="#3A3535"/>
<path d="M1299.4 510.604H940.602V510.378H1299.4V510.604Z" fill="#3A3535"/>
<path d="M940.55 510.885H940.321V510.099H940.55V510.885Z" fill="#3A3535"/>
<path d="M1299.4 529.401H940.602V529.175H1299.4V529.401Z" fill="#3A3535"/>
<path d="M940.55 529.681H940.321V528.895H940.55V529.681Z" fill="#3A3535"/>
<path d="M1299.4 548.198H940.602V547.971L1299.4 547.973V548.198Z" fill="#3A3535"/>
<path d="M940.55 548.478H940.321V547.692L940.55 547.693V548.478Z" fill="#3A3535"/>
<path d="M1299.4 566.995H940.602V566.769H1299.4V566.995Z" fill="#3A3535"/>
<path d="M940.55 567.275H940.321V566.489H940.55V567.275Z" fill="#3A3535"/>
<path d="M979.228 850.013H979.002L979.002 490.987H979.229L979.228 850.013Z" fill="#3A3535"/>
<path d="M998.013 850.013H997.786L997.786 490.987H998.013L998.013 850.013Z" fill="#3A3535"/>
<path d="M1016.8 850.013H1016.57L1016.57 490.987H1016.8L1016.8 850.013Z" fill="#3A3535"/>
<path d="M1035.58 850.013H1035.36L1035.36 490.987H1035.58L1035.58 850.013Z" fill="#3A3535"/>
<path d="M1054.37 850.013H1054.14L1054.14 490.987H1054.37L1054.37 850.013Z" fill="#3A3535"/>
<path d="M1073.15 850.013H1072.92V490.987H1073.15V850.013Z" fill="#3A3535"/>
<path d="M1091.94 850.013H1091.71L1091.71 490.987H1091.94L1091.94 850.013Z" fill="#3A3535"/>
<path d="M1110.72 850.013H1110.5V490.987H1110.72V850.013Z" fill="#3A3535"/>
<path d="M1129.51 850.013H1129.28V490.987H1129.51V850.013Z" fill="#3A3535"/>
<path d="M1148.29 850.013H1148.06L1148.06 490.987H1148.29L1148.29 850.013Z" fill="#3A3535"/>
<path d="M1167.08 850.013H1166.85V490.987H1167.08V850.013Z" fill="#3A3535"/>
<path d="M1185.86 850.013H1185.63V490.987H1185.86V850.013Z" fill="#3A3535"/>
<path d="M1204.64 850.013H1204.42L1204.42 490.987H1204.64V850.013Z" fill="#3A3535"/>
<path d="M1223.43 850.013H1223.2V490.987H1223.43V850.013Z" fill="#3A3535"/>
<path d="M1242.21 850.013H1241.99V490.987H1242.21V850.013Z" fill="#3A3535"/>
<path d="M1261 850.013H1260.77L1260.77 490.987H1261V850.013Z" fill="#3A3535"/>
<path d="M1280 850.013H1279.77V490.987H1280V850.013Z" fill="#3A3535"/>
<path d="M940.551 567.511H940.322V566.725H940.551V567.511Z" fill="#3A3535"/>
<path d="M1299.4 586.028L940.602 586.027V585.802H1299.4V586.028Z" fill="#3A3535"/>
<path d="M940.551 586.309L940.322 586.307V585.523H940.551V586.309Z" fill="#3A3535"/>
<path d="M1299.4 604.825H940.602V604.599H1299.4V604.825Z" fill="#3A3535"/>
<path d="M940.551 605.104H940.322V604.319H940.551V605.104Z" fill="#3A3535"/>
<path d="M1299.4 623.621H940.602V623.395H1299.4V623.621Z" fill="#3A3535"/>
<path d="M940.551 623.9H940.322V623.115H940.551V623.9Z" fill="#3A3535"/>
<path d="M1299.4 642.419L940.602 642.418V642.192L1299.4 642.193V642.419Z" fill="#3A3535"/>
<path d="M940.551 642.698L940.322 642.697V641.911L940.551 641.912V642.698Z" fill="#3A3535"/>
<path d="M1299.4 661.215H940.602V660.989H1299.4V661.215Z" fill="#3A3535"/>
<path d="M940.551 661.494H940.322V660.708H940.551V661.494Z" fill="#3A3535"/>
<path d="M1299.4 680.011H940.602V679.785H1299.4V680.011Z" fill="#3A3535"/>
<path d="M940.551 680.291H940.322V679.505H940.551V680.291Z" fill="#3A3535"/>
<path d="M1299.4 698.809L940.602 698.808V698.582L1299.4 698.583V698.809Z" fill="#3A3535"/>
<path d="M940.551 699.088L940.322 699.087V698.301L940.551 698.302V699.088Z" fill="#3A3535"/>
<path d="M1299.4 717.604H940.602V717.378H1299.4V717.604Z" fill="#3A3535"/>
<path d="M940.55 717.885H940.321V717.099H940.55V717.885Z" fill="#3A3535"/>
<rect width="1280" height="720" fill="url(#paint0_linear_149_47)"/>
<defs>
<linearGradient id="paint0_linear_149_47" x1="640" y1="0" x2="640" y2="720" gradientUnits="userSpaceOnUse">
<stop stop-opacity="0"/>
<stop offset="0.0001" stop-color="white" stop-opacity="0"/>
<stop offset="1" stop-color="white"/>
</linearGradient>
</defs>
</svg>
